manifont-grotesk_book-italic.sfdir
StartChar: exclam
Encoding: 1 33 131
Width: 239
Flags: HMW
HStem: 0 100<92 165 74 183> 700 20G<208 307 307 307>
LayerCount: 2
Back
SplineSet
213.8125 48.26953125 m 1
 222.923828125 97.8955078125 l 1
 260.106445312 128.915039062 l 1
 302.993164062 121.810546875 l 1
 328.110351562 81.626953125 l 1
 319 32 l 1
 281 2 l 1
 238.112304688 9.103515625 l 1
 213.8125 48.26953125 l 1
65.0322265625 25.275390625 m 5
 74.2353515625 74.90234375 l 5
 112.802734375 109.921875 l 5
 158.143554688 109.817382812 l 5
 183.696289062 74.6513671875 l 5
 174.495117188 25.0234375 l 5
 135.926757812 -9.9931640625 l 5
 90.5859375 -9.8896484375 l 5
 65.0322265625 25.275390625 l 5
181 178 m 1
 126 188 l 1
 210 734 l 1
 307 720 l 1
 181 178 l 1
EndSplineSet
Fore
SplineSet
66.7060546875 29.3544921875 m 5
 75.8173828125 78.98046875 l 5
 113 110 l 5
 155.88671875 102.895507812 l 5
 181.00390625 62.7119140625 l 5
 171.893554688 13.0849609375 l 5
 133.893554688 -16.9150390625 l 5
 91.005859375 -9.8115234375 l 5
 66.7060546875 29.3544921875 l 5
181 178 m 1
 126 188 l 1
 210 734 l 1
 307 720 l 1
 181 178 l 1
EndSplineSet
Validated: 1
EndChar
StartChar: quotedbl
Encoding: 2 34 145
Width: 239
Flags: HMW
HStem: 482 238<350.208 382.208 326.208 449.208 350.208 486.208 510.208 542.208>
LayerCount: 2
Back
SplineSet
241 482 m 5
 185 482 l 5
 209 720 l 5
 308 720 l 5
 241 482 l 5
401 482 m 5
 345 482 l 5
 369 720 l 5
 468 720 l 5
 401 482 l 5
EndSplineSet
Fore
SplineSet
245.3359375 719.381835938 m 5
 245.3359375 719.380859375 l 5
 265.828125 719.380859375 l 5
 288.896484375 719.380859375 l 5
 309.791992188 693.252929688 l 5
 305.455078125 670.44921875 l 5
 301.420898438 649.23828125 l 5
 296.1484375 621.5234375 l 5
 259.155273438 534.756835938 l 5
 188.489257812 482.517578125 l 5
 180.205078125 501.125976562 l 5
 171.919921875 519.740234375 l 5
 219.240234375 552.62890625 l 5
 248.3203125 621.5234375 l 5
 248.2734375 621.551757812 l 5
 226.583984375 621.6015625 l 5
 226.583984375 621.6015625 l 5
 203.733398438 650.171875 l 5
 207.588867188 670.450195312 l 5
 210.280273438 684.598632812 l 5
 211.717773438 691.646484375 l 5
 245.3359375 719.381835938 l 5
399.543945312 719.381835938 m 1
 399.543945312 719.380859375 l 1
 420.036132812 719.380859375 l 1
 443.104492188 719.380859375 l 1
 464 693.252929688 l 1
 459.663085938 670.44921875 l 1
 455.62890625 649.23828125 l 1
 450.356445312 621.5234375 l 1
 413.36328125 534.756835938 l 1
 342.697265625 482.517578125 l 1
 334.413085938 501.125976562 l 1
 326.127929688 519.740234375 l 1
 373.448242188 552.62890625 l 1
 402.528320312 621.5234375 l 1
 402.481445312 621.551757812 l 1
 380.791992188 621.6015625 l 1
 380.791992188 621.6015625 l 1
 357.94140625 650.171875 l 1
 361.796875 670.450195312 l 1
 364.48828125 684.598632812 l 1
 365.92578125 691.646484375 l 1
 399.543945312 719.381835938 l 1
EndSplineSet
Validated: 5
EndChar
StartChar: numbersign
Encoding: 3 35 160
Width: 556
Flags: HMW
HStem: 0 21G<40 129 40 40 220 309 220 220> 205 75<74 138 39 174 263 318 74 227 443 511> 445 75<185 253 150 289 379 433 185 343 559 622> 700 20G<385 475 475 475 565 655 655 655>
LayerCount: 2
Back
Fore
SplineSet
309 0 m 1
 220 0 l 1
 318 205 l 1
 227 205 l 1
 129 0 l 1
 40 0 l 1
 138 205 l 1
 39 205 l 1
 74 280 l 1
 174 280 l 1
 253 445 l 1
 150 445 l 1
 185 520 l 1
 289 520 l 1
 392 735 l 1
 466 702 l 1
 379 520 l 1
 469 520 l 1
 572 735 l 1
 646 702 l 1
 559 520 l 1
 622 520 l 1
 622 445 l 1
 523 445 l 1
 443 280 l 1
 511 280 l 5
 511 205 l 1
 407 205 l 1
 309 0 l 1
343 445 m 1
 263 280 l 1
 354 280 l 1
 433 445 l 1
 343 445 l 1
EndSplineSet
Validated: 1
EndChar
StartChar: dollar
Encoding: 4 36 167
Width: 556
Flags: HMW
HStem: -100 21G<216 291 216 216> 800 20G<395 470 470 470>
LayerCount: 2
Back
SplineSet
378 732 m 5
 395 820 l 5
 470 820 l 5
 453 732 l 5
 556 717 609 647 592 514 c 5
 560 512 527 509 495 507 c 5
 502 584 491 636 437 651 c 5
 391 412 l 5
 504 382 577 321 553 199 c 4
 528 72 428 -8 308 -14 c 5
 291 -100 l 5
 216 -100 l 5
 233 -11 l 5
 108 8 67 94 82 220 c 5
 114 223 146 225 178 228 c 5
 166 138 193 89 249 72 c 5
 302 340 l 5
 162 382 156 459 170 531 c 4
 193 653 286 719 378 732 c 5
455 194 m 4
 466 250 446 291 394 313 c 4
 387 316 379 318 373 321 c 5
 323 66 l 5
 388 73 440 115 455 194 c 4
263 537 m 4
 254 489 273 455 320 435 c 5
 362 651 l 5
 314 639 276 604 263 537 c 4
EndSplineSet
Fore
SplineSet
396.309570312 829.202148438 m 5
 470.619140625 816.961914062 l 5
 455.427734375 739.466796875 l 5
 572.229492188 673.383789062 l 5
 597.2265625 517.020507812 l 5
 498.298828125 509.876953125 l 5
 492.056640625 607.037109375 l 5
 439.1796875 656.782226562 l 5
 392.310546875 412.990234375 l 5
 527.240234375 339.541992188 l 5
 557.416992188 195.65625 l 5
 468.79296875 40.7392578125 l 5
 307.502929688 -21.677734375 l 5
 290.235351562 -109.372070312 l 5
 216.638671875 -94.91796875 l 5
 231.032226562 -18.6162109375 l 5
 100.439453125 58.28515625 l 5
 76.8984375 217.096679688 l 5
 174.805664062 225.260742188 l 5
 185.0234375 117.767578125 l 5
 247.364257812 66.109375 l 5
 301.37890625 339.499023438 l 5
 175.177734375 425.458007812 l 5
 166.809570312 534.379882812 l 5
 246.469726562 678.580078125 l 5
 378.955078125 739.466796875 l 5
 396.309570312 829.202148438 l 5
319.923828125 436.471679688 m 5
 362.794921875 656.782226562 l 5
 298.90234375 619.692382812 l 5
 261.741210938 540.50390625 l 5
 269.361328125 477.771484375 l 5
 319.923828125 436.471679688 l 5
395.288085938 312.02734375 m 5
 373.853515625 320.192382812 l 5
 322.815429688 59.986328125 l 5
 409.260742188 97.7392578125 l 5
 457.553710938 190.552734375 l 5
 450.537109375 264.306640625 l 5
 395.288085938 312.02734375 l 5
EndSplineSet
Validated: 1
EndChar
StartChar: ampersand
Encoding: 5 38 172
Width: 633
Flags: HMW
HStem: -15 80<231.5 292 231.5 292> 0 21G<495 613 495 495> 655 80<367 437.5>
LayerCount: 2
Back
SplineSet
613 0 m 5xa0
 495 0 l 5
 480 20 466 39 452 59 c 5
 396 13 329 -15 255 -15 c 4
 106 -15 53 71 73 174 c 4
 91 265 160 318 233 359 c 4
 232 361 164 431 187 550 c 4
 212 675 313 735 418 735 c 4
 563 735 587 637 572 560 c 4
 557 483 497 416 377 352 c 4
 374 350 369 348 366 346 c 5x60
 400 297 435 249 469 200 c 5
 495 245 512 297 522 347 c 5
 611 347 l 5
 600 270 567 193 520 130 c 5
 549 86 582 43 613 0 c 5xa0
319 414 m 6
 324 406 l 5
 423 459 469 496 481 560 c 4
 490 604 472 655 403 655 c 4
 331 655 288 600 278 550 c 4
 267 490 286 460 319 414 c 6
168 174 m 4
 155 105 200 65 263 65 c 4x60
 321 65 369 86 407 120 c 5
 364 179 321 239 278 298 c 5xa0
 220 263 178 226 168 174 c 4
EndSplineSet
Fore
SplineSet
506 -15 m 1xa0
 452.02734375 58.7529296875 l 1
 360.262695312 4.505859375 l 1
 255.049804688 -15.22265625 l 1
 100.666015625 40.6513671875 l 1
 73 173.8359375 l 1
 132.376953125 285.091796875 l 1
 233.033203125 358.883789062 l 1
 201 410.504882812 l 1
 186.916015625 549.943359375 l 1
 272.53125 689.381835938 l 1
 418.002929688 735 l 1
 554.96875 676.375 l 1
 572.032226562 559.94921875 l 1
 514.010742188 451.037109375 l 1
 377.056640625 351.879882812 l 2
 365.966796875 345.876953125 l 1
 469.041992188 199.850585938 l 1
 501.524414062 271.517578125 l 1
 521.998046875 346.876953125 l 1
 605 325 l 1
 578.956054688 233.120117188 l 1
 519.912109375 129.802734375 l 1
 585 38 l 1
 506 -15 l 1xa0
263.055664062 64.673828125 m 1
 342.551757812 79.3984375 l 1
 407.162109375 119.712890625 l 1
 278.150390625 297.756835938 l 1
 205.169921875 242.108398438 l 1
 168.153320312 173.752929688 l 1
 187.083007812 93.3232421875 l 1
 263.055664062 64.673828125 l 1
435.223632812 478.669921875 m 1
 481.1328125 559.782226562 l 1
 471.375 623.786132812 l 1
 403.075195312 654.770507812 l 1
 317.2421875 621.034179688 l 1
 278.067382812 549.77734375 l 1
 281.986328125 476.54296875 l 1
 318.930664062 413.765625 l 2
 324.016601562 405.760742188 l 1
 324.016601562 405.760742188 l 1
 435.223632812 478.669921875 l 1
EndSplineSet
Validated: 5
EndChar
StartChar: quotesingle
Encoding: 6 39 146
Width: 239
Flags: HMW
HStem: 482 21G<185 241 185 185> 700 20G<209 308 308 308>
LayerCount: 2
Back
Fore
SplineSet
249.3359375 719.381835938 m 5
 249.3359375 719.380859375 l 5
 269.828125 719.380859375 l 5
 292.896484375 719.380859375 l 5
 313.791992188 693.252929688 l 5
 309.455078125 670.44921875 l 5
 305.420898438 649.23828125 l 5
 300.1484375 621.5234375 l 5
 263.155273438 534.756835938 l 5
 192.489257812 482.517578125 l 5
 184.205078125 501.125976562 l 5
 175.919921875 519.740234375 l 5
 223.240234375 552.62890625 l 5
 252.3203125 621.5234375 l 5
 252.2734375 621.551757812 l 5
 230.583984375 621.6015625 l 5
 230.583984375 621.6015625 l 5
 207.733398438 650.171875 l 5
 211.588867188 670.450195312 l 5
 214.280273438 684.598632812 l 5
 215.717773438 691.646484375 l 5
 249.3359375 719.381835938 l 5
EndSplineSet
Validated: 5
EndChar
StartChar: parenleft
Encoding: 7 40 173
Width: 311
Flags: HMW
HStem: -100 21G<208 271 208 208> 800 20G<387 450 450 450>
LayerCount: 2
Back
SplineSet
119 360 m 4
 152 529 258 696 387 820 c 5
 450 820 l 5
 325 670 250 541 214 360 c 4
 179 179 204 50 271 -100 c 5
 208 -100 l 5
 127 24 87 191 119 360 c 4
EndSplineSet
Fore
SplineSet
387.037109375 820 m 1
 428 788 l 1
 298.649414062 601.590820312 l 1
 213.909179688 359.911132812 l 1
 204.225585938 118.272460938 l 1
 265 -79 l 5
 207.905273438 -100.169921875 l 1
 120.9765625 112.985351562 l 1
 118.92578125 359.911132812 l 1
 216.924804688 606.844726562 l 1
 387.037109375 820 l 1
EndSplineSet
Validated: 1
EndChar
StartChar: parenright
Encoding: 8 41 174
Width: 311
Flags: HMW
HStem: -100 21G<0 63 0 0> 800 20G<179 242 242 242>
LayerCount: 2
Back
SplineSet
330 360 m 4
 298 191 192 24 63 -100 c 5
 0 -100 l 5
 125 50 200 179 235 360 c 4
 271 541 246 670 179 820 c 5
 242 820 l 5
 323 696 363 529 330 360 c 4
EndSplineSet
Fore
SplineSet
63.03515625 -100.169921875 m 1
 22 -68 l 5
 151.235351562 118.23828125 l 1
 234.995117188 359.911132812 l 1
 245.627929688 601.590820312 l 1
 185 800 l 1
 242 820 l 1
 328.783203125 606.844726562 l 1
 330.067382812 359.911132812 l 1
 232.955078125 113.010742188 l 1
 63.03515625 -100.169921875 l 1
EndSplineSet
Validated: 1
EndChar
StartChar: asterisk
Encoding: 9 42 179
Width: 417
Flags: MW
HStem: 423 21G<358 358> 715 20G<258 340 340 340>
LayerCount: 2
Back
Fore
SplineSet
340 735 m 1
 328 617 l 1
 364 632 401 648 437 663 c 1
 445 637 454 611 462 585 c 1
 423 577 385 568 346 560 c 1
 372 530 398 501 424 471 c 1
 358 423 l 1
 298 525 l 1
 236 424 l 1
 170 472 l 1
 196 501 222 531 248 560 c 1
 210 569 173 578 135 587 c 1
 143 613 152 639 160 665 c 1
 196 649 232 633 268 617 c 1
 265 656 261 696 258 735 c 1
 340 735 l 1
EndSplineSet
Validated: 1
EndChar
StartChar: plus
Encoding: 10 43 143
Width: 556
Flags: HMW
HStem: 114 21G<262 337 262 262> 325 75<127 303 113 317 392 569 127 378> 590 20G<358 433 433 433>
LayerCount: 2
Back
Fore
SplineSet
378 325 m 1
 337 114 l 1
 264 127 l 1
 303 325 l 1
 113 325 l 1
 114 400 l 1
 317 400 l 1
 358 610 l 1
 430 598 l 1
 392 400 l 1
 570 400 l 1
 569 325 l 1
 378 325 l 1
EndSplineSet
Validated: 1
EndChar
StartChar: comma
Encoding: 11 44 126
Width: 246
Flags: HMW
HStem: -142 21G<237.378 237.378> 0 21G<247.378 298.378 247.378 247.378 347.378 347.378> 80 20G<266.378 366.378 366.378 366.378>
LayerCount: 2
Back
SplineSet
-43.794921875 104.932617188 m 1
 -43.794921875 104.931640625 l 1
 -23.8994140625 104.931640625 l 1
 -1.5029296875 104.931640625 l 1
 18.7841796875 79.564453125 l 1
 14.5732421875 57.4248046875 l 1
 10.6572265625 36.83203125 l 1
 5.5380859375 9.923828125 l 1
 -30.3779296875 -74.3154296875 l 1
 -98.9853515625 -125.033203125 l 1
 -107.028320312 -106.966796875 l 1
 -115.072265625 -88.89453125 l 1
 -69.1298828125 -56.9638671875 l 1
 -40.8974609375 9.923828125 l 1
 -40.9423828125 9.9521484375 l 1
 -62 10 l 1
 -62 10 l 1
 -84.185546875 37.73828125 l 1
 -80.4423828125 57.42578125 l 1
 -77.8291015625 71.162109375 l 1
 -76.43359375 78.0048828125 l 1
 -43.794921875 104.932617188 l 1
127 0 m 5
 76 0 l 5
 95 100 l 5
 195 100 l 5
 176 0 l 6
 162 -71 126 -118 66 -142 c 5
 49 -104 l 5
 87 -89 114 -64 127 0 c 5
EndSplineSet
Fore
SplineSet
124.80078125 99.6806640625 m 4
 139.602864583 99.6806640625 154.404947917 99.6806640625 169.20703125 99.6806640625 c 5
 190.508789062 73.044921875 l 5
 187.663622582 58.0893071053 184.819105858 43.1330425797 181.975585938 28.17578125 c 6
 176.600585938 -0.0771484375 l 5
 138.888671875 -88.5283203125 l 5
 66.8505859375 -141.782226562 l 5
 61.2194662279 -129.134374917 55.5889242053 -116.485945586 49.958984375 -103.836914062 c 5
 98.19921875 -70.3095703125 l 5
 127.842773438 -0.0771484375 l 5
 127.795898438 -0.0478515625 l 5
 105.685546875 0.0029296875 l 5
 105.685546875 0.0029296875 l 5
 82.390625 29.1279296875 l 5
 85.0694671873 43.2206620283 87.6837055186 57.4550612199 90.5302734375 71.4072265625 c 5
 124.80078125 99.6806640625 l 4
EndSplineSet
Validated: 5
EndChar
StartChar: hyphen
Encoding: 12 45 128
Width: 370
Flags: HMW
HStem: 217 86<108 362 92 378>
LayerCount: 2
Back
Fore
SplineSet
362 217 m 1
 92 217 l 1
 92 303 l 5
 362 303 l 5
 362 217 l 1
EndSplineSet
Validated: 1
EndChar
StartChar: period
Encoding: 13 46 127
Width: 239
Flags: HMW
LayerCount: 2
Back
SplineSet
65.0322265625 25.275390625 m 5
 74.2353515625 74.90234375 l 5
 112.802734375 109.921875 l 5
 158.143554688 109.817382812 l 5
 183.696289062 74.6513671875 l 5
 174.495117188 25.0234375 l 5
 135.926757812 -9.9931640625 l 5
 90.5859375 -9.8896484375 l 5
 65.0322265625 25.275390625 l 5
161 0 m 5
 70 0 l 5
 88 100 l 5
 179 100 l 5
 161 0 l 5
EndSplineSet
Fore
SplineSet
66.7060546875 29.3544921875 m 5
 75.8173828125 78.98046875 l 5
 113 110 l 5
 155.88671875 102.895507812 l 5
 181.00390625 62.7119140625 l 5
 171.893554688 13.0849609375 l 5
 133.893554688 -16.9150390625 l 5
 91.005859375 -9.8115234375 l 5
 66.7060546875 29.3544921875 l 5
EndSplineSet
Validated: 1
EndChar
StartChar: slash
Encoding: 14 47 151
Width: 336
Flags: HMW
HStem: -100 21G<-19 69 -19 -19> 800 20G<405 495 495 495>
LayerCount: 2
Back
Fore
SplineSet
69 -100 m 1
 -2 -63 l 5
 405 820 l 1
 480 787 l 1
 69 -100 l 1
EndSplineSet
Validated: 1
EndChar
StartChar: zero
Encoding: 15 48 116
Width: 556
Flags: HMW
HStem: -15 75<273.5 343.5 273.5 359.5> 660 75<351.5 421>
LayerCount: 2
Back
SplineSet
114 360 m 4
 157 577 251 735 420 735 c 4
 589 735 623 577 580 360 c 4
 538 143 444 -15 275 -15 c 4
 106 -15 72 143 114 360 c 4
490 360 m 4
 504 432 513 498 507 549 c 5
 220 89 l 5
 235 70 258 60 289 60 c 4
 398 60 458 193 490 360 c 4
204 360 m 4
 191 289 181 223 186 172 c 5
 474 631 l 5
 459 650 436 660 406 660 c 4
 297 660 237 527 204 360 c 4
114 360 m 4
 157 577 251 735 420 735 c 4
 589 735 623 577 580 360 c 4
 538 143 444 -15 275 -15 c 4
 106 -15 72 143 114 360 c 4
490 360 m 4
 504 432 513 498 507 549 c 5
 220 89 l 5
 235 70 258 60 289 60 c 4
 398 60 458 193 490 360 c 4
204 360 m 4
 191 289 181 223 186 172 c 5
 474 631 l 5
 459 650 436 660 406 660 c 4
 297 660 237 527 204 360 c 4
EndSplineSet
Fore
SplineSet
421.5390625 743.500976562 m 1
 584.243164062 635.225585938 l 1
 584.752929688 360.883789062 l 1
 477.796875 86.5927734375 l 1
 273.678710938 -21.6396484375 l 1
 110.7421875 86.6259765625 l 1
 109.338867188 360.883789062 l 1
 217.23046875 635.225585938 l 1
 421.5390625 743.500976562 l 1
182.768554688 169.158203125 m 5
 476.659179688 637.428710938 l 5
 447.643554688 659.499023438 l 1
 407.333984375 666.982421875 l 1
 275.189453125 577.8515625 l 1
 201.227539062 360.92578125 l 1
 185.139648438 257.336914062 l 1
 182.768554688 169.158203125 l 5
510.258789062 553.723632812 m 1
 217.559570312 84.431640625 l 1
 246.619140625 62.3623046875 l 1
 287.991210938 54.8779296875 l 1
 419.93359375 144.009765625 l 1
 492.991210938 360.92578125 l 1
 509.28125 465.3828125 l 1
 510.258789062 553.723632812 l 1
EndSplineSet
Validated: 1
EndChar
StartChar: one
Encoding: 16 49 117
Width: 556
Flags: HMW
HStem: 0 21G<271 366 271 271> 700 20G<431 505 505 505>
LayerCount: 2
Back
SplineSet
505 720 m 5
 366 0 l 5
 271 0 l 5
 378 555 l 5
 340 498 270 450 192 450 c 5
 208 535 l 5
 313 545 401 638 431 720 c 5
 505 720 l 5
EndSplineSet
Fore
SplineSet
363 -15 m 5
 270.974609375 -0.1884765625 l 1
 377.969726562 554.879882812 l 1
 299.99609375 480.99609375 l 1
 231 461 l 1
 207.92578125 534.952148438 l 1
 347.580078125 600.456054688 l 1
 431.006835938 720 l 1
 505.060546875 720 l 1
 363 -15 l 5
EndSplineSet
Validated: 1
EndChar
StartChar: two
Encoding: 17 50 118
Width: 556
Flags: HMW
HStem: 0 85<164 496> 655 80<358.5 444>
LayerCount: 2
Back
SplineSet
164 85 m 5
 512 85 l 5
 496 0 l 5
 36 0 l 5
 66 171 187 229 324 322 c 4
 423 389 492 452 506 522 c 4
 521 598 486 655 402 655 c 4
 315 655 255 590 237 502 c 5
 149 512 l 5
 183 648 284 735 419 735 c 4
 551 735 622 657 596 520 c 4
 574 411 463 318 364 256 c 4
 278 202 184 144 164 85 c 5
EndSplineSet
Fore
SplineSet
503.602539062 0 m 5
 30.1435546875 0 l 1
 136.12109375 186.755859375 l 1
 323.94921875 321.158203125 l 1
 449.374023438 422.04296875 l 1
 509.725585938 525.224609375 l 1
 494.552734375 622.120117188 l 1
 403.653320312 660.89453125 l 1
 293.040039062 616.533203125 l 1
 235.315429688 504.8046875 l 1
 163.002929688 544.46875 l 1
 244.66015625 680.770507812 l 1
 421.005859375 742.473632812 l 1
 571.748046875 685.2265625 l 1
 601.59375 523.098632812 l 1
 512.606445312 370.478515625 l 1
 364.864257812 253.783203125 l 1
 237.642578125 168.495117188 l 1
 161 85 l 1
 504 85 l 5
 503.602539062 0 l 5
EndSplineSet
Validated: 1
EndChar
StartChar: three
Encoding: 18 51 119
Width: 556
Flags: HMW
HStem: -15 80<240 329.5 240 339> 356 75<313 341 299 355> 658 77<358 433.5>
LayerCount: 2
Back
SplineSet
313 431 m 5
 355 431 l 6
 427 431 477 483 490 548 c 4
 503 613 468 658 399 658 c 4
 317 658 264 596 250 523 c 5
 161 535 l 5
 196 659 293 735 412 735 c 4
 531 735 610 674 585 550 c 4
 570 472 516 424 448 399 c 5
 528 375 564 302 546 207 c 4
 520 77 409 -15 269 -15 c 4
 133 -15 57 65 76 189 c 5
 173 202 l 5
 161 125 196 65 284 65 c 4
 375 65 439 129 454 210 c 4
 470 291 432 356 341 356 c 6
 299 356 l 5
 313 431 l 5
EndSplineSet
Fore
SplineSet
446.744140625 467.384765625 m 1
 493.049804688 551.90625 l 1
 477.994140625 632.880859375 l 1
 400.161132812 664.102539062 l 1
 298.161132812 623.16015625 l 1
 248.155273438 526.391601562 l 1
 176.9609375 568.079101562 l 1
 253.354492188 688.060546875 l 1
 413.6015625 742.619140625 l 1
 556.953125 695.706054688 l 1
 589.935546875 553.861328125 l 1
 540.375976562 456.583007812 l 1
 450.178710938 399.8125 l 1
 537.643554688 329.043945312 l 1
 550.211914062 203.919921875 l 1
 452.506835938 40.9658203125 l 1
 267.719726562 -22.521484375 l 1
 109.939453125 34.0771484375 l 1
 73.94140625 174.359375 l 1
 169.727539062 198.809570312 l 1
 188.1015625 99.462890625 l 1
 283.030273438 59.056640625 l 1
 398.811523438 102.041015625 l 1
 456.47265625 206.982421875 l 1
 439.672851562 312.451171875 l 1
 341.212890625 355.918945312 l 1
 299.340820312 355.918945312 l 1
 299.340820312 431.395507812 l 1
 355.416015625 431.395507812 l 1
 355.416015625 431.395507812 l 1
 355.374023438 431.48046875 l 1
 446.744140625 467.384765625 l 1
EndSplineSet
Validated: 5
EndChar
StartChar: four
Encoding: 19 52 120
Width: 556
Flags: HMW
HStem: 0 21G<329 424 329 329> 171 85<79 79 170 362 63 79 473 554> 700 20G<484 563 563 563>
LayerCount: 2
Back
Fore
SplineSet
421 -15 m 1
 329 2 l 5
 362 171 l 1
 63 171 l 1
 79 256 l 1
 498 736 l 1
 564 722 l 1
 473 256 l 1
 554 256 l 1
 554 171 l 1
 457 171 l 1
 421 -15 l 1
170 256 m 1
 378 256 l 1
 438 565 l 1
 170 256 l 1
EndSplineSet
Validated: 1
EndChar
StartChar: five
Encoding: 20 53 121
Width: 556
Flags: HMW
HStem: -15 80<236.5 324 236.5 338.5> 395 80<354.5 387> 635 85<313 598 313 313>
LayerCount: 2
Back
SplineSet
71 187 m 5
 164 195 l 5
 159 118 197 65 276 65 c 4
 372 65 439 143 457 235 c 4
 476 330 435 395 339 395 c 4
 282 395 238 373 196 328 c 5
 115 338 l 5
 258 720 l 5
 614 720 l 5
 598 635 l 5
 313 635 l 5
 234 430 l 5
 281 465 331 475 378 475 c 4
 516 475 580 367 554 235 c 4
 527 96 416 -15 261 -15 c 4
 138 -15 56 61 71 187 c 5
EndSplineSet
Fore
SplineSet
162.458007812 191.712890625 m 1
 187.40234375 95.939453125 l 1
 276.78125 59.1044921875 l 1
 398.8671875 110.610351562 l 1
 461.3671875 232.544921875 l 1
 445.216796875 350.524414062 l 1
 341.088867188 395.778320312 l 1
 262.364257812 378.8125 l 1
 195.12109375 327.390625 l 1
 122 356 l 1
 258 720 l 5
 605.219726562 720 l 1
 605.294921875 635 l 1
 313 635 l 1
 234.083007812 431.5078125 l 1
 307.470703125 467.866210938 l 1
 380.985351562 477.442382812 l 1
 533.513671875 405.534179688 l 1
 560.552734375 232.629882812 l 1
 460.051757812 51.943359375 l 1
 261.55859375 -22.3896484375 l 1
 111.81640625 32.4248046875 l 1
 72.779296875 166.350585938 l 1
 162.458007812 191.712890625 l 1
EndSplineSet
Validated: 1
EndChar
StartChar: six
Encoding: 21 54 122
Width: 556
Flags: HMW
HStem: -15 80<243.5 332 243.5 349.5> 387 80<344.5 395> 655 80<347.5 444>
VStem: 505 90<547 557>
LayerCount: 2
Back
SplineSet
595 557 m 5
 505 547 l 5
 503 617 473 655 415 655 c 4
 280 655 218 491 192 369 c 5
 246 446 312 467 377 467 c 4
 516 467 575 357 551 232 c 4
 525 101 422 -15 277 -15 c 4
 75 -15 65 158 100 335 c 4
 149 591 264 735 425 735 c 4
 548 735 596 667 595 557 c 5
178 226 m 4
 161 137 203 65 284 65 c 4
 380 65 435 137 452 226 c 4
 470 315 443 387 347 387 c 4
 271 387 196 315 178 226 c 4
EndSplineSet
Fore
SplineSet
508.267578125 550.787109375 m 5
 483.801757812 632.629882812 l 5
 416.400390625 660.942382812 l 5
 261.043945312 561.732421875 l 5
 188.943359375 369.181640625 l 5
 279.013671875 448.600585938 l 5
 377.697265625 469.131835938 l 5
 528.822265625 397.078125 l 5
 555.22265625 229.3359375 l 5
 460.952148438 53.2431640625 l 5
 275.706054688 -22.62109375 l 5
 94.7265625 88.197265625 l 5
 95.1513671875 334.388671875 l 5
 218.099609375 636.336914062 l 5
 426.725585938 742.436523438 l 5
 560.879882812 693.737304688 l 5
 594.903320312 577.26171875 l 5
 508.267578125 550.787109375 l 5
282.852539062 59.04296875 m 5
 398.802734375 107.104492188 l 5
 454.337890625 223.297851562 l 5
 444.385742188 339.466796875 l 5
 347.159179688 387.552734375 l 5
 238.725585938 339.466796875 l 5
 174.823242188 223.297851562 l 5
 191.293945312 107.138671875 l 5
 282.852539062 59.04296875 l 5
EndSplineSet
Validated: 1
EndChar
StartChar: seven
Encoding: 22 55 123
Width: 556
Flags: HMW
HStem: 0 21G<150 246 150 150> 635 85<189 514 173 630 614 614>
LayerCount: 2
Back
SplineSet
514 635 m 5
 173 635 l 5
 189 720 l 5
 630 720 l 5
 614 635 l 5
 434 459 304 234 246 0 c 5
 150 0 l 5
 196 218 345 466 514 635 c 5
EndSplineSet
Fore
SplineSet
172.946289062 635.130859375 m 5
 173 720.188476562 l 5
 519 720.188476562 l 5
 614.020507812 635.130859375 l 5
 384.3203125 339.328125 l 5
 240 -15 l 5
 157 17 l 5
 286.008789062 335.951171875 l 5
 514.114257812 635.130859375 l 5
 172.946289062 635.130859375 l 5
EndSplineSet
Validated: 1
EndChar
StartChar: eight
Encoding: 23 56 124
Width: 556
Flags: HMW
HStem: -15 80<243.5 334.5 243.5 344> 356 75<324 391.5> 665 70<370 442>
LayerCount: 2
Back
SplineSet
83 200 m 4
 102 295 167 367 256 399 c 5
 198 424 164 472 179 550 c 4
 202 664 300 735 419 735 c 4
 538 735 611 664 588 550 c 4
 573 472 521 424 453 399 c 5
 530 367 568 295 549 200 c 4
 524 70 414 -15 274 -15 c 4
 134 -15 58 70 83 200 c 4
177 210 m 4
 162 129 198 65 289 65 c 4
 380 65 444 129 459 210 c 4
 475 291 437 356 346 356 c 4
 255 356 193 291 177 210 c 4
267 548 m 4
 254 483 288 431 360 431 c 4
 432 431 487 483 500 548 c 4
 513 613 478 665 406 665 c 4
 334 665 280 613 267 548 c 4
EndSplineSet
Fore
SplineSet
253.454101562 399.694335938 m 5
 186.275390625 456.46484375 l 5
 174.854492188 553.743164062 l 5
 260.555664062 691.76171875 l 5
 419.75 742.500976562 l 5
 560.379882812 691.76171875 l 5
 592.170898438 553.743164062 l 5
 543.504882812 456.46484375 l 5
 454.456054688 399.694335938 l 5
 540.11328125 322.291992188 l 5
 552.27734375 196.649414062 l 5
 456.029296875 37.2763671875 l 5
 271.741210938 -22.6396484375 l 5
 111.122070312 37.2763671875 l 5
 76.94921875 196.649414062 l 5
 138.438476562 322.291992188 l 5
 253.454101562 399.694335938 l 5
287.223632812 58.9384765625 m 5
 402.9609375 101.922851562 l 5
 460.580078125 206.864257812 l 5
 443.823242188 312.333007812 l 5
 345.405273438 355.80078125 l 5
 230.465820312 312.333007812 l 5
 173.069335938 206.864257812 l 5
 189.5078125 101.922851562 l 5
 287.223632812 58.9384765625 l 5
359.525390625 432.362304688 m 5
 453.53125 467.180664062 l 5
 502.431640625 551.702148438 l 5
 486.939453125 636.25 l 5
 406.56640625 671.043945312 l 5
 313.08203125 636.224609375 l 5
 264.766601562 551.702148438 l 5
 279.641601562 467.180664062 l 5
 359.525390625 432.362304688 l 5
EndSplineSet
Validated: 1
EndChar
StartChar: nine
Encoding: 24 57 125
Width: 556
Flags: HMW
HStem: -15 80<246 342.5 246 342.5> 263 80<287 334.5> 655 80<348 436.5>
VStem: 85 90<163 173>
LayerCount: 2
Back
SplineSet
309 163 m 5
 399 173 l 5
 401 103 441 65 499 65 c 4
 634 65 687 233 713 355 c 5
 663 294 596 263 521 263 c 4
 392 263 331 372 355 497 c 4
 381 628 489 735 625 735 c 4
 827 735 839 562 804 385 c 4
 755 129 647 -15 486 -15 c 4
 363 -15 308 53 309 163 c 5
726 499 m 4
 744 588 701 655 620 655 c 4
 524 655 465 588 447 499 c 4
 430 410 463 343 559 343 c 4
 635 343 709 410 726 499 c 4
EndSplineSet
Fore
SplineSet
170.942382812 169.177734375 m 5
 200.54296875 87.3349609375 l 5
 273.016601562 59.0224609375 l 5
 423.84375 160.282226562 l 5
 491.287109375 354.864257812 l 5
 402.833007812 284.563476562 l 5
 295.302734375 260.962890625 l 5
 152.100585938 332.497070312 l 5
 126.029296875 499.728515625 l 5
 221.596679688 671.23046875 l 5
 401.375 742.500976562 l 5
 583.334960938 631.682617188 l 5
 583.930664062 385.490234375 l 5
 464.598632812 83.5419921875 l 5
 259.587890625 -22.556640625 l 5
 121.829101562 26.142578125 l 5
 84.099609375 142.740234375 l 5
 170.942382812 169.177734375 l 5
396.44140625 660.921875 m 5
 278.323242188 615.412109375 l 5
 219.852539062 501.76953125 l 5
 233.791992188 388.161132812 l 5
 334.176757812 342.618164062 l 5
 441.950195312 388.161132812 l 5
 504.556640625 501.76953125 l 5
 488.331054688 615.412109375 l 5
 396.44140625 660.921875 l 5
EndSplineSet
Validated: 1
EndChar
StartChar: colon
Encoding: 25 58 141
Width: 231
Flags: HMW
HStem: 82 100<105 176 85 196> 342 100<155 227 136 246>
LayerCount: 2
Back
SplineSet
519.8125 389.26953125 m 1
 528.923828125 438.895507812 l 1
 566.106445312 469.915039062 l 1
 608.993164062 462.810546875 l 1
 634.110351562 422.626953125 l 1
 625 373 l 1
 587 343 l 1
 544.112304688 350.103515625 l 1
 519.8125 389.26953125 l 1
81.5400390625 111.442382812 m 5
 90.7431640625 161.069335938 l 5
 129.310546875 196.088867188 l 5
 174.651367188 195.984375 l 5
 200.204101562 160.818359375 l 5
 191.002929688 111.190429688 l 5
 152.435546875 76.173828125 l 5
 107.09375 76.27734375 l 5
 81.5400390625 111.442382812 l 5
131.28125 367.338867188 m 5
 140.483398438 416.96484375 l 5
 179.051757812 451.984375 l 5
 224.392578125 451.879882812 l 5
 249.9453125 416.713867188 l 5
 240.743164062 367.086914062 l 5
 202.17578125 332.069335938 l 5
 156.834960938 332.172851562 l 5
 131.28125 367.338867188 l 5
227 342 m 5
 136 342 l 5
 155 442 l 5
 246 442 l 5
 227 342 l 5
176 82 m 5
 85 82 l 5
 105 182 l 5
 196 182 l 5
 176 82 l 5
EndSplineSet
Fore
SplineSet
82.8125 115.26953125 m 5
 91.923828125 164.895507812 l 5
 129.106445312 195.915039062 l 5
 171.993164062 188.810546875 l 5
 197.110351562 148.626953125 l 5
 188 99 l 5
 150 69 l 5
 107.112304688 76.103515625 l 5
 82.8125 115.26953125 l 5
132.706054688 371.354492188 m 1
 141.817382812 420.98046875 l 1
 179 452 l 1
 221.88671875 444.895507812 l 1
 247.00390625 404.711914062 l 1
 237.893554688 355.084960938 l 1
 199.893554688 325.084960938 l 1
 157.005859375 332.188476562 l 1
 132.706054688 371.354492188 l 1
EndSplineSet
Validated: 1
EndChar
StartChar: semicolon
Encoding: 26 59 153
Width: 231
Flags: HMW
HStem: -142 21G<60 60> 0 21G<70 121 70 70 170 170> 100 242<136 189 189 189> 342 100<155 227 136 246>
LayerCount: 2
Back
SplineSet
118.80078125 99.6806640625 m 0
 133.602539062 99.6806640625 148.405273438 99.6806640625 163.20703125 99.6806640625 c 1
 184.508789062 73.044921875 l 1
 181.6640625 58.0888671875 178.819335938 43.1328125 175.975585938 28.17578125 c 2
 170.600585938 -0.0771484375 l 1
 132.888671875 -88.5283203125 l 1
 60.8505859375 -141.782226562 l 1
 55.2197265625 -129.134765625 49.5888671875 -116.486328125 43.958984375 -103.836914062 c 1
 92.19921875 -70.3095703125 l 1
 121.842773438 -0.0771484375 l 1
 121.795898438 -0.0478515625 l 1
 99.685546875 0.0029296875 l 1
 99.685546875 0.0029296875 l 1
 76.390625 29.1279296875 l 1
 79.0693359375 43.220703125 81.68359375 57.455078125 84.5302734375 71.4072265625 c 1
 118.80078125 99.6806640625 l 0
131.302734375 367.346679688 m 5
 140.505859375 416.973632812 l 5
 179.073242188 451.993164062 l 5
 224.4140625 451.888671875 l 5
 249.966796875 416.72265625 l 5
 240.765625 367.095703125 l 5
 202.197265625 332.078125 l 5
 156.856445312 332.181640625 l 5
 131.302734375 367.346679688 l 5
227 342 m 5xe0
 136 342 l 5
 155 442 l 5
 246 442 l 5
 227 342 l 5xe0
121 0 m 5
 70 0 l 5
 89 100 l 5
 189 100 l 5
 170 0 l 6
 156 -71 120 -118 60 -142 c 5xd0
 43 -104 l 5
 81 -89 108 -64 121 0 c 5
EndSplineSet
Fore
SplineSet
131.8125 371.26953125 m 5xc0
 140.923828125 420.895507812 l 5
 178.106445312 451.915039062 l 5
 220.993164062 444.810546875 l 5
 246.110351562 404.626953125 l 5
 237 355 l 5
 199 325 l 5
 156.112304688 332.103515625 l 5
 131.8125 371.26953125 l 5xc0
118.80078125 99.6806640625 m 0
 133.602539062 99.6806640625 148.405273438 99.6806640625 163.20703125 99.6806640625 c 1
 184.508789062 73.044921875 l 1
 181.6640625 58.0888671875 178.819335938 43.1328125 175.975585938 28.17578125 c 2
 170.600585938 -0.0771484375 l 1
 132.888671875 -88.5283203125 l 1
 60.8505859375 -141.782226562 l 1
 55.2197265625 -129.134765625 49.5888671875 -116.486328125 43.958984375 -103.836914062 c 1
 92.19921875 -70.3095703125 l 1
 121.842773438 -0.0771484375 l 1
 121.795898438 -0.0478515625 l 1
 99.685546875 0.0029296875 l 1
 99.685546875 0.0029296875 l 1
 76.390625 29.1279296875 l 1
 79.0693359375 43.220703125 81.68359375 57.455078125 84.5302734375 71.4072265625 c 1
 118.80078125 99.6806640625 l 0
EndSplineSet
Validated: 5
EndChar
StartChar: less
Encoding: 27 60 165
Width: 556
Flags: HMW
HStem: 72 21G<486 486> 607 20G<594 594>
LayerCount: 2
Back
Fore
SplineSet
151 301 m 1
 170 398 l 1
 594 627 l 1
 631 558 l 1
 240 352 l 1
 538 152 l 1
 486 72 l 1
 151 301 l 1
EndSplineSet
Validated: 1
EndChar
StartChar: equal
Encoding: 28 61 144
Width: 556
Flags: HMW
HStem: 245 75<112 553 97 568> 405 75<143 584 128 599>
LayerCount: 2
Back
Fore
SplineSet
568 245 m 1
 112 245 l 1
 112 320 l 1
 568 320 l 1
 568 245 l 1
600 405 m 1
 144 405 l 1
 143 480 l 1
 599 480 l 1
 600 405 l 1
EndSplineSet
Validated: 1
EndChar
StartChar: greater
Encoding: 29 62 166
Width: 556
Flags: HMW
HStem: 72 21G<106 106> 607 20G<214 214>
LayerCount: 2
Back
Fore
SplineSet
550 398 m 1
 531 301 l 1
 106 72 l 1
 69 142 l 5
 462 352 l 1
 162 551 l 1
 214 627 l 1
 550 398 l 1
EndSplineSet
Validated: 1
EndChar
StartChar: question
Encoding: 30 63 132
Width: 556
Flags: HMW
HStem: 0 100<241 322 222 341> 655 80<361 432>
LayerCount: 2
Back
SplineSet
238.188476562 25.275390625 m 5
 248.311523438 74.90234375 l 5
 290.737304688 109.921875 l 5
 340.612304688 109.817382812 l 5
 368.719726562 74.6513671875 l 5
 358.59765625 25.0234375 l 5
 316.173828125 -9.9931640625 l 5
 266.298828125 -9.8896484375 l 5
 238.188476562 25.275390625 l 5
286 190 m 1
 288.041015625 202.974609375 l 1
 329.374023438 309.010742188 l 1
 415.051757812 388.03125 l 1
 485.280273438 445.939453125 l 1
 527.049804688 527.052734375 l 1
 506.2734375 626.30078125 l 1
 417.88671875 655.059570312 l 1
 321.50390625 620.948242188 l 1
 256.017578125 514.037109375 l 1
 193 557 l 1
 271.216796875 679.040039062 l 1
 431.897460938 735.030273438 l 1
 588.188476562 680.165039062 l 1
 622.953125 533.047851562 l 1
 560.450195312 415.405273438 l 1
 458.916992188 332.982421875 l 1
 399.7890625 274.390625 l 1
 372.936523438 202.966796875 l 1
 367.850585938 175.951171875 l 1
 286 190 l 1
368 176 m 5
 283 176 l 5
 288 203 l 6
 304 284 340 343 415 388 c 4
 465 418 515 466 527 527 c 4
 545 621 490 655 418 655 c 4
 348 655 285 611 256 514 c 5
 172 524 l 5
 210 656 312 735 432 735 c 4
 570 735 647 656 623 533 c 4
 604 435 530 384 459 333 c 4
 403 293 386 260 373 203 c 6
 368 176 l 5
344 0 m 5
 244 0 l 5
 263 100 l 5
 363 100 l 5
 344 0 l 5
EndSplineSet
Fore
SplineSet
220.702148438 31.3544921875 m 1
 229.813476562 80.98046875 l 1
 266.99609375 112 l 1
 309.8828125 104.895507812 l 1
 335 64.7119140625 l 1
 325.889648438 15.0849609375 l 1
 287.889648438 -14.9150390625 l 1
 245.001953125 -7.8115234375 l 1
 220.702148438 31.3544921875 l 1
261.560546875 184.690429688 m 5
 305.801757812 306.081054688 l 5
 393.193359375 386.681640625 l 1
 464.826171875 445.748046875 l 1
 507.431640625 528.484375 l 1
 486.239257812 629.716796875 l 1
 396.084960938 659.05078125 l 1
 297.774414062 624.2578125 l 1
 230.978515625 515.208007812 l 1
 166.700195312 559.030273438 l 1
 246.481445312 683.510742188 l 1
 410.375976562 740.62109375 l 1
 569.79296875 684.658203125 l 1
 605.252929688 534.598632812 l 1
 541.5 414.603515625 l 1
 437.935546875 330.532226562 l 1
 377.625 270.768554688 l 1
 345.047851562 170.360351562 l 1
 261.560546875 184.690429688 l 5
EndSplineSet
Validated: 1
EndChar
StartChar: at
Encoding: 31 64 189
Width: 745
Flags: HMW
HStem: -110 75<291 395.5> 54 71<364.5 396.5 575.5 615.5> 395 71<416.5 466.5> 555 75<405 559.5>
LayerCount: 2
Back
SplineSet
622 455 m 5
 572 199 l 6
 571 192 556 125 595 125 c 4
 636 125 663 198 679 280 c 4
 711 447 639 555 480 555 c 4
 330 555 203 427 170 260 c 4
 138 93 206 -35 376 -35 c 4
 427 -35 486 -20 531 16 c 5
 586 -36 l 5
 524 -88 430 -110 361 -110 c 4
 141 -110 45 53 85 260 c 4
 125 467 285 630 495 630 c 4
 704 630 804 487 764 280 c 4
 744 179 685 54 582 54 c 4
 539 54 501 87 502 128 c 5
 486 106 l 5
 458 75 420 54 373 54 c 4
 265 54 222 138 246 260 c 4
 270 381 345 466 453 466 c 4
 505 466 536 439 552 402 c 5
 562 455 l 5
 622 455 l 5
513 260 m 4
 530 349 490 395 443 395 c 4
 390 395 341 349 324 260 c 4
 307 171 338 125 391 125 c 4
 444 125 496 171 513 260 c 4
EndSplineSet
Fore
SplineSet
571 194 m 5
 569.630859375 157.385742188 l 1
 596.541992188 122.295898438 l 1
 648.951171875 169.973632812 l 1
 682.28515625 280.426757812 l 1
 653.842773438 484.551757812 l 1
 479.241210938 560.9609375 l 1
 276.345703125 474.380859375 l 1
 162.893554688 260.014648438 l 1
 190.741210938 45.640625 l 1
 373.16796875 -40.939453125 l 1
 454.4140625 -28.6923828125 l 1
 531.129882812 11.1201171875 l 1
 563.76953125 -54.16015625 l 1
 475.158203125 -99.630859375 l 1
 357.6875 -117.5 l 1
 117.44921875 -7.9482421875 l 1
 76.1298828125 260.014648438 l 1
 220.18359375 527.969726562 l 1
 494.3828125 637.521484375 l 1
 726.87890625 538.18359375 l 1
 768.87890625 280.51171875 l 1
 707.856445312 126.58203125 l 1
 583.103515625 49.9111328125 l 1
 525.47265625 71.98046875 l 1
 501.528320312 125.442382812 l 1
 485.284179688 102.989257812 l 1
 434.904296875 64.5810546875 l 1
 370.108398438 49.9111328125 l 1
 254.806640625 108.338867188 l 1
 240.55859375 260.100585938 l 1
 314.03125 411.478515625 l 1
 451.68359375 470.290039062 l 1
 515.991210938 451.782226562 l 1
 552.73828125 404.955078125 l 1
 562.944335938 459.0546875 l 1
 621 450 l 1
 571 194 l 5
441.560546875 397.811523438 m 1
 367.013671875 362.9921875 l 1
 320.091796875 260.100585938 l 1
 327.524414062 157.208007812 l 1
 388.482421875 122.380859375 l 1
 464.49609375 157.208007812 l 1
 513.012695312 260.100585938 l 1
 501.721679688 362.9921875 l 1
 441.560546875 397.811523438 l 1
EndSplineSet
Validated: 1
EndChar
StartChar: A
Encoding: 32 65 89
Width: 675
Flags: HMW
HStem: 0 21G<10 107 10 10 562 665 562 562> 175 85<254 515 254 530 206 515> 700 20G<428 525 525 525>
LayerCount: 2
Back
Fore
SplineSet
436 735 m 5
 531 690 l 5
 665 0 l 5
 565 -15 l 5
 530 175 l 5
 206 175 l 5
 99 -14 l 5
 25 25 l 5
 436 735 l 5
455 611 m 5
 254 260 l 5
 515 260 l 5
 455 611 l 5
EndSplineSet
Validated: 1
EndChar
StartChar: B
Encoding: 33 66 90
Width: 674
Flags: HMW
HStem: 0 85<190 353> 325 85<236 408 253 401> 635 85<296 296 296 439>
LayerCount: 2
Back
SplineSet
353 0 m 6
 80 0 l 5
 218 720 l 5
 477 720 l 6
 623 720 718 661 693 533 c 4
 680 465 637 402 553 376 c 5
 634 355 679 293 663 208 c 4
 633 56 516 0 353 0 c 6
296 635 m 5
 253 410 l 5
 408 410 l 6
 491 410 576 433 592 521 c 4
 612 619 533 635 439 635 c 6
 296 635 l 5
236 325 m 5
 190 85 l 5
 368 85 l 6
 466 85 543 110 562 208 c 4
 581 305 494 325 401 325 c 6
 236 325 l 5
EndSplineSet
Fore
SplineSet
79.8525390625 -0.3056640625 m 1
 217.629882812 720.202148438 l 1
 481.749023438 720.202148438 l 1
 657.370117188 681.774414062 l 1
 702.145507812 537.412109375 l 1
 657.881835938 441.272460938 l 1
 553.326171875 376.239257812 l 5
 652.501953125 316.00390625 l 1
 671.353515625 205.840820312 l 1
 564.173828125 41.5771484375 l 1
 355.176757812 -0.390625 l 1
 79.8525390625 -0.3056640625 l 1
190.219726562 85.3671875 m 1
 371.827148438 85.3671875 l 1
 500.026367188 105.618164062 l 1
 568.682617188 205.840820312 l 1
 529.491210938 302.634765625 l 1
 404.427734375 325.181640625 l 1
 236.088867188 325.181640625 l 1
 190.219726562 85.3671875 l 1
253.356445312 409.939453125 m 1
 411.48828125 409.939453125 l 1
 530.95703125 434.89453125 l 1
 599.134765625 525.165039062 l 1
 564.73828125 620.78515625 l 1
 443.130859375 635.443359375 l 1
 296.163085938 635.443359375 l 1
 253.356445312 409.939453125 l 1
EndSplineSet
Validated: 1
EndChar
StartChar: C
Encoding: 34 67 91
Width: 734
Flags: HMW
HStem: -15 80<314 448 314 461> 496 239<414 775 414 685> 655 80<433 567>
LayerCount: 2
Back
SplineSet
219 360 m 4xa0
 186 193 234 65 394 65 c 4
 502 65 583 132 631 233 c 5
 724 214 l 5
 666 79 543 -15 379 -15 c 4
 159 -15 78 153 119 360 c 4
 158 567 304 735 524 735 c 4
 688 735 802 645 775 496 c 5
 685 496 l 5xc0
 694 606 626 655 508 655 c 4
 358 655 250 527 219 360 c 4xa0
EndSplineSet
Fore
SplineSet
392.943359375 59.0712890625 m 5x80
 536.793945312 106.111328125 l 5
 634.776367188 230.469726562 l 5
 705.140625 180.478515625 l 5
 594.159179688 42.6396484375 l 5
 377.547851562 -22.5068359375 l 5
 145.071289062 89.578125 l 5
 112.407226562 360.016601562 l 5
 249.71875 630.53125 l 5
 525.470703125 742.633789062 l 5
 726.612304688 677.741210938 l 5
 773.481445312 526.258789062 l 5
 689.725585938 498.840820312 l 5
 648.024414062 622.018554688 l 5
 509.223632812 661.0546875 l 5
 316.228515625 574.475585938 l 5
 214.397460938 360.1015625 l 5
 229.826171875 145.693359375 l 5
 392.943359375 59.0712890625 l 5x80
EndSplineSet
Validated: 1
EndChar
StartChar: D
Encoding: 35 68 92
Width: 709
Flags: HMW
HStem: 0 84<190 315> 635 85<296 296 296 423>
LayerCount: 2
Back
SplineSet
315 0 m 6
 80 0 l 5
 218 720 l 5
 442 720 l 6
 674 720 772 594 728 362 c 4
 684 137 547 0 315 0 c 6
296 635 m 5
 190 84 l 5
 320 84 l 6
 496 84 594 176 630 363 c 4
 669 567 581 635 423 635 c 6
 296 635 l 5
EndSplineSet
Fore
SplineSet
79.4990234375 -0.306640625 m 5
 218.278320312 720.201171875 l 1
 445.840820312 720.201171875 l 1
 697.28515625 633.358398438 l 1
 737.690429688 362.03515625 l 1
 598.962890625 91.2646484375 l 1
 316.375976562 -0.306640625 l 1
 79.4990234375 -0.306640625 l 5
189.696289062 83.3466796875 m 1
 321.393554688 83.3466796875 l 1
 533.0078125 149.140625 l 1
 637.572265625 362.970703125 l 1
 607.458984375 579.759765625 l 1
 426.53125 635.442382812 l 1
 296.06640625 635.442382812 l 1
 189.696289062 83.3466796875 l 1
EndSplineSet
Validated: 1
EndChar
StartChar: E
Encoding: 36 69 93
Width: 657
Flags: HMW
HStem: 0 85<190 587> 325 85<253 588 236 605> 635 85<296 698 296 296>
LayerCount: 2
Back
Fore
SplineSet
587 0 m 5
 80 0 l 5
 218 720 l 5
 698 720 l 5
 698 635 l 5
 296 635 l 5
 253 410 l 5
 588 410 l 5
 588 325 l 5
 236 325 l 5
 190 85 l 5
 588 85 l 5
 587 0 l 5
EndSplineSet
Validated: 1
EndChar
StartChar: F
Encoding: 37 70 94
Width: 611
Flags: HMW
HStem: 0 21G<80 175 80 80> 325 85<253 572 236 589> 635 85<296 682 296 296>
LayerCount: 2
Back
Fore
SplineSet
172 -15 m 1
 80 2 l 1
 218 720 l 1
 682 720 l 1
 682 635 l 1
 296 635 l 1
 253 410 l 1
 572 410 l 1
 572 325 l 1
 236 325 l 1
 172 -15 l 1
EndSplineSet
Validated: 1
EndChar
StartChar: G
Encoding: 38 71 95
Width: 760
Flags: HMW
HStem: -15 80<337 451.5 337 461.5> 281 84<464 661 448 769> 496 239<424 785 424 695> 655 80<441 566.5>
LayerCount: 2
Back
SplineSet
219 360 m 4xd0
 186 193 257 65 417 65 c 4
 486 65 588 92 635 146 c 5
 661 281 l 5
 448 281 l 5
 464 365 l 5
 769 365 l 5
 720 112 l 5
 655 40 524 -15 399 -15 c 4
 179 -15 78 153 119 360 c 4
 158 567 314 735 534 735 c 4
 698 735 812 645 785 496 c 5
 695 496 l 5xe0
 714 613 617 655 516 655 c 4
 366 655 250 527 219 360 c 4xd0
EndSplineSet
Fore
SplineSet
411.603515625 59.1279296875 m 1xc0
 531.16796875 79.7861328125 l 5
 633.956054688 141.71875 l 1
 660.49609375 281.438476562 l 1
 448.161132812 281.438476562 l 1
 448 365.099609375 l 1
 769.477539062 365.099609375 l 1
 719.461914062 107.018554688 l 1
 579.715820312 14.681640625 l 5
 392.971679688 -22.53515625 l 1
 150.225585938 89.5576171875 l 1
 107.416992188 359.98828125 l 1
 249.821289062 630.502929688 l 1
 530.857421875 742.60546875 l 1
 731.966796875 677.712890625 l 1
 778.580078125 526.259765625 l 1
 695.11328125 498.8125 l 1
 649.775390625 624.66796875 l 1
 512.569335938 661.026367188 l 1
 315.521484375 574.447265625 l 1
 209.576171875 360.073242188 l 1
 236.678710938 145.741210938 l 1
 411.603515625 59.1279296875 l 1xc0
EndSplineSet
Validated: 1
EndChar
StartChar: H
Encoding: 39 72 96
Width: 722
Flags: HMW
HStem: 0 21G<80 175 80 80 547 547 547 642> 325 85<253 608 236 625> 700 20G<218 313 313 313 685 780 780 780>
LayerCount: 2
Back
Fore
SplineSet
172 -14 m 1
 80 0 l 1
 221 735 l 1
 313 720 l 1
 253 410 l 1
 625 410 l 1
 688 735 l 1
 780 720 l 1
 639 -15 l 5
 547 0 l 1
 608 325 l 1
 236 325 l 1
 172 -14 l 1
EndSplineSet
Validated: 1
EndChar
StartChar: I
Encoding: 40 73 97
Width: 255
Flags: HMW
HStem: 0 21G<80 175 80 80> 700 20G<218 313 313 313>
LayerCount: 2
Back
Fore
SplineSet
172 -15 m 5
 80 0 l 5
 221 735 l 5
 313 720 l 5
 172 -15 l 5
EndSplineSet
Validated: 1
EndChar
StartChar: J
Encoding: 41 74 98
Width: 516
Flags: HMW
HStem: -15 80<192.5 283 192.5 289> 700 20G<479 574 574 574>
LayerCount: 2
Back
SplineSet
57 193 m 5
 146 205 l 5
 134 132 150 65 235 65 c 4
 331 65 367 140 383 223 c 6
 479 720 l 5
 574 720 l 5
 478 228 l 6
 448 71 358 -15 220 -15 c 4
 89 -15 29 65 57 193 c 5
EndSplineSet
Fore
SplineSet
140.610351562 201.900390625 m 1
 148.89453125 102.579101562 l 1
 231.373046875 59.0859375 l 1
 337.415039062 107.912109375 l 1
 382.274414062 220.279296875 l 1
 482.331054688 736.5 l 5
 574.170898438 719.16015625 l 5
 477.24609375 225.381835938 l 1
 389.025390625 41.37890625 l 1
 216.0625 -22.4931640625 l 1
 72.0830078125 34.6259765625 l 1
 49.7646484375 189.737304688 l 1
 140.610351562 201.900390625 l 1
EndSplineSet
Validated: 1
EndChar
StartChar: K
Encoding: 42 75 99
Width: 698
Flags: HMW
HStem: 0 21G<80 175 80 80 533 533 533 658> 700 20G<218 313 313 313 654 776 776 776>
LayerCount: 2
Back
Fore
SplineSet
172 -15 m 1
 80 0 l 1
 221 735 l 1
 313 720 l 1
 242 352 l 1
 671 735 l 1
 722 673 l 5
 417 409 l 1
 636 37 l 1
 542 -15 l 1
 338 342 l 1
 220 238 l 1
 172 -15 l 1
EndSplineSet
Validated: 1
EndChar
StartChar: L
Encoding: 43 76 100
Width: 608
Flags: HMW
HStem: 0 85<190 578> 700 20G<218 313 313 313>
LayerCount: 2
Back
Fore
SplineSet
578 0 m 1
 80 0 l 1
 221 735 l 1
 313 720 l 1
 190 85 l 1
 578 85 l 5
 578 0 l 1
EndSplineSet
Validated: 1
EndChar
StartChar: M
Encoding: 44 77 101
Width: 863
Flags: HMW
HStem: 0 21G<80 175 80 80 389 389 389 474 688 688 688 783> 700 20G<218 357 357 357 790 921 921 921>
LayerCount: 2
Back
Fore
SplineSet
172 -15 m 5
 81 3 l 5
 221 735 l 1
 358 712 l 1
 456 123 l 1
 798 734 l 1
 919 709 l 1
 780 -14 l 1
 689 4 l 1
 802 598 l 1
 466 -14 l 1
 384 30 l 1
 289 598 l 1
 172 -15 l 5
EndSplineSet
Validated: 1
EndChar
StartChar: N
Encoding: 45 78 102
Width: 724
Flags: HMW
HStem: 0 21G<80 171 80 80 547 547 547 644> 700 20G<218 315 315 315 691 782 782 782>
LayerCount: 2
Back
Fore
SplineSet
168 -15 m 1
 81 3 l 1
 221 735 l 1
 315 720 l 1
 581 154 l 1
 694 735 l 1
 782 720 l 1
 641 -15 l 1
 545 4 l 1
 279 566 l 5
 168 -15 l 1
EndSplineSet
Validated: 1
EndChar
StartChar: O
Encoding: 46 79 103
Width: 785
Flags: HMW
HStem: -15 80<324 478.5 324 498.5> 655 80<443 592.5>
LayerCount: 2
Back
SplineSet
119 360 m 4
 158 567 314 735 534 735 c 4
 753 735 843 567 804 360 c 4
 763 153 608 -15 389 -15 c 4
 169 -15 78 153 119 360 c 4
219 360 m 4
 186 193 244 65 404 65 c 4
 553 65 671 193 704 360 c 4
 735 527 667 655 518 655 c 4
 368 655 250 527 219 360 c 4
EndSplineSet
Fore
SplineSet
535.451171875 742.500976562 m 5
 771.892578125 630.3984375 l 5
 810.883789062 359.883789062 l 5
 667.297851562 89.453125 l 5
 387.442382812 -22.6396484375 l 5
 149.884765625 89.453125 l 5
 112.010742188 359.883789062 l 5
 254.543945312 630.3984375 l 5
 535.451171875 742.500976562 l 5
402.923828125 58.9384765625 m 5
 600.322265625 145.518554688 l 5
 708.978515625 359.883789062 l 5
 683.044921875 574.2578125 l 5
 519.375 660.837890625 l 5
 321.306640625 574.2578125 l 5
 214.33984375 359.883789062 l 5
 234.754882812 145.552734375 l 5
 402.923828125 58.9384765625 l 5
EndSplineSet
Validated: 1
EndChar
StartChar: P
Encoding: 47 80 104
Width: 657
Flags: HMW
HStem: 0 21G<80 175 80 80> 290 85<247 393 230 412> 635 85<296 296 296 459>
LayerCount: 2
Back
SplineSet
175 0 m 5
 80 0 l 5
 218 720 l 5
 468 720 l 6
 613 720 736 674 704 509 c 4
 676 364 572 290 393 290 c 6
 230 290 l 5
 175 0 l 5
296 635 m 5
 247 375 l 5
 412 375 l 6
 525 375 589 419 606 506 c 4
 626 614 554 635 459 635 c 6
 296 635 l 5
EndSplineSet
Fore
SplineSet
79.76953125 2.009765625 m 1
 218.509765625 720.349609375 l 1
 472.612304688 720.349609375 l 1
 660.622070312 682.826171875 l 1
 713.25390625 512.057617188 l 1
 612.391601562 344.90234375 l 1
 396.056640625 289.685546875 l 1
 229.758789062 289.685546875 l 1
 171.58984375 -15.349609375 l 1
 79.76953125 2.009765625 l 1
247.111328125 375.3671875 m 1
 415.450195312 375.3671875 l 1
 551.125 408.91015625 l 1
 613.305664062 508.995117188 l 1
 582.342773438 616.09765625 l 1
 463.340820312 635.590820312 l 1
 296.043945312 635.590820312 l 5
 247.111328125 375.3671875 l 1
EndSplineSet
Validated: 1
EndChar
StartChar: Q
Encoding: 48 81 105
Width: 785
Flags: HMW
HStem: -59 21G<632 632> -15 80<324 422.5> 655 80<443 592.5>
LayerCount: 2
Back
SplineSet
119 360 m 4
 158 567 314 735 534 735 c 4
 753 735 843 567 804 360 c 4
 782 252 729 154 654 86 c 5
 713 0 l 5
 632 -59 l 5
 572 29 l 5
 519 1 456 -15 389 -15 c 4
 169 -15 78 153 119 360 c 4
468 182 m 5
 547 241 l 5
 604 157 l 5
 653 209 688 280 704 360 c 4
 735 527 667 655 518 655 c 4
 368 655 250 527 219 360 c 4
 186 193 244 65 404 65 c 4
 448 65 490 76 526 96 c 5
 468 182 l 5
EndSplineSet
Fore
SplineSet
535.674804688 742.94140625 m 1
 772.10546875 630.837890625 l 1
 811.021484375 360.32421875 l 1
 754.827148438 205.288085938 l 1
 657.994140625 80.8115234375 l 1
 719.047851562 -7.7978515625 l 5
 636.538085938 -66.1142578125 l 1
 575.29296875 23.6298828125 l 1
 486.19921875 -10.4716796875 l 1
 387.580078125 -22.2001953125 l 1
 150.0546875 89.8857421875 l 1
 112.1484375 360.32421875 l 1
 254.627929688 630.837890625 l 1
 535.674804688 742.94140625 l 1
545.748046875 242.001953125 m 1
 607.126953125 153.204101562 l 1
 670.75390625 246.078125 l 1
 709.116210938 360.32421875 l 1
 683.140625 574.698242188 l 1
 519.426757812 661.278320312 l 1
 321.327148438 574.698242188 l 1
 214.393554688 360.32421875 l 1
 234.92578125 145.993164062 l 1
 403.147460938 59.3779296875 l 1
 468.400390625 67.54296875 l 1
 528.592773438 92.017578125 l 1
 466.559570312 182.719726562 l 1
 545.748046875 242.001953125 l 1
EndSplineSet
Validated: 1
EndChar
StartChar: R
Encoding: 49 82 106
Width: 677
Flags: HMW
HStem: 0 21G<80 80 80 175 558 558 558 667> 290 85<247 328 230 402> 635 85<296 296 296 449>
LayerCount: 2
Back
SplineSet
80 0 m 5
 218 720 l 5
 458 720 l 6
 603 720 725 669 694 509 c 4
 672 399 600 336 475 315 c 5
 544 294 578 229 601 167 c 6
 667 0 l 5
 558 0 l 5
 512 121 l 6
 477 220 439 290 328 290 c 6
 230 290 l 5
 175 0 l 5
 80 0 l 5
296 635 m 5
 247 375 l 5
 402 375 l 6
 515 375 579 419 596 506 c 4
 615 604 544 635 449 635 c 6
 296 635 l 5
EndSplineSet
Fore
SplineSet
538.91796875 335.748046875 m 1
 663.438476562 19.328125 l 1
 568.538085938 -15.3515625 l 5
 446.098632812 305.068359375 l 1
 329.807617188 289.748046875 l 1
 229.858398438 289.748046875 l 1
 171.698242188 -15.3515625 l 1
 79.8583984375 1.98828125 l 1
 217.6953125 720.499023438 l 1
 462.58984375 720.499023438 l 1
 650.290039062 681.0625 l 1
 703.31640625 512.206054688 l 1
 631.024414062 379.20703125 l 1
 538.91796875 335.748046875 l 1
247.2109375 375.516601562 m 1
 405.341796875 375.516601562 l 1
 540.99609375 409.05859375 l 1
 603.283203125 509.14453125 l 1
 571.883789062 612.418945312 l 1
 453.147460938 634.740234375 l 1
 296.057617188 634.740234375 l 1
 247.2109375 375.516601562 l 1
EndSplineSet
Validated: 1
EndChar
StartChar: S
Encoding: 50 83 107
Width: 665
Flags: HMW
HStem: -15 80<300.5 409 300.5 409.5> 514 221<404.5 688 404.5 597> 655 80<415.5 506.5>
LayerCount: 2
Back
SplineSet
94 230 m 5xa0
 189 238 l 5
 175 123 244 65 357 65 c 4
 461 65 535 117 549 194 c 4
 558 240 543 278 490 300 c 4
 456 315 334 345 294 359 c 4
 173 401 165 463 179 531 c 4
 205 668 344 735 465 735 c 4xc0
 625 735 717 661 688 514 c 5
 597 514 l 5
 610 606 560 655 453 655 c 4
 378 655 288 621 271 537 c 4
 264 500 278 469 316 454 c 4
 347 441 447 411 513 392 c 4
 612 362 673 309 652 199 c 4
 624 52 473 -15 346 -15 c 4
 165 -15 73 67 94 230 c 5xa0
EndSplineSet
Fore
SplineSet
184.670898438 235.526367188 m 5x80
 221.80078125 103.284179688 l 5
 356.15625 59.0244140625 l 5
 488.556640625 95.3740234375 l 5
 552.055664062 190.611328125 l 5
 545.717773438 253.854492188 l 5
 491.916015625 298.725585938 l 5
 291.934570312 358.94921875 l 5
 181.598632812 436.743164062 l 5
 174.547851562 534.439453125 l 5
 284.108398438 690.877929688 l 5
 466.397460938 742.502929688 l 5
 652.418945312 686.030273438 l 5
 688.83984375 539.520507812 l 5
 601.051757812 517.080078125 l 5
 573.512695312 624.216796875 l 5
 453.977539062 660.923828125 l 5
 338.995117188 632.866210938 l 5
 268.287109375 540.5625 l 5
 274.028320312 489.813476562 l 5
 314.220703125 455.836914062 l 5
 401.313476562 426.486328125 l 5
 515.137695312 392.551757812 l 5
 631.971679688 324.759765625 l 5
 656.9375 195.71484375 l 5
 538.774414062 30.3466796875 l 5
 344.758789062 -22.5546875 l 5
 138.938476562 40.041015625 l 5
 93.16015625 208.020507812 l 5
 184.670898438 235.526367188 l 5x80
EndSplineSet
Validated: 1
EndChar
StartChar: T
Encoding: 51 84 108
Width: 619
Flags: HMW
HStem: 0 21G<262 357 262 262> 635 85<158 383 141 737 478 478 478 720>
LayerCount: 2
Back
Fore
SplineSet
354 -15 m 1
 262 3 l 1
 383 635 l 1
 141 635 l 1
 141 720 l 1
 737 720 l 1
 737 635 l 1
 478 635 l 1
 354 -15 l 1
EndSplineSet
Validated: 1
EndChar
StartChar: U
Encoding: 52 85 109
Width: 723
Flags: HMW
HStem: -15 85<308.5 441.5 308.5 456.5> 700 20G<218 313 313 313 686 781 781 781>
LayerCount: 2
Back
SplineSet
604 297 m 6
 686 720 l 5
 781 720 l 5
 701 302 l 6
 665 117 555 -15 358 -15 c 4
 163 -15 102 117 138 302 c 6
 218 720 l 5
 313 720 l 5
 231 297 l 6
 205 159 242 70 375 70 c 4
 508 70 578 159 604 297 c 6
EndSplineSet
Fore
SplineSet
691.599609375 735.500976562 m 5
 783.515625 717.141601562 l 5
 703.875 300.783203125 l 5
 592.5078125 68.3017578125 l 5
 356.013671875 -22.623046875 l 5
 155.447265625 68.3017578125 l 5
 133.533203125 300.783203125 l 5
 217.143554688 735.500976562 l 5
 309.059570312 720.141601562 l 5
 226.547851562 295.680664062 l 5
 239.169921875 127.080078125 l 5
 373.451171875 64.05859375 l 5
 531.305664062 127.045898438 l 5
 607.1171875 295.680664062 l 5
 691.599609375 735.500976562 l 5
EndSplineSet
Validated: 1
EndChar
StartChar: V
Encoding: 53 86 110
Width: 675
Flags: HMW
HStem: 0 21G<288 385 288 288> 700 20G<148 251 251 251 706 803 803 803>
LayerCount: 2
Back
Fore
SplineSet
376 -15 m 1
 282 31 l 5
 148 718 l 1
 248 735 l 1
 357 109 l 1
 715 735 l 1
 788 694 l 1
 376 -15 l 1
EndSplineSet
Validated: 1
EndChar
StartChar: W
Encoding: 54 87 111
Width: 940
Flags: HMW
HStem: 0 21G<198 293 198 198 647 647 647 742> 700 20G<148 245 245 245 551 665 665 665 972 1068 1068 1068>
VStem: 173 85
LayerCount: 2
Back
Fore
SplineSet
286 -15 m 1
 196 28 l 5
 147 728 l 1
 244 735 l 1
 272 115 l 1
 558 735 l 1
 668 692 l 1
 717 115 l 1
 978 735 l 1
 1059 700 l 1
 735 -15 l 1
 645 24 l 1
 590 628 l 1
 286 -15 l 1
EndSplineSet
Validated: 1
EndChar
StartChar: X
Encoding: 55 88 112
Width: 687
Flags: HMW
HStem: 0 21G<20 134 20 20 559 559 559 667> 700 20G<191 294 294 294 682 785 785 785>
LayerCount: 2
Back
Fore
SplineSet
115.3203125 -22.5 m 5
 51.0595703125 34.6201171875 l 5
 367.259765625 373.259765625 l 5
 199.98046875 700.6796875 l 5
 284.639648438 742.5 l 5
 428.459960938 445.6796875 l 5
 701.8203125 742.5 l 5
 758.940429688 690.48046875 l 5
 469.259765625 378.360351562 l 5
 656.940429688 21.3603515625 l 5
 570.240234375 -22.5 l 5
 406.01953125 301.860351562 l 5
 115.3203125 -22.5 l 5
EndSplineSet
Validated: 1
EndChar
StartChar: Y
Encoding: 56 89 113
Width: 675
Flags: HMW
HStem: 0 21G<290 385 290 290> 700 20G<148 263 263 263 693 803 803 803>
LayerCount: 2
Back
Fore
SplineSet
382 -15 m 5
 291 4 l 5
 348 303 l 5
 162 691 l 5
 256 735 l 5
 415 383 l 5
 705 735 l 5
 771 683 l 5
 443 303 l 5
 382 -15 l 5
EndSplineSet
Validated: 1
EndChar
StartChar: Z
Encoding: 57 90 114
Width: 672
Flags: HMW
HStem: 0 85<75 75 184 612 60 75> 635 85<218 609 201 740 723 723>
LayerCount: 2
Back
Fore
SplineSet
612 0 m 1
 154 0 l 5
 75 85 l 1
 609 635 l 1
 201 635 l 1
 201 720 l 1
 642 720 l 1
 723 635 l 1
 184 85 l 1
 612 85 l 1
 612 0 l 1
EndSplineSet
Validated: 1
EndChar
StartChar: bracketleft
Encoding: 58 91 149
Width: 337
Flags: HMW
HStem: -100 85<172 277> 735 85<317 439 317 317>
LayerCount: 2
Back
Fore
SplineSet
277 -100 m 1
 60 -100 l 1
 239 820 l 1
 439 821 l 1
 439 735 l 1
 317 735 l 1
 168 -15 l 5
 277 -15 l 5
 277 -100 l 1
EndSplineSet
Validated: 1
EndChar
StartChar: backslash
Encoding: 59 92 152
Width: 336
Flags: HMW
HStem: -100 21G<227 316 227 227> 800 20G<159 249 249 249>
VStem: 193 89
LayerCount: 2
Back
Fore
SplineSet
315 -92 m 5
 227 -100 l 1
 160 811 l 1
 249 820 l 1
 315 -92 l 5
EndSplineSet
Validated: 1
EndChar
StartChar: bracketright
Encoding: 60 93 150
Width: 337
Flags: HMW
HStem: -100 85<37 159 37 237 20 159> 735 85<199 304 182 416>
LayerCount: 2
Back
Fore
SplineSet
237 -100 m 1
 20 -100 l 1
 20 -15 l 5
 159 -15 l 1
 304 735 l 1
 182 735 l 1
 182 820 l 1
 416 820 l 1
 237 -100 l 1
EndSplineSet
Validated: 1
EndChar
StartChar: asciicircum
Encoding: 61 94 169
Width: 512
Flags: HMW
LayerCount: 2
Back
SplineSet
380 736 m 5
 484 668 l 5
 556 471 l 5
 465 438 l 5
 401 641 l 5
 245 424 l 5
 181 470 l 5
 380 736 l 5
EndSplineSet
Fore
SplineSet
407 710 m 5
 226 467 l 5
 266 439 l 5
 403 601 l 5
 466 440 l 5
 518 468 l 5
 446 710 l 5
 424 710 l 5
 407 710 l 5
EndSplineSet
Validated: 9
EndChar
StartChar: underscore
Encoding: 62 95 140
Width: 696
Flags: HMW
HStem: 0 75<84 626 70 640>
LayerCount: 2
Back
Fore
SplineSet
640 0 m 5
 70 0 l 1
 70 75 l 1
 640 75 l 1
 640 0 l 5
EndSplineSet
Validated: 1
EndChar
StartChar: grave
Encoding: 63 96 182
Width: 284
Flags: HMW
HStem: 533 21G<253 324 253 253> 700 20G<130 248 248 248>
LayerCount: 2
Back
SplineSet
248 720 m 5
 324 533 l 5
 253 533 l 5
 130 720 l 5
 248 720 l 5
EndSplineSet
Fore
SplineSet
216.139648438 773.171875 m 5
 305 560 l 5
 255 532 l 5
 126.379882812 726.159179688 l 5
 216.139648438 773.171875 l 5
EndSplineSet
Validated: 1
EndChar
StartChar: a
Encoding: 64 97 63
Width: 516
Flags: HMW
HStem: -15 72<195 223> 0 21G<392 483 392 392> 463 72<306 367.5>
LayerCount: 2
Back
SplineSet
382 64 m 5xa0
 319 6 254 -15 192 -15 c 4
 96 -15 24 31 44 137 c 4
 66 249 163 294 281 305 c 4
 337 310 400 320 428 332 c 5
 432 352 l 6
 448 433 402 463 333 463 c 4x60
 268 463 219 427 189 359 c 5
 107 378 l 5
 156 498 256 535 356 535 c 4
 495 535 544 465 519 334 c 6
 475 106 l 6
 464 53 468 19 483 0 c 5
 392 0 l 5
 378 14 380 39 382 64 c 5xa0
391 140 m 5
 415 263 l 5
 389 252 329 241 277 233 c 4
 220 224 153 212 139 141 c 4
 127 75 171 57 219 57 c 4xa0
 286 57 357 105 391 140 c 5
EndSplineSet
Fore
SplineSet
381.939453125 60.126953125 m 5x20
 284.522460938 -2.4697265625 l 1
 187.999023438 -20.6015625 l 1
 68.0390625 16.361328125 l 1
 37.0126953125 134.467773438 l 1
 121.204101562 258.80078125 l 1
 428.810546875 333.431640625 l 1
 414.956054688 441.459960938 l 1
 331.924804688 467.060546875 l 1
 245.095703125 440.0234375 l 1
 184.935546875 360.987304688 l 1
 125.993164062 408.920898438 l 1
 208.913085938 506.369140625 l 1
 355.401367188 540.559570312 l 1
 501.229492188 488.161132812 l 1
 518.698242188 335.47265625 l 1
 450.392578125 -15.5 l 1
 369.732421875 -0.19921875 l 1
 381.939453125 60.126953125 l 5x20
415.456054688 263.002929688 m 1
 187.87109375 209.158203125 l 1
 133.8984375 138.46484375 l 1
 151.826171875 70.375 l 1
 215.559570312 52.8125 l 1
 315.96484375 81.7802734375 l 1
 391.043945312 137.529296875 l 1
 415.456054688 263.002929688 l 1
EndSplineSet
Validated: 1
EndChar
StartChar: b
Encoding: 65 98 64
Width: 548
Flags: HMW
HStem: -15 75<258.5 332.5 258.5 355> 0 60 460 75<358 409.5> 700 20G<198 288 288 288>
LayerCount: 2
Back
SplineSet
239 465 m 5
 305.047851562 515.720703125 l 5
 389.109375 534.973632812 l 5
 539.73046875 458.220703125 l 5
 559.067382812 259.940429688 l 5
 463.413085938 61.6513671875 l 5
 282.948242188 -15.1005859375 l 5
 199.439453125 9.1552734375 l 5
 152.018554688 70.8818359375 l 5
 137 -15 l 5
 60 0 l 5
 201 735 l 5
 288.037109375 720.021484375 l 5
 239 465 l 5
293.038085938 59.8759765625 m 5
 400.918945312 110.36328125 l 5
 469.083984375 259.857421875 l 5
 458.952148438 409.393554688 l 5
 370.01171875 459.9140625 l 5
 259.127929688 409.41796875 l 5
 187.9609375 259.857421875 l 5
 204.879882812 110.387695312 l 5
 293.038085938 59.8759765625 l 5
386 720 m 5x70
 476 720 l 5
 427 465 l 5
 465 507 515 535 577 535 c 4
 721 535 778 422 747 260 c 4
 716 98 615 -15 471 -15 c 4xb0
 402 -15 361 21 340 71 c 5
 328 0 l 5
 248 0 l 5
 386 720 l 5x70
376 260 m 4
 350 128 412 60 481 60 c 4
 560 60 631 128 657 260 c 4
 683 392 637 460 558 460 c 4
 479 460 402 392 376 260 c 4
EndSplineSet
Fore
SplineSet
237.588867188 467.100585938 m 5x30
 304.958007812 518.8359375 l 5
 390.701171875 538.473632812 l 5
 544.333984375 460.186523438 l 5
 564.057617188 257.940429688 l 5
 466.490234375 55.685546875 l 5
 282.416992188 -22.6015625 l 5
 197.237304688 2.1396484375 l 5
 148.868164062 65.1005859375 l 5
 135.549804688 -15.4990234375 l 5
 58.009765625 -0.19921875 l 5
 198.829101562 735.500976562 l 5
 286.607421875 720.22265625 l 5
 237.588867188 467.100585938 l 5x30
292.708007812 53.8740234375 m 5
 402.747070312 105.37109375 l 5
 472.275390625 257.85546875 l 5
 461.940429688 410.3828125 l 5
 371.221679688 461.913085938 l 5
 258.120117188 410.407226562 l 5
 185.529296875 257.85546875 l 5
 202.787109375 105.396484375 l 5
 292.708007812 53.8740234375 l 5
EndSplineSet
Validated: 1
EndChar
StartChar: c
Encoding: 66 99 65
Width: 513
Flags: HMW
HStem: -15 75<228.5 298.5 228.5 309> 357 178<287 541 287 456> 460 75<305.5 375.5>
LayerCount: 2
Back
SplineSet
158 260 m 4xa0
 131 118 189 60 268 60 c 4
 329 60 384 95 419 177 c 5
 502 157 l 5
 453 48 365 -15 253 -15 c 4
 109 -15 35 88 68 260 c 4
 102 432 215 535 359 535 c 4
 471 535 555 476 541 357 c 5
 456 357 l 5xc0
 464 440 406 460 345 460 c 4
 266 460 186 402 158 260 c 4xa0
EndSplineSet
Fore
SplineSet
267.345703125 56.009765625 m 5x80
 354.30078125 84.2880859375 l 5
 421.478515625 175.349609375 l 5
 485.630859375 130.458984375 l 5
 403.159179688 25.544921875 l 5
 252.120117188 -20.466796875 l 5
 90.0439453125 53.9931640625 l 5
 63.28125 260.075195312 l 5
 169.706054688 466.149414062 l 5
 360.1484375 540.609375 l 5
 501.267578125 495.3203125 l 5
 537.650390625 385.458984375 l 5
 459.161132812 358.995117188 l 5
 428.920898438 443.26171875 l 5
 345.857421875 464.048828125 l 5
 231.013671875 416.344726562 l 5
 155.147460938 259.990234375 l 5
 170.640625 103.704101562 l 5
 267.345703125 56.009765625 l 5x80
EndSplineSet
Validated: 1
EndChar
StartChar: d
Encoding: 67 100 66
Width: 538
Flags: HMW
HStem: -15 75<219.5 273.5> 0 60 460 75<296.5 375.5> 700 20G<518 608 608 608>
LayerCount: 2
Back
SplineSet
518 720 m 5xb0
 608 720 l 5
 470 0 l 5
 390 0 l 5
 402 71 l 5
 363 21 308 -15 239 -15 c 4
 95 -15 38 98 69 260 c 4
 100 422 201 535 345 535 c 4
 407 535 447 507 469 465 c 5
 518 720 l 5xb0
440 260 m 4
 466 392 415 460 336 460 c 4
 257 460 185 392 159 260 c 4x70
 133 128 180 60 259 60 c 4
 328 60 414 128 440 260 c 4
EndSplineSet
Fore
SplineSet
608.390625 720.201171875 m 5x30
 466.5703125 -15.4990234375 l 1
 390.038085938 -0.306640625 l 1
 401.284179688 65.0791015625 l 1
 329.618164062 2.091796875 l 1
 234.986328125 -22.623046875 l 1
 81.34375 55.6640625 l 1
 61.544921875 257.918945312 l 1
 159.154296875 460.1640625 l 1
 343.272460938 538.452148438 l 1
 421.81640625 518.814453125 l 1
 469.674804688 467.079101562 l 1
 520.650390625 734.500976562 l 5
 608.390625 720.201171875 l 5x30
334.001953125 461.9765625 m 1
 223.420898438 410.471679688 l 1
 153.415039062 257.918945312 l 1
 164.25 105.434570312 l 1
 255.404296875 53.9375 l 1
 364.166992188 105.434570312 l 1
 440.075195312 257.918945312 l 1
 427.19921875 410.436523438 l 1
 334.001953125 461.9765625 l 1
EndSplineSet
Validated: 1
EndChar
StartChar: e
Encoding: 68 101 67
Width: 510
Flags: HMW
HStem: -15 75<235.5 303.5 235.5 309.5> 237 72<170 334 154 347> 460 75<314 373.5>
VStem: 453 87
LayerCount: 2
Back
SplineSet
516 158 m 5
 463 42 366 -15 253 -15 c 4
 109 -15 35 88 68 260 c 4
 102 432 215 535 359 535 c 4
 488 535 540 452 540 389 c 4
 539 270 441 237 334 237 c 6
 154 237 l 5
 137 112 198 60 273 60 c 4
 334 60 401 98 434 176 c 5
 516 158 l 5
345 460 m 4
 283 460 207 415 170 309 c 5
 347 309 l 6
 411 309 451 327 453 386 c 4
 455 435 402 460 345 460 c 4
EndSplineSet
Fore
SplineSet
251.953125 -20.466796875 m 1
 89.8564453125 53.9931640625 l 1
 63.2001953125 260.075195312 l 1
 169.528320312 466.149414062 l 1
 360.067382812 540.609375 l 1
 501.75 490.217773438 l 1
 544.737304688 391.663085938 l 1
 480.17578125 268.615234375 l 1
 334.463867188 236.59375 l 1
 150.983398438 236.59375 l 1
 176.397460938 98.4912109375 l 1
 272.369140625 56.009765625 l 1
 365.181640625 85.3427734375 l 1
 436.624023438 174.329101562 l 1
 496.780273438 128.418945312 l 1
 409.032226562 23.4013671875 l 1
 251.953125 -20.466796875 l 1
166.231445312 309.083984375 m 5
 347.818359375 309.083984375 l 1
 425.640625 326.788085938 l 1
 455.93359375 388.6015625 l 1
 423.333984375 445.125 l 1
 345.692382812 464.1328125 l 1
 246.955078125 427.65625 l 1
 166.231445312 309.083984375 l 5
EndSplineSet
Validated: 1
EndChar
StartChar: f
Encoding: 69 102 68
Width: 322
Flags: HMW
HStem: -210 79<-9 24 -9 47.5> 451 69<115 180 102 193 280 368> 633 78<348.5 384>
LayerCount: 2
Back
SplineSet
20 -200 m 5
 52 -125 l 5
 68 -130 76 -131 86 -131 c 4
 142 -131 168 -79 178 -26 c 6
 270 451 l 5
 192 451 l 5
 205 520 l 5
 283 520 l 5
 287 541 l 6
 308 651 370 711 470 711 c 4
 503 711 537 703 552 695 c 5
 521 623 l 5
 508 629 482 633 466 633 c 4
 411 633 385 600 374 543 c 6
 370 520 l 5
 471 520 l 5
 458 451 l 5
 357 451 l 5
 265 -28 l 6
 244 -134 193 -210 82 -210 c 4
 59 -210 40 -206 20 -200 c 5
EndSplineSet
Fore
SplineSet
-8.001953125 -143.770507812 m 5
 56.529296875 -110.481445312 l 5
 85.908203125 -36.67578125 l 5
 179.81640625 450.96484375 l 5
 100.198242188 450.96484375 l 5
 100.120117188 520.393554688 l 5
 193.083984375 520.393554688 l 5
 197.081054688 541.749023438 l 5
 260.229492188 670.546875 l 5
 383.793945312 715.189453125 l 5
 450 703 l 5
 435.681640625 625.360351562 l 5
 379.625 635.56640625 l 5
 315.892578125 611.447265625 l 5
 284.716796875 543.697265625 l 5
 280.633789062 520.299804688 l 5
 371.440429688 520.393554688 l 5
 371.377929688 450.87109375 l 5
 267.3671875 450.87109375 l 5
 173.458007812 -38.810546875 l 5
 115.5625 -172.202148438 l 5
 -12.1689453125 -224.506835938 l 5
 -75.3701171875 -214.30078125 l 5
 -62 -134 l 5
 -8.001953125 -143.770507812 l 5
EndSplineSet
Validated: 1
EndChar
StartChar: g
Encoding: 70 103 69
Width: 528
Flags: HMW
HStem: -220 76<192 262.5 192 292.5> -220 228 -15 75<223 269> 460 60 460 75<295.5 369.5>
VStem: 31 82
LayerCount: 2
Back
SplineSet
475 40 m 6xb4
 451 -89 384 -220 201 -220 c 4
 109 -220 25 -176 31 -90 c 4
 35 -39 73 5 142 8 c 5
 70 49 45 141 68 260 c 4
 99 422 200 535 344 535 c 4x4c
 413 535 454 499 475 449 c 5
 488 520 l 5
 568 520 l 5
 475 40 l 6xb4
439 260 m 4
 465 392 404 460 335 460 c 4
 256 460 184 392 158 260 c 4
 132 128 179 60 258 60 c 4xb4
 337 60 413 128 439 260 c 4
238 -15 m 4
 208 -15 182 -10 160 -1 c 5
 141 -11 115 -29 113 -64 c 4
 109 -126 169 -144 215 -144 c 4
 310 -144 366 -79 382 18 c 6
 388 55 l 5
 350 13 300 -15 238 -15 c 4
EndSplineSet
Fore
SplineSet
195.9296875 -227.759765625 m 1x04
 71.7275390625 -194.344726562 l 1
 22.48828125 -95.14453125 l 1
 54.2900390625 -26.755859375 l 1
 135.791015625 4.890625 l 1
 61.6904296875 103.58984375 l 1
 60.2529296875 261.950195312 l 1
 157.819335938 464.197265625 l 1
 341.89453125 542.484375 l 1
 427.052734375 517.743164062 l 1
 475.528320312 454.782226562 l 1
 490.831054688 535.551757812 l 1
 568.37109375 522.291992188 l 1
 474.526367188 37.5498046875 l 1
 396.555664062 -144.48046875 l 1
 195.9296875 -227.759765625 l 1x04
123.606445312 -26.8408203125 m 1
 106.2734375 -68.5234375 l 1
 139.151367188 -133.041992188 l 1
 210.305664062 -150.09375 l 1
 325.778320312 -104.549804688 l 1
 381.770507812 16.181640625 l 5
 387.809570312 53.9521484375 l 5
 319.450195312 1.19140625 l 1
 233.78125 -18.4208984375 l 1
 190.8359375 -14.7646484375 l 1
 154.079101562 -4.2607421875 l 1
 123.606445312 -26.8408203125 l 1
332.625976562 466.0078125 m 1
 222.043945312 414.502929688 l 1
 152.038085938 261.950195312 l 1
 162.861328125 109.466796875 l 1
 253.942382812 57.9697265625 l 1
 366.586914062 109.466796875 l 1
 438.783203125 261.950195312 l 1
 422.069335938 414.46875 l 1
 332.625976562 466.0078125 l 1
EndSplineSet
Validated: 1
EndChar
StartChar: h
Encoding: 71 104 70
Width: 545
Flags: HMW
HStem: 0 21G<60 150 60 60 395 395 395 485> 459 76<372 415> 700 20G<198 288 288 288>
LayerCount: 2
Back
SplineSet
150 0 m 5
 60 0 l 5
 198 720 l 5
 288 720 l 5
 236 449 l 5
 276 506 336 535 408 535 c 4
 552 535 569 443 546 319 c 6
 485 0 l 5
 395 0 l 5
 455 315 l 6
 472 405 454 459 376 459 c 4
 294 459 225 397 203 283 c 6
 150 0 l 5
EndSplineSet
Fore
SplineSet
54.2275390625 -0.349609375 m 1
 194.959960938 735.5 l 1
 282.700195312 720.200195312 l 1
 231.62109375 450.749023438 l 1
 307.11328125 516.415039062 l 1
 407.104492188 538.451171875 l 1
 541.375976562 475.685546875 l 1
 545.796875 318.055664062 l 1
 481.580078125 -15.5 l 5
 394.833984375 0.607421875 l 5
 455.078125 313.973632812 l 1
 451.149414062 421.866210938 l 1
 374.614257812 460.869140625 l 1
 263.36328125 414.696289062 l 1
 198.109375 281.305664062 l 1
 141.879882812 -15.5 l 1
 54.2275390625 -0.392578125 l 1
 54.2275390625 -0.349609375 l 1
EndSplineSet
Validated: 1
EndChar
StartChar: i
Encoding: 72 105 71
Width: 218
Flags: W
HStem: -15 21G<60 150.813> 515 20G<158.187 249> 711.104 20G<199.14 266>
VStem: 60 231.117
LayerCount: 2
Back
SplineSet
228.873046875 645.739257812 m 5
 237.984375 695.365234375 l 5
 276.166992188 730.384765625 l 5
 321.053710938 730.280273438 l 5
 346.3515625 695.114257812 l 5
 337.241210938 645.487304688 l 5
 299.060546875 610.469726562 l 5
 254.172851562 610.573242188 l 5
 228.873046875 645.739257812 l 5
200 -15 m 1
 113 0 l 1
 215 535 l 1
 302 520 l 1
 200 -15 l 1
322 619 m 5
 232 619 l 5
 251 720 l 5
 341 720 l 5
 322 619 l 5
203 0 m 1
 113 0 l 1
 212 520 l 1
 302 520 l 1
 203 0 l 1
EndSplineSet
Fore
SplineSet
176.819335938 650.458984375 m 5
 185.930664062 700.084960938 l 5
 223.11328125 731.104492188 l 5
 266 724 l 5
 291.1171875 683.81640625 l 5
 282.006835938 634.189453125 l 5
 244.006835938 604.189453125 l 5
 201.119140625 611.29296875 l 5
 176.819335938 650.458984375 l 5
147 -15 m 5
 60 0 l 5
 162 535 l 5
 249 520 l 5
 147 -15 l 5
EndSplineSet
Validated: 1
EndChar
StartChar: j
Encoding: 73 106 72
Width: 222
Flags: HMW
HStem: -210 79<-29 4 -29 28> 500 20G<163 253 253 253> 619 101<202 273 183 292>
LayerCount: 2
Back
SplineSet
382 -200 m 5
 414 -125 l 5
 430 -130 438 -131 448 -131 c 4
 504 -131 520 -79 530 -26 c 6
 635 520 l 5
 725 520 l 5
 620 -28 l 6
 599 -134 555 -210 445 -210 c 4
 421 -210 402 -206 382 -200 c 5
745 619 m 5
 655 619 l 5
 674 720 l 5
 764 720 l 5
 745 619 l 5
EndSplineSet
Fore
SplineSet
178.344726562 658.259765625 m 1
 187.637695312 708.877929688 l 1
 225.564453125 740.518554688 l 1
 269.30859375 733.271484375 l 1
 294.928710938 692.284179688 l 1
 285.635742188 641.665039062 l 1
 246.875976562 611.064453125 l 1
 203.129882812 618.310546875 l 1
 178.344726562 658.259765625 l 1
-78.5107421875 -128.627929688 m 1
 -26.3564453125 -139.037109375 l 1
 33.0703125 -105.75 l 1
 57.3447265625 -31.9443359375 l 1
 167.30859375 535.491210938 l 1
 254.220703125 520.125976562 l 5
 147.041992188 -33.9853515625 l 5
 93.8359375 -167.375976562 l 1
 -29.50390625 -219.681640625 l 1
 -93.8115234375 -209.475585938 l 1
 -78.5107421875 -128.627929688 l 1
EndSplineSet
Validated: 1
EndChar
StartChar: k
Encoding: 74 107 73
Width: 517
Flags: HMW
HStem: 0 21G<60 60 60 150 376 376 376 481> 225 75<206 234 192 238> 437 83<492.5 557 539 541> 700 20G<198 288 288 288>
LayerCount: 2
Back
SplineSet
60 0 m 5
 198 720 l 5
 288 720 l 5
 206 300 l 5
 238 300 l 6
 268 300 296 307 329 348 c 4
 352 376 395 452 407 468 c 4
 445 517 481 520 539 520 c 6
 557 520 l 5
 541 437 l 5
 516 437 l 6
 469 437 461 410 439 372 c 4
 403 312 369 279 328 269 c 5
 327 265 l 5
 363 256 396 224 418 173 c 6
 481 0 l 5
 376 0 l 5
 321 160 l 6
 303 207 274 225 234 225 c 6
 192 225 l 5
 150 0 l 5
 60 0 l 5
EndSplineSet
Fore
SplineSet
199.004882812 735.5 m 1
 285.745117188 720.200195312 l 1
 204.12890625 299.741210938 l 1
 236.79296875 299.741210938 l 1
 282.03515625 310.543945312 l 1
 329.765625 350.737304688 l 1
 409.383789062 473.139648438 l 1
 469.012695312 518.436523438 l 1
 543.953125 526.17578125 l 2
 543.953125 526.17578125 l 1
 546.166992188 441.458984375 l 1
 520.6484375 441.458984375 l 1
 471.80078125 422.833007812 l 1
 441.96484375 375.112304688 l 1
 387.270507812 303.450195312 l 1
 328.747070312 270.060546875 l 2
 327.7265625 265.977539062 l 1
 379.48828125 235.096679688 l 1
 418.530273438 172.06640625 l 5
 475.484375 15.1201171875 l 1
 381.604492188 -15.5 l 1
 321.6875 158.799804688 l 1
 285.706054688 209.930664062 l 1
 232.881835938 225.145507812 l 1
 190.010742188 225.145507812 l 1
 144.924804688 -14.5 l 1
 58.357421875 0.564453125 l 1
 199.004882812 735.5 l 1
EndSplineSet
Validated: 5
EndChar
StartChar: l
Encoding: 75 108 74
Width: 221
Flags: HMW
HStem: 0 21G<60 150 60 60> 715 20G<291 291>
LayerCount: 2
Back
Fore
SplineSet
146 -15 m 1
 60 0 l 1
 201 735 l 1
 288 722 l 1
 146 -15 l 1
EndSplineSet
Validated: 1
EndChar
StartChar: m
Encoding: 76 109 75
Width: 832
Flags: HMW
HStem: 0 21G<60 150 60 60 370 370 370 460 679 679 679 769> 459 61 459 76<365.5 396.5 675.5 713.5>
LayerCount: 2
Back
SplineSet
150 0 m 5xc0
 60 0 l 5
 159 520 l 5
 240 520 l 5
 226 446 l 5
 274 510 331 535 400 535 c 4
 476 535 520 500 529 439 c 5
 576 508 643 535 708 535 c 4
 815 535 859 472 836 356 c 6
 769 0 l 5
 679 0 l 5
 741 327 l 6
 754 396 752 459 675 459 c 4
 584 459 533 386 517 301 c 6xc0
 460 0 l 5
 370 0 l 5
 434 337 l 6
 449 415 427 459 366 459 c 4xa0
 259 459 219 364 201 269 c 6
 150 0 l 5xc0
EndSplineSet
Fore
SplineSet
156.280273438 534.5 m 5x80
 233.840820312 520.219726562 l 5
 220.551757812 449.66796875 l 5
 301.287109375 519.543945312 l 5
 398.163085938 540.432617188 l 5
 489.541015625 514.798828125 l 5
 529.75390625 442.524414062 l 5
 614.104492188 517.885742188 l 5
 712.297851562 540.432617188 l 5
 827.344726562 493.485351562 l 5
 841.869140625 357.798828125 l 5
 771.360351562 -15.5 l 5
 683.696289062 -0.4111328125 l 5
 745.983398438 328.201171875 l 5
 746.663085938 421.93359375 l 5
 678.590820312 462.850585938 l 5
 569.276367188 414.790039062 l 5
 515.313476562 301.657226562 l 5
 455.180664062 -15.5 l 5
 368.348632812 -0.4111328125 l 5
 432.676757812 338.407226562 l 5
 427.1484375 430.455078125 l 5
 363.435546875 462.850585938 l 5
 245.19921875 402.287109375 l 5
 195.096679688 268.999023438 l 5
 140.98046875 -15.5 l 5
 54.0859375 -0.4111328125 l 6
 156.280273438 534.5 l 5x80
EndSplineSet
Validated: 1
EndChar
StartChar: n
Encoding: 77 110 76
Width: 545
Flags: HMW
HStem: 0 21G<60 150 60 60 395 395 395 485> 459 61 459 76<372 415>
LayerCount: 2
Back
SplineSet
150 0 m 5xa0
 60 0 l 5
 159 520 l 5
 240 520 l 5
 226 445 l 5
 276 509 336 535 408 535 c 4
 552 535 569 443 546 319 c 6
 485 0 l 5
 395 0 l 5
 455 315 l 6
 472 405 454 459 376 459 c 4xc0
 294 459 225 397 203 283 c 6
 150 0 l 5xa0
EndSplineSet
Fore
SplineSet
58.1494140625 0.859375 m 5x80
 160.168945312 535.5 l 5
 238.729492188 522.240234375 l 5
 224.44140625 448.647460938 l 5
 308.951171875 519.076171875 l 5
 410.303710938 540.516601562 l 5
 544.564453125 477.750976562 l 5
 549.908203125 322.12109375 l 5
 484.654296875 -15.5 l 5
 397.849609375 0.859375 l 5
 458.275390625 316.0390625 l 5
 454.294921875 423.931640625 l 5
 377.71875 462.934570312 l 5
 266.541015625 416.76171875 l 5
 201.298828125 283.37109375 l 5
 144.869140625 -15.5 l 5
 58.1494140625 0.859375 l 5x80
EndSplineSet
Validated: 1
EndChar
StartChar: o
Encoding: 78 111 77
Width: 532
Flags: HMW
HStem: -15 75<233.5 312.5 233.5 330> 460 75<310.5 389.5>
LayerCount: 2
Back
SplineSet
68 260 m 4
 102 432 220 535 364 535 c 4
 508 535 588 432 554 260 c 4
 521 88 402 -15 258 -15 c 4
 114 -15 35 88 68 260 c 4
158 260 m 4
 131 118 194 60 273 60 c 4
 352 60 437 118 464 260 c 4
 492 402 429 460 350 460 c 4
 271 460 186 402 158 260 c 4
EndSplineSet
Fore
SplineSet
365.201171875 539.500976562 m 5
 530.296875 465.041015625 l 5
 559.059570312 258.966796875 l 5
 450.508789062 52.884765625 l 5
 256.916992188 -21.5751953125 l 5
 92.3212890625 52.884765625 l 5
 63.2294921875 258.966796875 l 5
 172.109375 465.041015625 l 5
 365.201171875 539.500976562 l 5
272.3984375 54.9013671875 m 5
 389.66796875 102.571289062 l 5
 467.19140625 258.881835938 l 5
 449.977539062 415.236328125 l 5
 350.91015625 462.940429688 l 5
 233.471679688 415.236328125 l 5
 155.012695312 258.881835938 l 5
 173.163085938 102.595703125 l 5
 272.3984375 54.9013671875 l 5
EndSplineSet
Validated: 1
EndChar
StartChar: p
Encoding: 79 112 78
Width: 547
Flags: HMW
HStem: -200 21G<20 110 20 20> -15 75<252.5 331.5 252.5 354> 460 60 460 75<353.5 408.5>
LayerCount: 2
Back
SplineSet
110 -200 m 5xd0
 20 -200 l 5
 158 520 l 5
 238 520 l 5
 225 449 l 5
 264 499 319 535 388 535 c 4
 532 535 589 422 558 260 c 4
 527 98 426 -15 282 -15 c 4
 220 -15 180 13 158 55 c 5
 110 -200 l 5xd0
187 260 m 4
 161 128 213 60 292 60 c 4
 371 60 442 128 468 260 c 4xe0
 494 392 448 460 369 460 c 4
 300 460 213 392 187 260 c 4
EndSplineSet
Fore
SplineSet
160.42578125 534.450195312 m 1xc0
 237.965820312 521.190429688 l 1
 226.045898438 454.495117188 l 5
 297.7109375 517.481445312 l 1
 392.342773438 542.197265625 l 1
 545.986328125 463.91015625 l 1
 565.784179688 261.663085938 l 1
 468.20703125 59.408203125 l 1
 284.056640625 -18.87890625 l 1
 205.587890625 0.7333984375 l 1
 157.740234375 52.494140625 l 1
 108.366210938 -210.450195312 l 1
 20.6259765625 -195.150390625 l 1
 160.42578125 534.450195312 l 1xc0
294.348632812 57.59765625 m 1
 404.47265625 109.094726562 l 1
 473.831054688 261.578125 l 1
 463.526367188 414.10546875 l 1
 372.776367188 465.635742188 l 1
 263.56640625 414.129882812 l 1
 187.083984375 261.578125 l 1
 200.620117188 109.119140625 l 1
 294.348632812 57.59765625 l 1
EndSplineSet
Validated: 1
EndChar
StartChar: q
Encoding: 80 113 79
Width: 529
Flags: HMW
HStem: -200 21G<341 431 341 341> -15 75<219.5 270> 460 60 460 75<296.5 370.5>
LayerCount: 2
Back
SplineSet
431 -200 m 5xe0
 341 -200 l 5
 389 55 l 5
 351 13 301 -15 239 -15 c 4
 95 -15 38 98 69 260 c 4
 100 422 201 535 345 535 c 4xd0
 414 535 455 499 476 449 c 5
 489 520 l 5
 569 520 l 5
 431 -200 l 5xe0
440 260 m 4
 466 392 405 460 336 460 c 4
 257 460 185 392 159 260 c 4
 133 128 180 60 259 60 c 4
 338 60 414 128 440 260 c 4
EndSplineSet
Fore
SplineSet
341.459960938 -194.129882812 m 5xc0
 388.4375 52.6796875 l 1
 320.971679688 0.9189453125 l 1
 235.32421875 -18.693359375 l 1
 81.595703125 59.59375 l 1
 61.9677734375 261.848632812 l 1
 159.459960938 464.095703125 l 1
 343.524414062 542.381835938 l 1
 428.682617188 517.641601562 l 1
 477.157226562 454.680664062 l 1
 491.459960938 534.450195312 l 1
 569 522.209960938 l 1
 429.200195312 -210.450195312 l 5
 341.459960938 -194.129882812 l 5xc0
334.252929688 465.821289062 m 1
 223.670898438 414.315429688 l 1
 153.666015625 261.763671875 l 1
 164.499023438 109.279296875 l 1
 255.655273438 57.7822265625 l 1
 368.213867188 109.279296875 l 1
 440.326171875 261.763671875 l 1
 423.684570312 414.28125 l 1
 334.252929688 465.821289062 l 1
EndSplineSet
Validated: 1
EndChar
StartChar: r
Encoding: 81 114 80
Width: 412
Flags: HMW
HStem: 0 21G<60 150 60 60> 450 70 450 85<352.5 380.5>
LayerCount: 2
Back
SplineSet
150 0 m 5xa0
 60 0 l 5
 159 520 l 5
 240 520 l 5
 223 430 l 5
 269 500 320 535 385 535 c 4
 425 535 451 526 472 507 c 5
 429 428 l 5
 412 442 396 450 365 450 c 4xc0
 279 450 222 382 203 281 c 6
 150 0 l 5xa0
EndSplineSet
Fore
SplineSet
59.87890625 0.83984375 m 5x80
 161.918945312 535.5 l 1
 240.479492188 521.240234375 l 1
 224.211914062 433.338867188 l 1
 299.577148438 513.650390625 l 1
 389.48828125 540.432617188 l 1
 478.208984375 511.890625 l 1
 434.315429688 431.33984375 l 1
 368.903320312 453.79296875 l 1
 260.662109375 406.2421875 l 1
 203.711914062 281.373046875 l 1
 147.619140625 -15.5 l 1
 59.87890625 0.83984375 l 5x80
EndSplineSet
Validated: 1
EndChar
StartChar: s
Encoding: 82 115 81
Width: 489
Flags: HMW
HStem: -15 75<218 286.5 218 295> 377 158<288.5 505 288.5 422> 460 75<293.5 359.5>
LayerCount: 2
Back
SplineSet
62 150 m 5xa0
 152 163 l 5
 149 108 175 60 261 60 c 4
 312 60 381 77 392 135 c 4
 400 175 386 196 335 210 c 6
 215 244 l 6
 150 263 95 295 111 381 c 4
 133 490 235 535 342 535 c 4xc0
 466 535 524 466 505 377 c 5
 422 377 l 5
 425 434 393 460 326 460 c 4
 261 460 208 433 200 391 c 4
 192 356 222 339 252 331 c 6
 384 293 l 6
 446 275 502 240 483 143 c 4
 461 28 347 -15 243 -15 c 4
 116 -15 50 45 62 150 c 5xa0
EndSplineSet
Fore
SplineSet
149.283203125 161.243164062 m 5x80
 170.81640625 87.66796875 l 5
 260.544921875 56.19140625 l 5
 342.610351562 72.2578125 l 5
 394.177734375 132.659179688 l 5
 387.6640625 180.813476562 l 5
 335.9140625 209.134765625 l 5
 213.59375 243.834960938 l 5
 129.575195312 288.103515625 l 5
 107.4375 383.595703125 l 5
 192.818359375 503.872070312 l 5
 343.145507812 540.706054688 l 5
 481 494.133789062 l 5
 503.330078125 402.797851562 l 5
 424.8046875 379.427734375 l 5
 402.549804688 443.606445312 l 5
 326.897460938 464.145507812 l 5
 240.846679688 445.009765625 l 5
 198.369140625 393.716796875 l 5
 210.321289062 352.7578125 l 5
 251.36328125 332.47265625 l 5
 386.1015625 293.682617188 l 5
 467.506835938 247.373046875 l 5
 487.155273438 140.653320312 l 5
 396.033203125 16.06640625 l 5
 242.260742188 -20.5390625 l 5
 96.7822265625 23.439453125 l 5
 61.669921875 135.55859375 l 5
 149.283203125 161.243164062 l 5x80
EndSplineSet
Validated: 1
EndChar
StartChar: t
Encoding: 83 116 82
Width: 306
Flags: HMW
HStem: -10 80<203.5 206.5> 451 69<103 164 90 177 267 343> 680 20G<301 301>
LayerCount: 2
Back
SplineSet
270 76 m 5
 266 0 l 5
 244 -6 216 -10 197 -10 c 4
 88 -10 87 50 106 152 c 6
 164 451 l 5
 90 451 l 5
 103 520 l 5
 177 520 l 5
 203 657 l 5
 301 700 l 5
 267 520 l 5
 356 520 l 5
 343 451 l 5
 254 451 l 5
 196 147 l 6
 187 102 180 70 227 70 c 4
 237 70 252 71 270 76 c 5
EndSplineSet
Fore
SplineSet
195.708007812 -19.29296875 m 5
 100.255859375 24.3369140625 l 5
 104.731445312 145.982421875 l 5
 163.850585938 451.018554688 l 5
 88.3994140625 451.018554688 l 5
 88.470703125 520.447265625 l 5
 177.118164062 520.447265625 l 5
 210.890625 700.1015625 l 5
 298.630859375 684.76171875 l 5
 267.0703125 520.447265625 l 5
 344.530273438 520.501953125 l 5
 344.563476562 451.018554688 l 5
 253.801757812 451.018554688 l 5
 194.68359375 140.879882812 l 5
 189.122070312 84.3564453125 l 5
 226.241210938 62.2861328125 l 5
 270.217773438 68.494140625 l 5
 289.450195312 -0.73828125 l 5
 195.708007812 -19.29296875 l 5
EndSplineSet
Validated: 1
EndChar
StartChar: u
Encoding: 84 117 83
Width: 526
Flags: HMW
HStem: -15 76<201 253> 0 61 500 20G<141 231 231 231 476 566 566 566>
LayerCount: 2
Back
SplineSet
476 520 m 5xa0
 566 520 l 5
 467 0 l 5
 386 0 l 5
 400 75 l 5
 351 18 289 -15 217 -15 c 4
 73 -15 56 77 80 201 c 6
 141 520 l 5
 231 520 l 5
 171 205 l 6
 154 115 162 61 240 61 c 4x60
 322 61 400 123 422 237 c 6
 476 520 l 5xa0
EndSplineSet
Fore
SplineSet
565.934570312 519.327148438 m 5x20
 463.8203125 -15.5 l 1
 386.200195312 -0.2001953125 l 1
 399.48828125 71.2685546875 l 1
 314.946289062 3.560546875 l 1
 212.860351562 -20.5166015625 l 1
 78.6318359375 42.2060546875 l 1
 75.0185546875 199.79296875 l 1
 139.420898438 535.5 l 1
 225.982421875 520.2421875 l 1
 165.65234375 203.875976562 l 1
 164.59765625 96.0078125 l 1
 236.08203125 56.9794921875 l 1
 351.86328125 103.15234375 l 1
 421.7734375 236.54296875 l 1
 479.120117188 535.5 l 5
 565.934570312 519.327148438 l 5x20
EndSplineSet
Validated: 1
EndChar
StartChar: v
Encoding: 85 118 84
Width: 495
Flags: HMW
HStem: 0 21G<198 280 198 198> 500 20G<100 192 192 192 485 575 575 575>
LayerCount: 2
Back
Fore
SplineSet
271 -15 m 1
 193 25 l 5
 100 520 l 1
 190 535 l 1
 257 104 l 1
 493 535 l 1
 562 497 l 1
 271 -15 l 1
EndSplineSet
Validated: 1
EndChar
StartChar: w
Encoding: 86 119 85
Width: 731
Flags: HMW
HStem: 0 21G<154 247 154 154 455 455 455 546> 500 20G<96 187 187 187 407 498 498 498 722 807 807 807>
VStem: 442 70
LayerCount: 2
Back
Fore
SplineSet
240 -15 m 1
 151 25 l 5
 95 526 l 1
 186 535 l 1
 221 108 l 1
 414 535 l 1
 499 500 l 1
 526 119 l 1
 729 535 l 1
 799 504 l 1
 538 -15 l 1
 453 26 l 1
 430 399 l 1
 240 -15 l 1
EndSplineSet
Validated: 1
EndChar
StartChar: x
Encoding: 87 120 86
Width: 507
Flags: HMW
HStem: 0 21G<10 114 10 10 381 381 381 482> 500 20G<121 224 224 224 465 567 567 567>
LayerCount: 2
Back
Fore
SplineSet
101 -15 m 1
 42 36 l 1
 245 266 l 1
 132 498 l 1
 217 535 l 1
 308 332 l 1
 478 535 l 1
 538 488 l 1
 343 269 l 1
 469 24 l 5
 388 -15 l 1
 284 200 l 1
 101 -15 l 1
EndSplineSet
Validated: 1
EndChar
StartChar: y
Encoding: 88 121 87
Width: 507
Flags: HMW
HStem: -210 79<56.5 82.5 55.5 107.5> 500 20G<107 200 200 200 499 587 587 587>
LayerCount: 2
Back
SplineSet
0 -200 m 5
 5 -122 l 5
 21 -128 48 -131 63 -131 c 4
 102 -131 143 -110 174 -58 c 6
 210 5 l 5
 107 517 l 5
 197 535 l 5
 274 115 l 5
 507 535 l 5
 576 500 l 5
 263 -56 l 6
 211.346469739 -147.755152796 150 -210 65 -210 c 4
 48 -210 17 -207 0 -200 c 5
EndSplineSet
Fore
SplineSet
-2.650390625 -126.807617188 m 1
 58.5078125 -137.012695312 l 1
 118.252929688 -119.670898438 l 1
 171.810546875 -62.5859375 l 1
 209.557617188 4.7275390625 l 1
 106.490234375 520.090820312 l 1
 197.290039062 535.451171875 l 1
 273.970703125 114.009765625 l 1
 507.490234375 535.451171875 l 1
 574.870117188 498.750976562 l 5
 260.657226562 -60.458984375 l 1
 173.936523438 -173.846679688 l 1
 60.71875 -217.5703125 l 1
 -16.8701171875 -205.208984375 l 1
 -2.650390625 -126.807617188 l 1
EndSplineSet
Validated: 1
EndChar
StartChar: z
Encoding: 89 122 88
Width: 482
Flags: HMW
HStem: 0 75<44 44 145 419 30 44> 445 75<148 402 134 522 508 508>
LayerCount: 2
Back
Fore
SplineSet
419 0 m 1
 116 0 l 5
 44 75 l 1
 402 445 l 1
 134 445 l 1
 134 520 l 1
 440 520 l 1
 508 445 l 1
 145 75 l 1
 419 75 l 1
 419 0 l 1
EndSplineSet
Validated: 1
EndChar
StartChar: braceleft
Encoding: 90 123 171
Width: 319
Flags: HMW
HStem: -110 69<154 271> 755 69<360 389 389 404 336 425>
LayerCount: 2
Back
SplineSet
437 814 m 5
 425 755 l 5
 389 755 l 6
 331 755 316 703 306 650 c 6
 268 457 l 6
 256 394 211 370 179 357 c 5
 206 344 242 320 229 257 c 6
 192 64 l 6
 182 11 177 -41 235 -41 c 6
 271 -41 l 5
 259 -100 l 5
 247 -105 234 -110 210 -110 c 4
 98 -110 83 -34 103 72 c 6
 136 237 l 6
 149 304 118 327 83 327 c 5
 95 387 l 5
 130 387 169 410 182 477 c 6
 214 642 l 6
 235 748 280 824 392 824 c 4
 416 824 427 819 437 814 c 5
EndSplineSet
Fore
SplineSet
436 762 m 1
 391.171875 762.595703125 l 1
 330.48046875 729.307617188 l 1
 306.53515625 655.501953125 l 1
 267.83203125 458.580078125 l 1
 229.96875 388.482421875 l 1
 176.985351562 356.58984375 l 1
 217.814453125 324.705078125 l 1
 228.021484375 254.598632812 l 1
 190.423828125 57.6845703125 l 1
 186.30859375 -16.1455078125 l 1
 234.31640625 -49.408203125 l 1
 276 -50 l 5
 288.66015625 -97.9130859375 l 1
 208.798828125 -119.836914062 l 1
 103.768554688 -67.5322265625 l 1
 99.66015625 65.8583984375 l 1
 133.345703125 234.196289062 l 1
 124.60546875 305.7734375 l 1
 79.2451171875 326.065429688 l 1
 60.1796875 376.3671875 l 1
 144.34765625 407.584960938 l 1
 180.296875 479.09375 l 1
 212.961914062 647.431640625 l 1
 268.963867188 780.821289062 l 1
 394.569335938 833.118164062 l 1
 449.8203125 819.067382812 l 1
 436 762 l 1
EndSplineSet
Validated: 1
EndChar
StartChar: bar
Encoding: 91 124 147
Width: 255
Flags: MW
HStem: -100 21G<140 235 140 140> 800 20G<140 235 235 235>
VStem: 140 95<-100 820>
LayerCount: 2
Back
Fore
SplineSet
235 -100 m 1
 140 -100 l 1
 140 820 l 1
 235 820 l 1
 235 -100 l 1
EndSplineSet
Validated: 1
EndChar
StartChar: braceright
Encoding: 92 125 170
Width: 319
Flags: HMW
HStem: -110 69<53 68 68 97 32 121> 755 69<186 303 186 303>
LayerCount: 2
Back
SplineSet
186 755 m 5
 198 814 l 5
 210 819 223 824 247 824 c 4
 359 824 374 748 353 642 c 6
 321 477 l 6
 308 410 339 387 374 387 c 5
 362 327 l 5
 327 327 288 304 275 237 c 6
 242 72 l 6
 222 -34 177 -110 65 -110 c 4
 41 -110 30 -105 20 -100 c 5
 32 -41 l 5
 68 -41 l 6
 126 -41 141 11 151 64 c 6
 188 257 l 6
 201 320 245 344 278 357 c 5
 250 370 215 394 227 457 c 6
 265 650 l 6
 275 703 280 755 222 755 c 6
 186 755 l 5
EndSplineSet
Fore
SplineSet
167.389648438 810.901367188 m 1
 247.958984375 833.41015625 l 1
 352.893554688 781.138671875 l 1
 356.075195312 647.723632812 l 1
 323.49609375 479.385742188 l 1
 332.129882812 407.876953125 l 1
 377.509765625 387.6015625 l 1
 393.830078125 337.62109375 l 1
 312.439453125 306.065429688 l 1
 276.458007812 234.48828125 l 1
 242.7734375 66.150390625 l 1
 187.801757812 -67.240234375 l 1
 62.271484375 -119.544921875 l 1
 3.169921875 -104.0390625 l 1
 19 -49 l 5
 65.416015625 -49.1162109375 l 1
 126.0859375 -15.828125 l 1
 150.137695312 57.9765625 l 1
 187.821289062 254.890625 l 1
 226.087890625 324.997070312 l 1
 279.602539062 356.881835938 l 1
 238.336914062 388.774414062 l 1
 227.629882812 458.872070312 l 1
 266.418945312 655.793945312 l 1
 270.466796875 729.599609375 l 1
 222.5234375 762.887695312 l 1
 167.389648438 810.901367188 l 1
EndSplineSet
Validated: 1
EndChar
StartChar: asciitilde
Encoding: 93 126 181
Width: 526
Flags: HMW
HStem: 270 90<395.5 437> 360 90<228 268.5>
LayerCount: 2
Back
SplineSet
86 290 m 5x80
 105 390 l 5
 151 430 204 450 252 450 c 4
 341 450 361 360 430 360 c 4
 488 360 533 390 579 430 c 5
 560 330 l 5
 514 290 461 270 413 270 c 4
 324 270 303 360 234 360 c 4x40
 176 360 132 330 86 290 c 5x80
EndSplineSet
Fore
SplineSet
103 391 m 1x00
 174.83984375 436.524414062 l 1
 250.62890625 451.833984375 l 1
 349.057617188 405.94140625 l 1
 432.23828125 360.048828125 l 1
 512.771484375 380.426757812 l 1
 524.4453125 387.221679688 l 1
 562 331 l 5
 490.495117188 283.497070312 l 1
 414.629882812 268.1875 l 1
 315.830078125 314.123046875 l 1
 232.0859375 360.048828125 l 1
 152.032226562 339.637695312 l 1
 144 334 l 1
 103 391 l 1x00
EndSplineSet
Validated: 1
EndChar
StartChar: exclamdown
Encoding: 94 161 288
Width: 239
Flags: HMW
HStem: -200 21G<31 130 31 31> 420 100<175 246 155 266>
LayerCount: 2
Back
SplineSet
143.76953125 445.434570312 m 5
 153.892578125 495.060546875 l 5
 196.318359375 530.080078125 l 5
 246.193359375 529.975585938 l 5
 274.30078125 494.809570312 l 5
 264.178710938 445.182617188 l 5
 221.754882812 410.165039062 l 5
 171.879882812 410.268554688 l 5
 143.76953125 445.434570312 l 5
159 351 m 1
 213 342 l 1
 128 -210 l 1
 33 -192 l 1
 159 351 l 1
EndSplineSet
Fore
SplineSet
148.819335938 450.458984375 m 5
 157.930664062 500.084960938 l 5
 195.11328125 531.104492188 l 5
 238 524 l 5
 263.1171875 483.81640625 l 5
 254.006835938 434.189453125 l 5
 216.006835938 404.189453125 l 5
 173.119140625 411.29296875 l 5
 148.819335938 450.458984375 l 5
159 351 m 1
 213 342 l 1
 128 -210 l 1
 33 -192 l 1
 159 351 l 1
EndSplineSet
Validated: 1
EndChar
StartChar: cent
Encoding: 95 162 287
Width: 513
Flags: HMW
HStem: -115 21G<193 193 193 268> 615 20G<339 414 414 414>
LayerCount: 2
Back
SplineSet
193 -115 m 5
 213 -12 l 5
 95 6 38 105 68 260 c 4
 99 415 194 515 319 532 c 5
 339 635 l 5
 414 635 l 5
 394 532 l 5
 488 521 553 463 541 357 c 5
 456 357 l 5
 462 424 426 450 379 457 c 5
 303 64 l 5
 350 76 391 111 419 177 c 5
 502 157 l 5
 458 59 383 -1 288 -13 c 5
 268 -115 l 5
 193 -115 l 5
158 260 m 4
 136 143 171 83 228 65 c 5
 304 454 l 5
 239 437 181 377 158 260 c 4
EndSplineSet
Fore
SplineSet
212.178710938 -17.5107421875 m 1
 81.6083984375 68.8232421875 l 1
 64.3408203125 259.970703125 l 1
 156.411132812 451.525390625 l 1
 320.37890625 537.442382812 l 1
 338.793945312 635.494140625 l 1
 411 623 l 1
 394.849609375 537.442382812 l 1
 512.353515625 484.499023438 l 1
 540.669921875 380.362304688 l 1
 460.05078125 358.890625 l 1
 441.114257812 432.857421875 l 1
 379.5390625 460.880859375 l 1
 301.961914062 59.986328125 l 1
 370.448242188 96.94921875 l 1
 422.453125 175.245117188 l 1
 490.689453125 132.501953125 l 1
 417.403320312 35.2197265625 l 1
 286.8203125 -18.6162109375 l 1
 267.405273438 -114.732421875 l 1
 196.104492188 -100.732421875 l 5
 212.178710938 -17.5107421875 l 1
227.491210938 61.0927734375 m 1
 304.897460938 457.904296875 l 1
 214.422851562 397.212890625 l 1
 156.038085938 259.970703125 l 1
 161.591796875 122.6328125 l 1
 227.491210938 61.0927734375 l 1
EndSplineSet
Validated: 1
EndChar
StartChar: currency
Encoding: 96 164 192
Width: 556
Flags: HMW
HStem: 137 21G<135 135 475 475> 175 75<299.5 331.5> 470 75<365 397.5> 564 20G<222 222 562 562>
LayerCount: 2
Back
SplineSet
475 137 m 5
 420 206 l 5
 387 186 350 175 313 175 c 4
 275 175 242 186 217 206 c 5
 135 137 l 5
 92 190 l 5
 177 262 l 5
 167 289 165 322 172 360 c 4
 180 398 195 431 216 458 c 5
 159 531 l 5
 222 584 l 5
 277 514 l 5
 309 534 346 545 384 545 c 4
 421 545 454 534 479 514 c 5
 562 584 l 5
 605 531 l 5
 519 458 l 5
 529 431 532 398 524 360 c 4
 517 322 502 289 481 262 c 5
 538 190 l 5
 475 137 l 5
249 360 m 4
 235 286 272 250 327 250 c 4
 382 250 433 286 447 360 c 4
 462 434 425 470 370 470 c 4
 319 470 264 434 249 360 c 4
EndSplineSet
Fore
SplineSet
420.065429688 205.965820312 m 5
 368.037109375 182.953125 l 5
 313.069335938 174.948242188 l 5
 260.176757812 182.953125 l 5
 217.166015625 205.965820312 l 5
 135.189453125 136.91796875 l 5
 92.07421875 189.95703125 l 5
 177.219726562 261.931640625 l 5
 168.328125 306.840820312 l 5
 172.129882812 359.99609375 l 5
 189.288085938 413.118164062 l 5
 216.080078125 457.986328125 l 5
 158.954101562 530.9609375 l 5
 222.083984375 584 l 5
 276.95703125 513.943359375 l 5
 328.297851562 536.96484375 l 5
 383.953125 544.969726562 l 5
 436.000976562 536.96484375 l 5
 479.10546875 513.943359375 l 5
 562 584 l 5
 605.114257812 530.9609375 l 5
 519.135742188 457.986328125 l 5
 528.444335938 413.09375 l 5
 524.30859375 359.99609375 l 5
 508.004882812 306.840820312 l 5
 481.193359375 261.931640625 l 5
 538.318359375 189.95703125 l 5
 475.188476562 136.91796875 l 5
 420.065429688 205.965820312 l 5
327.080078125 250 m 5
 402.458007812 277.256835938 l 5
 447.000976562 359.99609375 l 5
 434.7734375 442.735351562 l 5
 369.944335938 470.000976562 l 5
 295.962890625 442.735351562 l 5
 248.939453125 359.99609375 l 5
 262.177734375 277.256835938 l 5
 327.080078125 250 l 5
EndSplineSet
Validated: 1
EndChar
StartChar: yen
Encoding: 97 165 286
Width: 675
Flags: HMW
HStem: 0 183<290 325 175 385 290 290> 108 75<175 310 160 325 420 555> 238 75<200 336 186 343 451 581> 700 20G<149 264 264 264 694 804 804 804>
LayerCount: 2
Back
Fore
SplineSet
382 -15 m 1x70
 290 0 l 1
 310 108 l 1xb0
 160 108 l 1
 160 183 l 1
 325 183 l 1
 336 238 l 1
 186 238 l 1
 186 313 l 1
 343 313 l 1
 161 694 l 1
 257 736 l 1
 416 383 l 1
 707 735 l 1
 773 684 l 1
 451 313 l 1
 581 313 l 5
 581 238 l 1
 431 238 l 1
 420 183 l 1
 555 183 l 1
 555 108 l 1
 405 108 l 1
 382 -15 l 1x70
EndSplineSet
Validated: 1
EndChar
StartChar: brokenbar
Encoding: 98 166 148
Width: 255
Flags: MW
HStem: -100 21G<140 235 140 140> 800 20G<140 235 235 235>
VStem: 140 95<-100 325 410 820>
LayerCount: 2
Back
Fore
SplineSet
235 -100 m 1
 140 -100 l 1
 140 325 l 1
 235 325 l 1
 235 -100 l 1
140 410 m 1
 140 820 l 1
 235 820 l 1
 235 410 l 1
 140 410 l 1
EndSplineSet
Validated: 1
EndChar
StartChar: section
Encoding: 99 167 191
Width: 493
Flags: HMW
HStem: -15 75<219 287.5 219 297> 660 75<329.5 400.5>
LayerCount: 2
Back
SplineSet
64 150 m 5
 153 163 l 5
 150 108 176 60 262 60 c 4
 313 60 382 75 393 133 c 4
 401 170 385 181 334 195 c 6
 214 229 l 6
 149 248 96 290 113 376 c 4
 122 423 161 462 192 477 c 5
 159 496 143 534 152 581 c 4
 174 690 276 735 383 735 c 4
 507 735 561 674 551 585 c 5
 463 573 l 5
 466 630 434 660 367 660 c 4
 292 660 249 633 240 591 c 4
 234 556 264 545 294 536 c 6
 426 495 l 6
 495 474 542 434 525 347 c 4
 517 304 484 263 457 247 c 5
 481 228 495 191 485 143 c 4
 463 28 349 -15 245 -15 c 4
 118 -15 51 45 64 150 c 5
201 386 m 4
 194 351 221 324 251 316 c 4
 385 277 388 276 390 276 c 4
 410 287 427 305 432 330 c 4
 439 370 427 401 377 415 c 6
 263 447 l 5
 227 436 206 414 201 386 c 4
EndSplineSet
Fore
SplineSet
149.708007812 158.916992188 m 1
 171.239257812 85.3408203125 l 1
 260.969726562 53.8642578125 l 1
 343.032226562 68.9091796875 l 1
 394.602539062 128.290039062 l 1
 387.006835938 172.739257812 l 5
 334.375 195.575195312 l 5
 211.970703125 230.284179688 l 5
 129.140625 275.620117188 l 1
 108.958984375 376.250976562 l 1
 140.784179688 440.038085938 l 1
 189.512695312 479.26171875 l 1
 153.032226562 521.625 l 1
 148.771484375 585.419921875 l 1
 234.12109375 705.662109375 l 1
 384.479492188 742.530273438 l 1
 521.440429688 700.083007812 l 1
 550.780273438 604.802734375 l 1
 466.053710938 577.254882812 l 1
 443.862304688 643.430664062 l 1
 368.147460938 665.969726562 l 1
 278.194335938 646.833984375 l 1
 238.767578125 595.541015625 l 1
 252.495117188 554.583984375 l 1
 293.716796875 536.400390625 l 1
 428.37109375 494.546875 l 1
 511.786132812 447.350585938 l 1
 529.42578125 346.560546875 l 1
 501.940429688 285.231445312 l 1
 460.099609375 244.569335938 l 1
 487.331054688 202.588867188 l 1
 488.59765625 138.411132812 l 1
 397.548828125 13.83203125 l 1
 243.788085938 -22.78125 l 1
 97.9267578125 21.197265625 l 1
 63.2197265625 133.5625 l 1
 149.708007812 158.916992188 l 1
249.741210938 315.006835938 m 1
 371.071289062 279.66015625 l 1
 391.5390625 274.217773438 l 1
 418.654296875 296.415039062 l 1
 434.412109375 329.337890625 l 1
 428.092773438 382.62890625 l 1
 378.267578125 416.010742188 l 1
 261.986328125 448.677734375 l 1
 218.499023438 424.065429688 l 1
 198.870117188 386.499023438 l 1
 210.044921875 340.376953125 l 1
 249.741210938 315.006835938 l 1
EndSplineSet
Validated: 1
EndChar
StartChar: dieresis
Encoding: 100 168 346
Width: 409
Flags: W
HStem: 522.373 126.915
VStem: 66.7061 282.294
LayerCount: 2
Back
Fore
SplineSet
234.702148438 568.642578125 m 5
 243.813476562 618.268554688 l 5
 280.99609375 649.288085938 l 5
 323.8828125 642.18359375 l 5
 349 602 l 5
 339.889648438 552.373046875 l 5
 301.889648438 522.373046875 l 5
 259.001953125 529.4765625 l 5
 234.702148438 568.642578125 l 5
66.7060546875 566.642578125 m 1
 75.8173828125 616.268554688 l 1
 113 647.288085938 l 1
 155.88671875 640.18359375 l 1
 181.00390625 600 l 1
 171.893554688 550.373046875 l 1
 133.893554688 520.373046875 l 1
 91.005859375 527.4765625 l 1
 66.7060546875 566.642578125 l 1
EndSplineSet
Validated: 1
EndChar
StartChar: copyright
Encoding: 101 169 176
Width: 590
Flags: HMW
HStem: -15 70<285.5 404.5 285.5 421> 107 66<323.5 361 323.5 379> 346 66<323.5 360.5> 465 70<285.5 404.5>
VStem: 85 76<203.5 316.5 203.5 341> 212 66<234.5 285 234.5 300.5> 529 76<203.5 316.5>
LayerCount: 2
Back
SplineSet
85 260 m 4
 85 422 193 535 345 535 c 4
 497 535 605 422 605 260 c 4
 605 98 497 -15 345 -15 c 4
 193 -15 85 98 85 260 c 4
161 260 m 4
 161 147 226 55 345 55 c 4
 464 55 529 147 529 260 c 4
 529 373 464 465 345 465 c 4
 226 465 161 373 161 260 c 4
278 260 m 4
 278 209 302 173 345 173 c 4
 377 173 398 193 406 224 c 5
 471 211 l 5
 456 142 413 107 345 107 c 4
 259 107 212 179 212 260 c 4
 212 341 259 412 345 412 c 4
 413 412 456 377 471 309 c 5
 406 296 l 5
 397 326 376 346 345 346 c 4
 302 346 278 310 278 260 c 4
EndSplineSet
Fore
SplineSet
344.9765625 540.252929688 m 5
 535.740234375 461.965820312 l 5
 610.201171875 259.71875 l 5
 535.740234375 57.4638671875 l 5
 344.9765625 -20.8232421875 l 5
 154.213867188 57.4638671875 l 5
 79.7529296875 259.71875 l 5
 154.213867188 461.965820312 l 5
 344.9765625 540.252929688 l 5
344.9765625 50.5498046875 m 5
 484.362304688 111.895507812 l 5
 532.709960938 259.633789062 l 5
 484.362304688 407.431640625 l 5
 344.9765625 468.794921875 l 5
 205.591796875 407.431640625 l 5
 157.244140625 259.633789062 l 5
 205.591796875 111.895507812 l 5
 344.9765625 50.5498046875 l 5
344.9765625 170.911132812 m 5
 385.275390625 185.071289062 l 5
 407.072265625 222.969726562 l 5
 463.3203125 192.685546875 l 5
 429.358398438 130.20703125 l 5
 344.806640625 103.543945312 l 5
 244.08203125 150.609375 l 5
 209.131835938 259.633789062 l 5
 244.018554688 368.165039062 l 5
 344.806640625 414.6953125 l 5
 429.294921875 388.16796875 l 5
 463.3203125 327.326171875 l 5
 407.072265625 296.375 l 5
 384.508789062 333.345703125 l 5
 344.9765625 347.413085938 l 5
 294.322265625 322.655273438 l 5
 276.586914062 259.633789062 l 5
 294.322265625 195.813476562 l 5
 344.9765625 170.911132812 l 5
EndSplineSet
Validated: 1
EndChar
StartChar: guillemotleft
Encoding: 102 171 162
Width: 411
Flags: HMW
HStem: 94 21G<173 249 173 173 313 389 313 313> 412 20G<238 314 314 314 378 454 454 454>
LayerCount: 2
Back
Fore
SplineSet
231 263 m 1
 408 466 l 1
 454 432 l 1
 328 263 l 1
 389 94 l 1
 328 64 l 5
 231 263 l 1
91 263 m 1
 268 466 l 1
 314 432 l 1
 188 263 l 1
 249 94 l 1
 188 64 l 5
 91 263 l 1
EndSplineSet
Validated: 1
EndChar
StartChar: registered
Encoding: 103 174 177
Width: 590
Flags: HMW
HStem: -15 70<285.5 404.5 285.5 421> 123 160<242 337 242 337 305 406 305 477> 357 54<305 305 305 336> 465 70<285.5 404.5>
VStem: 85 76<203.5 316.5 203.5 341> 242 63<123 229 123 283 283 357> 385 64<310 336> 529 76<203.5 316.5>
LayerCount: 2
Back
SplineSet
85 260 m 4
 85 422 193 535 345 535 c 4
 497 535 605 422 605 260 c 4
 605 98 497 -15 345 -15 c 4
 193 -15 85 98 85 260 c 4
242 123 m 5
 242 411 l 5
 338 411 l 6
 396 411 449 393 449 327 c 4
 449 283 421 257 383 249 c 5
 414 241 429 215 442 190 c 6
 477 123 l 5
 406 123 l 5
 383 171 l 6
 363 212 349 229 312 229 c 6
 305 229 l 5
 305 123 l 5
 242 123 l 5
305 357 m 5
 305 283 l 5
 337 283 l 6
 372 283 385 298 385 322 c 4
 385 350 364 357 336 357 c 6
 305 357 l 5
161 260 m 4
 161 147 226 55 345 55 c 4
 464 55 529 147 529 260 c 4
 529 373 464 465 345 465 c 4
 226 465 161 373 161 260 c 4
EndSplineSet
Fore
SplineSet
344.977539062 534.751953125 m 1
 532 458 l 1
 605.001953125 259.71875 l 1
 532 61.4296875 l 1
 344.977539062 -15.322265625 l 1
 157.954101562 61.4296875 l 1
 84.953125 259.71875 l 1
 157.923828125 458 l 1
 344.977539062 534.751953125 l 1
344.977539062 54.6513671875 m 1
 481.62890625 114.793945312 l 1
 529.029296875 259.635742188 l 1
 481.62890625 404.53515625 l 1
 344.977539062 464.6953125 l 1
 208.325195312 404.53515625 l 1
 160.924804688 259.635742188 l 1
 208.325195312 114.793945312 l 1
 344.977539062 54.6513671875 l 1
405 261 m 1
 465 145 l 5
 408 118 l 1
 352 237 l 1
 311.786132812 228.692382812 l 2
 304.782226562 228.692382812 l 1
 304.782226562 122.698242188 l 1
 241.735351562 122.698242188 l 1
 241.90234375 410.739257812 l 1
 241.90234375 410.739257812 l 1
 337.8046875 410.739257812 l 1
 415.0390625 393.487304688 l 1
 448.803710938 326.765625 l 1
 430.05078125 274.251953125 l 1
 405 261 l 1
304.948242188 282.732421875 m 1
 336.971679688 282.732421875 l 1
 374.08203125 293.23828125 l 1
 384.922851562 321.762695312 l 1
 370.912109375 349.779296875 l 1
 335.887695312 356.783203125 l 1
 304.948242188 356.783203125 l 1
 304.948242188 282.732421875 l 1
EndSplineSet
Validated: 5
EndChar
StartChar: degree
Encoding: 104 176 175
Width: 360
Flags: HMW
HStem: 475 62<271.5 309 271.5 326> 672 63<271.5 309>
VStem: 160 62<586 623.5 586 640.5> 357 63<586 623.5>
LayerCount: 2
Back
SplineSet
160 605 m 4
 160 676 219 735 290 735 c 4
 362 735 420 676 420 605 c 4
 420 533 362 475 290 475 c 4
 219 475 160 533 160 605 c 4
222 605 m 4
 222 567 253 537 290 537 c 4
 328 537 357 567 357 605 c 4
 357 642 328 672 290 672 c 4
 253 672 222 642 222 605 c 4
EndSplineSet
Fore
SplineSet
289.904296875 736.016601562 m 5
 381.940429688 697.619140625 l 5
 420 606 l 5
 382.002929688 514.005859375 l 5
 289.904296875 475.9921875 l 5
 198.211914062 514.005859375 l 5
 159.80859375 606 l 5
 198.274414062 697.619140625 l 5
 289.904296875 736.016601562 l 5
289.904296875 537.953125 m 5
 337.658203125 557.706054688 l 5
 356.953125 605.916992188 l 5
 337.658203125 653.327148438 l 5
 289.904296875 672.963867188 l 5
 242.06640625 653.327148438 l 5
 221.9375 605.916992188 l 5
 242.00390625 557.706054688 l 5
 289.904296875 537.953125 l 5
EndSplineSet
Validated: 1
EndChar
StartChar: plusminus
Encoding: 105 177 180
Width: 556
Flags: MW
HStem: 115 75<86 528 72 542> 254 236<289 335 145 364 289 289> 415 75<145 320 130 335 410 586 145 395> 660 20G<372 447 447 447>
LayerCount: 2
Back
Fore
SplineSet
395 415 m 1xb0
 364 254 l 1
 289 254 l 1
 320 415 l 1
 130 415 l 1
 145 490 l 1
 335 490 l 1
 372 680 l 1
 447 680 l 1
 410 490 l 1
 601 490 l 1
 586 415 l 1
 395 415 l 1xb0
528 115 m 1
 72 115 l 1
 86 190 l 1
 542 190 l 1xd0
 528 115 l 1
EndSplineSet
Validated: 1
EndChar
StartChar: acute
Encoding: 106 180 345
Width: 284
Flags: W
LayerCount: 2
Back
Fore
SplineSet
135.240234375 773.171875 m 5
 46.3798828125 560 l 5
 96.3798828125 532 l 5
 225 726.159179688 l 5
 135.240234375 773.171875 l 5
EndSplineSet
Validated: 9
EndChar
StartChar: paragraph
Encoding: 107 182 187
Width: 556
Flags: HMW
HStem: -100 21G<191 271 191 191 360 360 360 443> 735 85<433 522 433 433 605 686 605 605>
LayerCount: 2
Back
SplineSet
271 -100 m 5
 191 -100 l 5
 291 416 l 5
 175 419 109 498 132 614 c 4
 159 753 269 820 403 820 c 6
 703 820 l 5
 686 735 l 5
 605 735 l 5
 443 -100 l 5
 360 -100 l 5
 522 735 l 5
 433 735 l 5
 271 -100 l 5
EndSplineSet
Fore
SplineSet
190.874023438 -100.169921875 m 5
 224.176774537 71.8450353589 257.479188318 243.860329911 290.78125 415.875976562 c 5
 159.111328125 472.5 l 5
 131.831054688 613.931640625 l 5
 227.223632812 769.095703125 l 5
 402.86328125 820 l 5
 502.908854167 820 602.954427083 820 703 820 c 5
 697.328667088 791.648220932 691.658083472 763.29569257 685.98828125 734.942382812 c 5
 658.968424479 734.942382812 631.948567708 734.942382813 604.928710938 734.942382812 c 5
 550.944154877 456.572121165 496.960098111 178.201360222 442.9765625 -100.169921875 c 5
 415.289388021 -100.169921875 387.602213542 -100.169921875 359.915039062 -100.169921875 c 5
 413.926576752 178.201352936 467.938613736 456.572128452 521.951171875 734.942382812 c 5
 492.290364583 734.942382812 462.629557292 734.942382812 432.96875 734.942382812 c 5
 378.984193939 456.572121165 325.000137173 178.201360222 271.016601562 -100.169921875 c 5
 244.302408854 -100.169921875 217.588216146 -100.169921875 190.874023438 -100.169921875 c 5
EndSplineSet
Validated: 1
EndChar
StartChar: periodcentered
Encoding: 108 183 137
Width: 231
Flags: HMW
HStem: 212 100<130 202 111 221>
LayerCount: 2
Back
SplineSet
202 212 m 5
 111 212 l 5
 130 312 l 5
 221 312 l 5
 202 212 l 5
EndSplineSet
Fore
SplineSet
116.407226562 241.548828125 m 5
 124.076171875 282.904296875 l 5
 156.215820312 312.086914062 l 5
 194 312 l 5
 215.293945312 282.6953125 l 5
 207.625976562 241.338867188 l 5
 175.486328125 212.158203125 l 5
 137.702148438 212.244140625 l 5
 116.407226562 241.548828125 l 5
EndSplineSet
Validated: 1
EndChar
StartChar: guillemotright
Encoding: 109 187 161
Width: 411
Flags: MW
HStem: 94 21G<58 134 58 58 198 198 198 274> 412 20G<123 199 199 199 263 339 339 339>
LayerCount: 2
Back
Fore
SplineSet
199 432 m 1
 282 263 l 1
 134 94 l 1
 58 94 l 1
 185 263 l 1
 123 432 l 1
 199 432 l 1
339 432 m 1
 422 263 l 1
 274 94 l 1
 198 94 l 1
 325 263 l 1
 263 432 l 1
 339 432 l 1
EndSplineSet
Validated: 1
EndChar
StartChar: questiondown
Encoding: 110 191 285
Width: 556
Flags: HMW
HStem: -215 80<215 286 215 297> 420 100<326 406 306 426>
LayerCount: 2
Back
SplineSet
301 344 m 5
 386 344 l 5
 381 317 l 6
 365 236 329 177 254 132 c 4
 204 102 154 54 142 -7 c 4
 124 -101 179 -135 251 -135 c 4
 321 -135 384 -91 413 6 c 5
 497 -4 l 5
 459 -136 357 -215 237 -215 c 4
 99 -215 22 -136 46 -13 c 4
 65 85 139 136 210 187 c 4
 266 227 283 260 296 317 c 6
 301 344 l 5
326 520 m 5
 426 520 l 5
 406 420 l 5
 306 420 l 5
 326 520 l 5
EndSplineSet
Fore
SplineSet
311.659179688 449.548828125 m 1
 320.094726562 490.904296875 l 1
 355.44921875 520.086914062 l 1
 397.01171875 520 l 1
 420.434570312 490.6953125 l 1
 412 449.338867188 l 1
 376.646484375 420.158203125 l 1
 335.083984375 420.244140625 l 1
 311.659179688 449.548828125 l 1
380.8984375 316.923828125 m 1
 339.565429688 210.913085938 l 1
 253.887695312 131.8671875 l 1
 183.659179688 73.92578125 l 1
 141.888671875 -7.154296875 l 1
 162.633789062 -106.40234375 l 1
 251.052734375 -135.161132812 l 1
 347.404296875 -101.016601562 l 1
 412.921875 5.861328125 l 1
 479 -32 l 5
 397.69140625 -159.182617188 l 1
 237.041992188 -215.21484375 l 1
 80.75 -160.341796875 l 1
 45.9853515625 -13.1494140625 l 1
 108.458007812 104.4765625 l 1
 210.022460938 186.83203125 l 1
 269.180664062 245.465820312 l 1
 296.001953125 316.848632812 l 1
 301.08984375 343.864257812 l 1
 384 331 l 1
 380.8984375 316.923828125 l 1
EndSplineSet
Validated: 1
EndChar
StartChar: Agrave
Encoding: 111 192 284
Width: 675
Flags: HMW
HStem: 0 21G<10 107 10 10 562 665 562 562> 175 85<254 515 254 530 206 515> 700 20G<428 525 525 525> 803 187<483 492 380 548 483 483>
LayerCount: 2
Back
SplineSet
428 720 m 5
 525 720 l 5
 665 0 l 5
 562 0 l 5
 530 175 l 5
 206 175 l 5
 107 0 l 5
 10 0 l 5
 428 720 l 5
455 611 m 5
 254 260 l 5
 515 260 l 5
 455 611 l 5
492 990 m 5
 548 803 l 5
 483 803 l 5
 380 990 l 5
 492 990 l 5
EndSplineSet
Fore
SplineSet
454 927.5 m 5
 511 790 l 5
 461 762 l 5
 380 884 l 5
 454 927.5 l 5
EndSplineSet
Refer: 89 65 N 1 0 0 1 0 0 3
Validated: 1
EndChar
StartChar: Aacute
Encoding: 112 193 283
Width: 675
Flags: HMW
HStem: 0 21G<10 107 10 10 562 665 562 562> 175 85<254 515 254 530 206 515> 700 20G<428 525 525 525> 970 20G<540 658 658 658>
LayerCount: 2
Back
SplineSet
428 720 m 5
 525 720 l 5
 665 0 l 5
 562 0 l 5
 530 175 l 5
 206 175 l 5
 107 0 l 5
 10 0 l 5
 428 720 l 5
455 611 m 5
 254 260 l 5
 515 260 l 5
 455 611 l 5
658 990 m 5
 484 803 l 5
 413 803 l 5
 540 990 l 5
 658 990 l 5
EndSplineSet
Fore
SplineSet
522 927.5 m 5
 465 790 l 5
 515 762 l 5
 596 884 l 5
 522 927.5 l 5
EndSplineSet
Refer: 89 65 N 1 0 0 1 0 0 3
Validated: 9
EndChar
StartChar: Atilde
Encoding: 114 195 281
Width: 675
Flags: HMW
HStem: 0 21G<10 107 10 10 562 665 562 562> 175 85<254 515 254 530 206 515> 700 20G<428 525 525 525> 810 81<622.5 635> 860 81<496 509.5>
LayerCount: 2
Back
SplineSet
524.916992188 719.998046875 m 5
 571.589509551 479.962230905 618.262677124 239.927065145 664.936523438 -0.107421875 c 5
 630.605794271 -0.107421875 596.275065104 -0.107421875 561.944335938 -0.107421875 c 5
 551.269308326 58.2393604092 540.594821335 116.586683314 529.920898438 174.934570312 c 5
 421.897135417 174.934570313 313.873372396 174.934570312 205.849609375 174.934570312 c 5
 172.826802423 116.585957994 139.802732428 58.2386087174 106.77734375 -0.107421875 c 5
 74.4479166667 -0.107421875 42.1184895833 -0.107421875 9.7890625 -0.107421875 c 5
 149.142764634 239.926245783 288.494999551 479.961380657 427.845703125 719.998046875 c 5
 460.202799479 719.998046875 492.559895833 719.998046875 524.916992188 719.998046875 c 5
253.801757812 259.916992188 m 5
 340.837890625 259.916992187 427.874023437 259.916992188 514.91015625 259.916992188 c 5
 494.895149203 376.94495389 474.880495601 493.973269039 454.866210938 611.001953125 c 5
 387.844542091 493.973817284 320.823055064 376.945499624 253.801757812 259.916992188 c 5
397.82421875 901.051757812 m 5
 455.731445312 932.278320312 l 5
 509.823242188 941 l 5
 582.16796875 915.977539062 l 5
 647.006835938 890.962890625 l 5
 692.624023438 900.96875 l 5
 751 941 l 5
 745.329608144 910.671042897 739.658716993 880.34258509 733.987304688 850.014648438 c 5
 675.24609375 818.780273438 l 5
 621.071289062 810.06640625 l 5
 549.268554688 835.081054688 l 5
 484.971679688 860.103515625 l 5
 435.5078125 850.09765625 l 5
 379.977539062 810.06640625 l 5
 385.92592571 840.395363353 391.874811653 870.72382116 397.82421875 901.051757812 c 5
428 720 m 5xe8
 525 720 l 5
 665 0 l 5xf0
 562 0 l 5xe8
 530 175 l 5
 206 175 l 5xf0
 107 0 l 5xe8
 10 0 l 5xf0
 428 720 l 5xe8
455 611 m 5
 254 260 l 5
 515 260 l 5
 455 611 l 5
380 810 m 5
 398 901 l 5
 431 931 482 941 510 941 c 4
 569 941 598 891 647 891 c 4
 665 891 716 901 751 941 c 5
 734 850 l 5
 700 820 649 810 621 810 c 4
 562 810 534 860 485 860 c 4
 457 860 416 850 380 810 c 5
EndSplineSet
Fore
Refer: 181 126 N 1 0 0 1 134.543 525.012 2
Refer: 89 65 N 1 0 0 1 0 0 3
Validated: 1
EndChar
StartChar: Adieresis
Encoding: 115 196 280
Width: 675
Flags: HMW
HStem: 0 21G<10 107 10 10 562 665 562 562> 175 85<254 515 254 530 206 515> 700 20G<428 525 525 525> 820 100<364 437 346 455 364 546 564 637>
LayerCount: 2
Back
SplineSet
551.1015625 848.853515625 m 1
 558.694335938 890.208984375 l 1
 590.512695312 919.391601562 l 1
 627.918945312 919.3046875 l 1
 649 890 l 1
 641.408203125 848.643554688 l 1
 609.590820312 819.462890625 l 1
 572.184570312 819.548828125 l 1
 551.1015625 848.853515625 l 1
352.1015625 849.853515625 m 1
 359.694335938 891.208984375 l 1
 391.512695312 920.391601562 l 1
 428.918945312 920.3046875 l 1
 450 891 l 1
 442.408203125 849.643554688 l 1
 410.590820312 820.462890625 l 1
 373.184570312 820.548828125 l 1
 352.1015625 849.853515625 l 1
428 720 m 5
 525 720 l 5
 665 0 l 5
 562 0 l 5
 530 175 l 5
 206 175 l 5
 107 0 l 5
 10 0 l 5
 428 720 l 5
455 611 m 5
 254 260 l 5
 515 260 l 5
 455 611 l 5
428 720 m 1
 525 720 l 1
 665 0 l 1
 562 0 l 1
 530 175 l 1
 206 175 l 1
 107 0 l 1
 10 0 l 1
 428 720 l 1
455 611 m 1
 254 260 l 1
 515 260 l 1
 455 611 l 1
437 820 m 5
 346 820 l 5
 364 920 l 5
 455 920 l 5
 437 820 l 5
637 820 m 5
 546 820 l 5
 564 920 l 5
 655 920 l 5
 637 820 l 5
EndSplineSet
Fore
Refer: 346 168 N 1 0 0 1 252.188 274.627 2
Refer: 89 65 N 1 0 0 1 0 0 3
Validated: 1
EndChar
StartChar: Aring
Encoding: 116 197 279
Width: 675
Flags: HMW
HStem: 0 21G<10 107 107 107 562 665 665 665> 175 85<254 254 254 515> 700 20G<428 525 428 428> 775 62<481.5 519 481.5 524> 837 135<507.5 519> 972 63<507.5 545>
LayerCount: 2
Back
SplineSet
524.782226562 720.265625 m 5
 571.454743926 480.22980903 618.127911499 240.19464327 664.801757812 0.16015625 c 5
 630.471028646 0.16015625 596.140299479 0.16015625 561.809570312 0.16015625 c 5
 551.134464349 58.5071857035 540.459976251 116.854833021 529.786132812 175.203125 c 5
 421.762369792 175.203125 313.738606771 175.203125 205.71484375 175.203125 c 5
 172.692219868 116.854004091 139.668152541 58.5063266256 106.642578125 0.16015625 c 5
 74.3131510417 0.16015625 41.9837239583 0.16015625 9.654296875 0.16015625 c 5
 149.03599399 240.193823719 288.416223701 480.228958591 427.794921875 720.265625 c 5
 460.124023437 720.265625 492.453125 720.265625 524.782226562 720.265625 c 5
253.666992188 260.184570312 m 5
 340.703125 260.184570313 427.739257812 260.184570312 514.775390625 260.184570312 c 5
 494.732388963 377.212532192 474.689740572 494.240847343 454.647460938 611.26953125 c 5
 387.653786932 494.24139536 320.660294697 377.213077699 253.666992188 260.184570312 c 5
382.76171875 905.322265625 m 1
 439.38671875 996.94140625 l 1
 538.79296875 1035.33007812 l 1
 623 997 l 1
 642.786132812 905.322265625 l 1
 587.036132812 813.327148438 l 1
 487.755859375 775.305664062 l 1
 403.329101562 813.327148438 l 1
 382.76171875 905.322265625 l 1
444.723632812 905.322265625 m 1
 455.721679688 857.078125 l 1
 499.680664062 837.358398438 l 1
 551.270507812 857.078125 l 1
 579.65625 905.322265625 l 1
 570.013671875 952.732421875 l 1
 525.783203125 972.369140625 l 1
 474.33984375 952.732421875 l 1
 444.723632812 905.322265625 l 1
525 720 m 5
 428 720 l 5
 10 0 l 5
 107 0 l 5
 206 175 l 5
 530 175 l 5
 562 0 l 5
 665 0 l 5
 525 720 l 5
254 260 m 5
 455 611 l 5
 515 260 l 5
 254 260 l 5
383 905 m 4
 397 976 468 1035 539 1035 c 4
 611 1035 657 976 643 905 c 4
 629 833 560 775 488 775 c 4
 417 775 369 833 383 905 c 4
445 905 m 4
 438 867 463 837 500 837 c 4
 538 837 573 867 580 905 c 4
 588 942 564 972 526 972 c 4
 489 972 453 942 445 905 c 4
EndSplineSet
Fore
SplineSet
436 735 m 5xe0
 531 690 l 5
 665 0 l 5
 565 -15 l 5
 530 175 l 5
 206 175 l 5
 99 -14 l 5
 25 25 l 5
 436 735 l 5xe0
455 611 m 5
 254 260 l 5
 515 260 l 5
 455 611 l 5
382.76171875 905.322265625 m 1
 439.38671875 996.94140625 l 1
 538.79296875 1035.33007812 l 1
 623 997 l 1
 642.786132812 905.322265625 l 1
 587.036132812 813.327148438 l 1
 487.755859375 775.305664062 l 1
 403.329101562 813.327148438 l 1
 382.76171875 905.322265625 l 1
444.723632812 905.322265625 m 1
 455.721679688 857.078125 l 1
 499.680664062 837.358398438 l 1
 551.270507812 857.078125 l 1
 579.65625 905.322265625 l 1
 570.013671875 952.732421875 l 1
 525.783203125 972.369140625 l 1
 474.33984375 952.732421875 l 1
 444.723632812 905.322265625 l 1
EndSplineSet
Validated: 1
EndChar
StartChar: AE
Encoding: 117 198 278
Width: 1064
Flags: HMW
HStem: 0 85<598 994> 172 85<335 520 266 536> 325 85<661 997 645 1013> 635 85<705 1107 705 705>
LayerCount: 2
Back
Fore
SplineSet
112 -15 m 1
 48 34 l 1
 616 720 l 1
 1107 720 l 1
 1107 635 l 1
 705 635 l 1
 661 410 l 1
 997 410 l 1
 997 325 l 1
 645 325 l 1
 598 85 l 1
 994 85 l 1
 994 0 l 1
 487 0 l 1
 520 172 l 1
 266 172 l 1
 112 -15 l 1
536 257 m 1
 599 580 l 1
 335 257 l 1
 536 257 l 1
EndSplineSet
Validated: 1
EndChar
StartChar: Ccedilla
Encoding: 118 199 277
Width: 734
Flags: HMW
HStem: -242 50<335 353 335 359> -92 48<359 372 372 373> -15 80<377 379 377 377> 496 239<414 775 414 685> 655 80<433 567>
LayerCount: 2
Back
SplineSet
391 -142 m 4xe8
 398 -106 383 -92 363 -92 c 4
 347 -92 334 -101 324 -122 c 5
 282 -105 l 5
 338 -13 l 5
 149 7 80 166 119 360 c 4
 158 567 304 735 524 735 c 4
 688 735 802 645 775 496 c 5
 685 496 l 5xf0
 694 606 626 655 508 655 c 4
 358 655 250 527 219 360 c 4
 186 193 234 65 394 65 c 4
 502 65 583 132 631 233 c 5
 724 214 l 5
 666 79 543 -15 379 -15 c 6
 377 -15 l 5
 359 -44 l 5
 372 -44 l 6
 424 -44 451 -80 439 -142 c 4
 427 -204 385 -242 333 -242 c 4
 293 -242 270 -219 268 -179 c 5
 316 -164 l 5
 318 -184 327 -192 343 -192 c 4
 363 -192 384 -178 391 -142 c 4xe8
EndSplineSet
Fore
SplineSet
359.966796875 -44.0341796875 m 1xe0
 372.892578125 -44.0341796875 l 1
 430.373046875 -69.791015625 l 1
 439.942382812 -142.024414062 l 1
 401.924804688 -215.282226562 l 1
 333.948242188 -242.014648438 l 1
 287.194335938 -225.513671875 l 1
 268.900390625 -179.053710938 l 1
 316.935546875 -164.044921875 l 1
 325.149414062 -185.557617188 l 1
 343.872070312 -192.060546875 l 1
 372.767578125 -180.5546875 l 1
 391.907226562 -142.024414062 l 1
 388.071289062 -103.577148438 l 1
 363.969726562 -92.1533203125 l 1
 363.969726562 -92.1533203125 l 1
 342.204101562 -99.283203125 l 1
 324.94140625 -122.1796875 l 1
 282.827148438 -105.161132812 l 1
 338.951171875 -13.099609375 l 1
 143.818359375 108.161132812 l 1
 119.874023438 360.005859375 l 1
 254.556640625 625.141601562 l 1
 524.837890625 735.038085938 l 1
 722.06640625 671.41796875 l 1
 769 520 l 1
 685.956054688 496.025390625 l 1
 645.030273438 616.794921875 l 1
 508.91015625 655.05859375 l 1
 319.729492188 570.176757812 l 1
 219.864257812 360.005859375 l 1
 235.03125 149.84375 l 1
 394.993164062 64.9619140625 l 1
 536.012695312 111.080078125 l 1
 632 233 l 1
 701 184 l 5
 592.262695312 48.8525390625 l 1
 379.8984375 -15.017578125 l 2
 377.98046875 -15.017578125 l 0
 359.966796875 -44.0341796875 l 1xe0
EndSplineSet
Validated: 5
EndChar
StartChar: Egrave
Encoding: 119 200 276
Width: 657
Flags: HMW
HStem: 0 85<190 587> 325 85<253 588 236 605> 635 85<296 698 296 296> 803 187<453 462 350 518 453 453>
LayerCount: 2
Back
SplineSet
587 0 m 5
 80 0 l 5
 218 720 l 5
 715 720 l 5
 698 635 l 5
 296 635 l 5
 253 410 l 5
 605 410 l 5
 588 325 l 5
 236 325 l 5
 190 85 l 5
 602 85 l 5
 587 0 l 5
462 990 m 5
 518 803 l 5
 453 803 l 5
 350 990 l 5
 462 990 l 5
EndSplineSet
Fore
SplineSet
434 927.5 m 5
 491 790 l 5
 441 762 l 5
 360 884 l 5
 434 927.5 l 5
EndSplineSet
Refer: 93 69 N 1 0 0 1 0 0 3
Validated: 1
EndChar
StartChar: Eacute
Encoding: 120 201 275
Width: 657
Flags: HMW
HStem: 0 85<190 587> 325 85<253 588 236 605> 635 85<296 698 296 296> 970 20G<540 658 658 658>
LayerCount: 2
Back
SplineSet
587 0 m 5
 80 0 l 5
 218 720 l 5
 715 720 l 5
 698 635 l 5
 296 635 l 5
 253 410 l 5
 605 410 l 5
 588 325 l 5
 236 325 l 5
 190 85 l 5
 602 85 l 5
 587 0 l 5
658 990 m 5
 484 803 l 5
 413 803 l 5
 540 990 l 5
 658 990 l 5
EndSplineSet
Fore
SplineSet
457 927.5 m 5
 400 790 l 5
 450 762 l 5
 531 884 l 5
 457 927.5 l 5
EndSplineSet
Refer: 93 69 N 1 0 0 1 0 0 3
Validated: 9
EndChar
StartChar: Edieresis
Encoding: 122 203 273
Width: 657
Flags: HMW
HStem: 0 85<190 587> 325 85<253 588 236 605> 635 85<296 698 296 296> 820 100<344 417 326 435 344 526 544 617>
LayerCount: 2
Back
SplineSet
531.1015625 848.853515625 m 1
 538.694335938 890.208984375 l 1
 570.512695312 919.391601562 l 1
 607.918945312 919.3046875 l 1
 629 890 l 1
 621.408203125 848.643554688 l 1
 589.590820312 819.462890625 l 1
 552.184570312 819.548828125 l 1
 531.1015625 848.853515625 l 1
332.1015625 849.853515625 m 1
 339.694335938 891.208984375 l 1
 371.512695312 920.391601562 l 1
 408.918945312 920.3046875 l 1
 430 891 l 1
 422.408203125 849.643554688 l 1
 390.590820312 820.462890625 l 1
 353.184570312 820.548828125 l 1
 332.1015625 849.853515625 l 1
587 0 m 5
 80 0 l 5
 218 720 l 5
 715 720 l 5
 698 635 l 5
 296 635 l 5
 253 410 l 5
 605 410 l 5
 588 325 l 5
 236 325 l 5
 190 85 l 5
 602 85 l 5
 587 0 l 5
587 0 m 1
 80 0 l 1
 218 720 l 1
 715 720 l 1
 698 635 l 1
 296 635 l 1
 253 410 l 1
 605 410 l 1
 588 325 l 1
 236 325 l 1
 190 85 l 1
 602 85 l 1
 587 0 l 1
417 820 m 5
 326 820 l 5
 344 920 l 5
 435 920 l 5
 417 820 l 5
617 820 m 5
 526 820 l 5
 544 920 l 5
 635 920 l 5
 617 820 l 5
EndSplineSet
Fore
Refer: 346 168 N 1 0 0 1 277.449 274.627 2
Refer: 93 69 N 1 0 0 1 0 0 3
Validated: 1
EndChar
StartChar: Igrave
Encoding: 123 204 272
Width: 255
Flags: HMW
HStem: 0 21G<80 175 80 80> 700 20G<218 313 313 313> 803 187<273 282 170 338 273 273>
LayerCount: 2
Back
SplineSet
175 0 m 5
 80 0 l 5
 218 720 l 5
 313 720 l 5
 175 0 l 5
282 990 m 5
 338 803 l 5
 273 803 l 5
 170 990 l 5
 282 990 l 5
EndSplineSet
Fore
SplineSet
172 -15 m 5
 80 0 l 5
 221 735 l 5
 313 720 l 5
 172 -15 l 5
EndSplineSet
Validated: 1
EndChar
StartChar: Iacute
Encoding: 124 205 271
Width: 255
Flags: HMW
HStem: 0 21G<80 175 80 80> 700 20G<218 313 313 313> 970 20G<360 478 478 478>
LayerCount: 2
Back
SplineSet
175 0 m 5
 80 0 l 5
 218 720 l 5
 313 720 l 5
 175 0 l 5
478 990 m 5
 304 803 l 5
 233 803 l 5
 360 990 l 5
 478 990 l 5
EndSplineSet
Fore
SplineSet
172 -15 m 5
 80 0 l 5
 221 735 l 5
 313 720 l 5
 172 -15 l 5
EndSplineSet
Validated: 1
EndChar
StartChar: Icircumflex
Encoding: 125 206 270
Width: 255
Flags: HMW
HStem: 0 21G<80 175 80 80> 700 20G<218 313 313 313> 930 20G<274 351 351 351>
LayerCount: 2
Back
SplineSet
175 0 m 5
 80 0 l 5
 218 720 l 5
 313 720 l 5
 175 0 l 5
274 950 m 5
 351 950 l 5
 465 770 l 5
 374 770 l 5
 301 891 l 5
 178 770 l 5
 90 770 l 5
 274 950 l 5
EndSplineSet
Fore
SplineSet
172 -15 m 5
 80 0 l 5
 221 735 l 5
 313 720 l 5
 172 -15 l 5
EndSplineSet
Validated: 1
EndChar
StartChar: Idieresis
Encoding: 126 207 269
Width: 255
Flags: HMW
HStem: 0 21G<80 175 80 80> 700 20G<219 314 314 314> 819 101<186 257 167 276 186 317 336 407>
LayerCount: 2
Back
SplineSet
322.693359375 848.853515625 m 1
 330.286132812 890.208984375 l 1
 362.104492188 919.391601562 l 1
 399.510742188 919.3046875 l 1
 420.591796875 890 l 1
 413 848.643554688 l 1
 381.182617188 819.462890625 l 1
 343.776367188 819.548828125 l 1
 322.693359375 848.853515625 l 1
172.693359375 849.853515625 m 1
 180.286132812 891.208984375 l 1
 212.104492188 920.391601562 l 1
 249.510742188 920.3046875 l 1
 270.591796875 891 l 1
 263 849.643554688 l 1
 231.182617188 820.462890625 l 1
 193.776367188 820.548828125 l 1
 172.693359375 849.853515625 l 1
175 0 m 5
 80 0 l 5
 219 720 l 5
 314 720 l 5
 175 0 l 5
175 0 m 1
 80 0 l 1
 219 720 l 1
 314 720 l 1
 175 0 l 1
257 819 m 5
 167 819 l 5
 186 920 l 5
 276 920 l 5
 257 819 l 5
407 819 m 5
 317 819 l 5
 336 920 l 5
 426 920 l 5
 407 819 l 5
EndSplineSet
Fore
Refer: 346 168 N 1 0 0 1 37.5713 274.627 2
Refer: 97 73 N 1 0 0 1 0 0 3
Validated: 1
EndChar
StartChar: Eth
Encoding: 127 208 268
Width: 799
Flags: HMW
HStem: 0 84<281 405> 325 75<97 232 83 247 342 499> 635 85<388 515 388 388>
LayerCount: 2
Back
SplineSet
405 0 m 6
 170 0 l 5
 232 325 l 5
 83 325 l 5
 97 400 l 5
 247 400 l 5
 309 720 l 5
 533 720 l 6
 765 720 864 594 819 362 c 4
 775 137 637 0 405 0 c 6
328 325 m 5
 281 84 l 5
 411 84 l 6
 587 84 685 176 721 363 c 4
 761 567 673 635 515 635 c 6
 388 635 l 5
 342 400 l 5
 513 400 l 5
 499 325 l 5
 328 325 l 5
EndSplineSet
Fore
Validated: 1
EndChar
StartChar: Ntilde
Encoding: 128 209 267
Width: 724
Flags: HMW
HStem: 0 21G<80 171 80 80 547 547 547 644> 700 20G<218 315 315 315 691 782 782 782> 810 81<582.5 595> 860 81<456 469.5>
LayerCount: 2
Back
SplineSet
79.7861328125 -0.107421875 m 5
 125.7632463 239.928810992 171.741420888 479.963982758 217.720703125 719.998046875 c 5
 250.077799479 719.998046875 282.434895833 719.998046875 314.791992188 719.998046875 c 5
 403.441887005 531.305168255 492.090345413 342.610853225 580.737304688 153.915039062 c 5
 617.374584227 342.610116294 654.012594363 531.304462928 690.651367188 719.998046875 c 5
 721.006835937 719.998046875 751.362304688 719.998046875 781.717773438 719.998046875 c 5
 735.739356989 479.963116969 689.761163638 239.927963967 643.783203125 -0.107421875 c 5
 611.454101563 -0.107421875 579.125 -0.107421875 546.795898438 -0.107421875 c 5
 457.424967506 188.584472714 368.053876098 377.276206827 278.682617188 565.967773438 c 5
 242.683838109 377.276122829 206.685139025 188.584392225 170.686523438 -0.107421875 c 5
 140.386393229 -0.107421875 110.086263021 -0.107421875 79.7861328125 -0.107421875 c 5
357.823242188 901.051757812 m 5
 415.741210938 932.278320312 l 5
 469.90625 941 l 5
 542.208984375 915.985351562 l 5
 607.006835938 890.962890625 l 5
 652.623046875 900.96875 l 5
 711 941 l 5
 705.328754593 910.671896448 699.657851143 880.343450941 693.987304688 850.014648438 c 5
 635.24609375 818.780273438 l 5
 581.071289062 810.06640625 l 5
 509.331054688 835.088867188 l 5
 444.970703125 860.103515625 l 5
 395.5078125 850.09765625 l 5
 339.977539062 810.06640625 l 5
 345.926023705 840.394939837 351.874590216 870.723391555 357.823242188 901.051757812 c 5
171 0 m 5xe0
 80 0 l 5
 218 720 l 5xd0
 315 720 l 5xe0
 581 154 l 5
 691 720 l 5xd0
 782 720 l 5xe0
 644 0 l 5xd0
 547 0 l 5
 279 566 l 5
 171 0 l 5xe0
340 810 m 5
 358 901 l 5
 391 931 442 941 470 941 c 4
 529 941 558 891 607 891 c 4
 625 891 676 901 711 941 c 5
 694 850 l 5
 660 820 609 810 581 810 c 4
 522 810 494 860 445 860 c 4
 417 860 376 850 340 810 c 5
EndSplineSet
Fore
Refer: 181 126 N 1 0 0 1 156.043 525.012 2
Refer: 102 78 N 1 0 0 1 0 0 3
Validated: 1
EndChar
StartChar: Ograve
Encoding: 129 210 266
Width: 785
Flags: HMW
HStem: -15 80<324 478.5 324 498.5> 655 80<443 592.5> 803 187<483 492 380 548 483 483>
LayerCount: 2
Back
SplineSet
533.947265625 734.895507812 m 1
 765.7109375 624.999023438 l 1
 803.895507812 359.86328125 l 1
 663.125 94.6611328125 l 1
 388.756835938 -15.244140625 l 1
 155.857421875 94.6611328125 l 1
 118.725585938 359.86328125 l 1
 258.442382812 624.999023438 l 1
 533.947265625 734.895507812 l 1
403.934570312 64.818359375 m 1
 597.47265625 149.701171875 l 1
 704.072265625 359.86328125 l 1
 678.57421875 570 l 1
 518.102539062 654.916015625 l 1
 323.91796875 570.034179688 l 1
 219.048828125 359.86328125 l 1
 239.000976562 149.701171875 l 1
 403.934570312 64.818359375 l 1
547.95703125 802.942382812 m 5
 526.302408854 802.942382812 504.647786458 802.942382813 482.993164062 802.942382812 c 5
 448.662614774 865.295101753 414.331888197 927.647643405 380.000976562 990 c 5
 417.333984375 990 454.666992187 990 492 990 c 5
 510.652460397 927.647577585 529.304805823 865.295040198 547.95703125 802.942382812 c 5
119 360 m 4
 158 567 314 735 534 735 c 4
 753 735 843 567 804 360 c 4
 763 153 608 -15 389 -15 c 4
 169 -15 78 153 119 360 c 4
219 360 m 4
 186 193 244 65 404 65 c 4
 553 65 671 193 704 360 c 4
 735 527 667 655 518 655 c 4
 368 655 250 527 219 360 c 4
492 990 m 5
 548 803 l 5
 483 803 l 5
 380 990 l 5
 492 990 l 5
EndSplineSet
Fore
SplineSet
516 927.5 m 5
 573 790 l 5
 523 762 l 5
 442 884 l 5
 516 927.5 l 5
EndSplineSet
Refer: 103 79 N 1 0 0 1 0 0 3
Validated: 1
EndChar
StartChar: Oacute
Encoding: 130 211 265
Width: 785
Flags: HMW
HStem: -15 80<324 478.5 324 498.5> 655 80<443 592.5> 970 20G<610 728 728 728>
LayerCount: 2
Back
SplineSet
534.107421875 734.895507812 m 1
 765.90234375 624.999023438 l 1
 804.055664062 359.86328125 l 1
 663.31640625 94.6611328125 l 1
 388.916992188 -15.244140625 l 1
 156.048828125 94.6611328125 l 1
 118.885742188 359.86328125 l 1
 258.571289062 624.999023438 l 1
 534.107421875 734.895507812 l 1
404.094726562 64.818359375 m 1
 597.6328125 149.701171875 l 1
 704.232421875 359.86328125 l 1
 678.734375 570 l 1
 518.262695312 654.916015625 l 1
 324.078125 570.034179688 l 1
 219.208984375 359.86328125 l 1
 239.161132812 149.701171875 l 1
 404.094726562 64.818359375 l 1
554.038085938 802.942382812 m 5
 530.354166667 802.942382813 506.670247396 802.942382812 482.986328125 802.942382812 c 5
 525.322711805 865.295126737 567.659297397 927.647668748 609.99609375 990 c 5
 649.330729167 990 688.665364583 990 728 990 c 5
 670.012713689 927.647442561 612.025409265 865.294903235 554.038085938 802.942382812 c 5
119 360 m 4
 158 567 314 735 534 735 c 4
 753 735 843 567 804 360 c 4
 763 153 608 -15 389 -15 c 4
 169 -15 78 153 119 360 c 4
219 360 m 4
 186 193 244 65 404 65 c 4
 553 65 671 193 704 360 c 4
 735 527 667 655 518 655 c 4
 368 655 250 527 219 360 c 4
728 990 m 5
 554 803 l 5
 483 803 l 5
 610 990 l 5
 728 990 l 5
EndSplineSet
Fore
SplineSet
560 928 m 5
 503 790 l 5
 553 762 l 5
 634 884 l 5
 560 928 l 5
EndSplineSet
Refer: 103 79 N 1 0 0 1 0 0 3
Validated: 9
EndChar
StartChar: Ocircumflex
Encoding: 131 212 264
Width: 785
Flags: HMW
HStem: -15 80<324 478.5 324 498.5> 655 80<443 592.5> 735 215<527 604 527 643.5>
LayerCount: 2
Back
SplineSet
533.948242188 735.063476562 m 1
 765.743164062 625.166992188 l 1
 803.896484375 360.03125 l 1
 663.157226562 94.8291015625 l 1
 388.7578125 -15.0751953125 l 1
 155.889648438 94.8291015625 l 1
 118.7265625 360.03125 l 1
 258.412109375 625.166992188 l 1
 533.948242188 735.063476562 l 1
403.852539062 64.9873046875 m 1
 597.390625 149.869140625 l 1
 703.989257812 360.03125 l 1
 678.5234375 570.168945312 l 1
 518.01953125 655.083984375 l 1
 323.834960938 570.202148438 l 1
 218.966796875 360.03125 l 1
 239.012695312 149.869140625 l 1
 403.852539062 64.9873046875 l 1
604 950.053710938 m 5
 642.000196395 890.036003687 680.000199217 830.018102863 718 770 c 5
 687.616536458 770 657.233072917 770 626.849609375 770 c 5
 602.524517065 810.335714982 578.200927644 850.672932853 553.87890625 891.01171875 c 5
 512.851001796 850.672435704 471.821083503 810.335166497 430.7890625 770 c 5
 401.434244792 770 372.079427083 770 342.724609375 770 c 5
 404.074688731 830.018410228 465.425267382 890.03632116 526.776367188 950.053710938 c 5
 552.517578125 950.053710937 578.258789062 950.053710938 604 950.053710938 c 5
119 360 m 4xa0
 158 567 314 735 534 735 c 4
 753 735 843 567 804 360 c 4
 763 153 608 -15 389 -15 c 4
 169 -15 78 153 119 360 c 4xa0
219 360 m 4
 186 193 244 65 404 65 c 4
 553 65 671 193 704 360 c 4
 735 527 667 655 518 655 c 4
 368 655 250 527 219 360 c 4
527 950 m 5
 604 950 l 5xc0
 718 770 l 5
 627 770 l 5
 554 891 l 5
 431 770 l 5
 343 770 l 5
 527 950 l 5
EndSplineSet
Fore
Refer: 169 94 N 1 0 0 1 179.169 356 2
Refer: 103 79 N 1 0 0 1 0 0 3
Validated: 9
EndChar
StartChar: Otilde
Encoding: 132 213 263
Width: 785
Flags: HMW
HStem: -15 80<324 478.5 324 498.5> 655 80<443 592.5> 860 31 860 81<496 509.5>
LayerCount: 2
Back
SplineSet
533.923828125 736.014648438 m 1
 765.729492188 626.118164062 l 1
 803.955078125 360.983398438 l 1
 663.143554688 95.7802734375 l 1
 388.733398438 -14.1240234375 l 1
 155.865234375 95.7802734375 l 1
 118.702148438 360.983398438 l 1
 258.418945312 626.118164062 l 1
 533.923828125 736.014648438 l 1
403.828125 65.9384765625 m 1
 597.366210938 150.8203125 l 1
 703.96484375 360.983398438 l 1
 678.499023438 571.120117188 l 1
 517.995117188 656.036132812 l 1
 323.810546875 571.153320312 l 1
 218.942382812 360.983398438 l 1
 238.95703125 150.8203125 l 1
 403.828125 65.9384765625 l 1
397.907226562 902.051757812 m 5
 455.814453125 933.278320312 l 5
 509.90625 942 l 5
 582.208984375 916.977539062 l 5
 647.006835938 891.962890625 l 5
 692.655273438 901.96875 l 5
 751 942 l 5
 745.328754593 911.671896448 739.657851143 881.343450941 733.987304688 851.014648438 c 5
 675.30859375 819.780273438 l 5
 621.071289062 811.06640625 l 5
 549.268554688 836.081054688 l 5
 484.970703125 861.103515625 l 5
 435.5078125 851.09765625 l 5
 379.977539062 811.06640625 l 5
 385.95401817 841.394940163 391.930579468 871.723391886 397.907226562 902.051757812 c 5
119 360 m 4xd0
 158 567 314 735 534 735 c 4
 753 735 843 567 804 360 c 4
 763 153 608 -15 389 -15 c 4
 169 -15 78 153 119 360 c 4xd0
219 360 m 4xe0
 186 193 244 65 404 65 c 4
 553 65 671 193 704 360 c 4
 735 527 667 655 518 655 c 4xd0
 368 655 250 527 219 360 c 4xe0
380 810 m 5
 398 901 l 5
 431 931 482 941 510 941 c 4
 569 941 598 891 647 891 c 4
 665 891 716 901 751 941 c 5
 734 850 l 5
 700 820 649 810 621 810 c 4
 562 810 534 860 485 860 c 4
 457 860 416 850 380 810 c 5
EndSplineSet
Fore
Refer: 181 126 N 1 0 0 1 232.543 525.012 2
Refer: 103 79 N 1 0 0 1 0 0 3
Validated: 1
EndChar
StartChar: Odieresis
Encoding: 133 214 262
Width: 785
Flags: HMW
HStem: -15 80<324 478.5 324 498.5> 655 80<443 592.5> 820 100<424 497 406 515 424 606 624 697>
LayerCount: 2
Back
SplineSet
119 360 m 4
 158 567 314 735 534 735 c 4
 753 735 843 567 804 360 c 4
 763 153 608 -15 389 -15 c 4
 169 -15 78 153 119 360 c 4
219 360 m 4
 186 193 244 65 404 65 c 4
 553 65 671 193 704 360 c 4
 735 527 667 655 518 655 c 4
 368 655 250 527 219 360 c 4
497 820 m 5
 406 820 l 5
 424 920 l 5
 515 920 l 5
 497 820 l 5
697 820 m 5
 606 820 l 5
 624 920 l 5
 715 920 l 5
 697 820 l 5
EndSplineSet
Fore
Refer: 346 168 N 1 0 0 1 350.571 274.627 2
Refer: 103 79 N 1 0 0 1 0 0 3
Validated: 1
EndChar
StartChar: multiply
Encoding: 134 215 261
Width: 556
Flags: MW
HStem: 199 21G<186 186 446 446> 546 20G<258 258 518 518>
LayerCount: 2
Back
Fore
SplineSet
341 329 m 1
 186 199 l 1
 143 252 l 1
 299 382 l 1
 194 513 l 1
 258 566 l 1
 362 435 l 1
 518 566 l 1
 560 513 l 1
 405 382 l 1
 509 252 l 1
 446 199 l 1
 341 329 l 1
EndSplineSet
Validated: 1
EndChar
StartChar: Oslash
Encoding: 135 216 260
Width: 785
Flags: HMW
HStem: -15 80<372.5 478.5 372.5 498> 655 80<443 548.5>
LayerCount: 2
Back
SplineSet
850 687 m 5
 824 662 799 638 773 613 c 5
 811 546 823 457 804 360 c 4
 764 153 607 -15 389 -15 c 4
 305 -15 239 9 193 51 c 5
 170 29 148 7 125 -15 c 5
 109 1 92 17 76 33 c 5
 101 57 125 80 150 104 c 5
 109 171 100 261 119 360 c 4
 159 567 313 735 534 735 c 4
 619 735 684 709 730 666 c 5
 754 689 777 712 801 735 c 5
 817 719 834 703 850 687 c 5
219 360 m 4
 205 290 207 227 226 178 c 5
 370 318 515 457 659 597 c 5
 626 634 579 655 518 655 c 4
 368 655 250 527 219 360 c 4
704 360 m 4
 716 427 713 488 694 536 c 5
 550 397 406 257 262 118 c 5
 294 84 341 65 404 65 c 4
 553 65 671 193 704 360 c 4
EndSplineSet
Fore
SplineSet
773.26171875 612.905273438 m 1
 810.163085938 497.622070312 l 1
 804.28515625 359.884765625 l 1
 663.536132812 94.6826171875 l 1
 389.063476562 -15.22265625 l 1
 276.803710938 2.0458984375 l 1
 193.001953125 50.8232421875 l 1
 125.036132812 -15.22265625 l 1
 76 32.8134765625 l 1
 150.137695312 103.954101562 l 1
 112.109375 219.954101562 l 1
 119.11328125 359.967773438 l 1
 258.725585938 625.103515625 l 1
 534.251953125 735 l 1
 646.958984375 716.623046875 l 1
 730.39453125 666.02734375 l 1
 801.447265625 735 l 1
 850.483398438 686.963867188 l 1
 773.26171875 612.905273438 l 1
226.108398438 177.754882812 m 1
 659.09375 596.8125 l 1
 599.1015625 639.678710938 l 1
 518.157226562 654.770507812 l 1
 323.97265625 569.888671875 l 1
 219.103515625 359.717773438 l 1
 210.25390625 260.918945312 l 1
 226.107421875 177.754882812 l 1
 226.108398438 177.754882812 l 1
694.202148438 535.852539062 m 1
 262.135742188 117.795898438 l 1
 321.481445312 78.556640625 l 1
 404.157226562 64.83984375 l 1
 597.68359375 149.72265625 l 1
 704.209960938 359.884765625 l 1
 710.838867188 454.997070312 l 1
 694.202148438 535.852539062 l 1
EndSplineSet
Validated: 1
EndChar
StartChar: Ugrave
Encoding: 136 217 259
Width: 723
Flags: HMW
HStem: -15 85<308.5 441.5 308.5 456.5> 700 20G<218 313 313 313 686 781 781 781> 803 187<473 482 370 538 473 473>
LayerCount: 2
Back
SplineSet
685.983398438 719.877929688 m 5
 717.673502604 719.877929688 749.363606771 719.877929687 781.053710938 719.877929688 c 5
 754.36676234 580.526141306 727.680232784 441.173933883 700.994140625 301.821289062 c 5
 589.861328125 73.8984375 l 5
 358.076171875 -15.244140625 l 5
 161.369140625 73.8984375 l 5
 137.9140625 301.821289062 l 5
 164.573016378 441.173077372 191.231551143 580.525284795 217.889648438 719.877929688 c 5
 249.607421875 719.877929687 281.325195313 719.877929688 313.04296875 719.877929688 c 5
 285.717464523 578.857730789 258.391623086 437.837869102 231.065429688 296.818359375 c 5
 243.439453125 131.5234375 l 5
 375.088867188 69.73828125 l 5
 529.87890625 131.490234375 l 5
 604.173828125 296.818359375 l 5
 631.444027301 437.837873741 658.713889002 578.857725582 685.983398438 719.877929688 c 5
537.791015625 802.942382812 m 5
 516.1640625 802.942382812 494.537109375 802.942382813 472.91015625 802.942382812 c 5
 438.579606962 865.295101753 404.248880384 927.647643405 369.91796875 990 c 5
 407.278645833 990 444.639322917 990 482 990 c 5
 500.597121589 927.647577318 519.19412847 865.295039928 537.791015625 802.942382812 c 5
604 297 m 6
 686 720 l 5
 781 720 l 5
 701 302 l 6
 665 117 555 -15 358 -15 c 4
 163 -15 102 117 138 302 c 6
 218 720 l 5
 313 720 l 5
 231 297 l 6
 205 159 242 70 375 70 c 4
 508 70 578 159 604 297 c 6
482 990 m 5
 538 803 l 5
 473 803 l 5
 370 990 l 5
 482 990 l 5
EndSplineSet
Fore
SplineSet
497 927.5 m 5
 554 790 l 5
 504 762 l 5
 423 884 l 5
 497 927.5 l 5
EndSplineSet
Refer: 109 85 N 1 0 0 1 0 0 3
Validated: 1
EndChar
StartChar: Uacute
Encoding: 137 218 258
Width: 723
Flags: HMW
HStem: -15 85<308.5 441.5 308.5 456.5> 700 20G<218 313 313 313 686 781 781 781> 970 20G<570 688 688 688>
LayerCount: 2
Back
SplineSet
686.08203125 719.877929688 m 5
 717.799804688 719.877929687 749.517578125 719.877929688 781.235351562 719.877929688 c 5
 754.521158854 580.525716146 727.806966146 441.173502604 701.092773438 301.821289062 c 5
 589.958984375 73.8984375 l 5
 358.174804688 -15.244140625 l 5
 161.499023438 73.8984375 l 5
 138.012695312 301.821289062 l 5
 164.67164919 441.173077372 191.330183955 580.525284795 217.98828125 719.877929688 c 5
 249.706054687 719.877929687 281.423828125 719.877929688 313.141601562 719.877929688 c 5
 285.816097336 578.857730789 258.490255898 437.837869102 231.1640625 296.818359375 c 5
 243.547851562 131.5234375 l 5
 375.270507812 69.73828125 l 5
 529.999023438 131.490234375 l 5
 604.35546875 296.818359375 l 5
 631.597574233 437.838298163 658.839760553 578.858156114 686.08203125 719.877929688 c 5
514.122070312 802.942382812 m 5
 490.410481771 802.942382812 466.698893229 802.942382813 442.987304688 802.942382812 c 5
 485.295693656 865.295126656 527.604284458 927.647668667 569.913085938 990 c 5
 609.275390625 990 648.637695313 990 688 990 c 5
 630.040708602 927.647442439 572.081398972 865.294903111 514.122070312 802.942382812 c 5
604 297 m 6
 686 720 l 5
 781 720 l 5
 701 302 l 6
 665 117 555 -15 358 -15 c 4
 163 -15 102 117 138 302 c 6
 218 720 l 5
 313 720 l 5
 231 297 l 6
 205 159 242 70 375 70 c 4
 508 70 578 159 604 297 c 6
688 990 m 5
 514 803 l 5
 443 803 l 5
 570 990 l 5
 688 990 l 5
EndSplineSet
Fore
SplineSet
504 928 m 5
 447 790 l 5
 497 762 l 5
 578 884 l 5
 504 928 l 5
EndSplineSet
Refer: 109 85 N 1 0 0 1 0 0 3
Validated: 9
EndChar
StartChar: Ucircumflex
Encoding: 138 219 257
Width: 723
Flags: HMW
HStem: -15 85<308.5 441.5 308.5 456.5> 700 20G<218 313 313 313 686 781 781 781> 930 20G<497 574 574 574>
LayerCount: 2
Back
SplineSet
685.9140625 720.046875 m 5
 717.631835937 720.046875 749.349609375 720.046875 781.067382812 720.046875 c 5
 754.380334577 580.695511777 727.694124418 441.343310478 701.008789062 301.990234375 c 5
 589.833007812 74.0673828125 l 5
 358.006835938 -15.0751953125 l 5
 161.341796875 74.0673828125 l 5
 137.928710938 301.990234375 l 5
 164.586814349 441.342873151 191.245336881 580.695092807 217.904296875 720.046875 c 5
 249.594401042 720.046875 281.284505208 720.046875 312.974609375 720.046875 c 5
 285.67651445 579.026936071 258.378338549 438.007078118 231.080078125 296.987304688 c 5
 243.454101562 131.692382812 l 5
 375.103515625 69.90625 l 5
 529.831054688 131.658203125 l 5
 604.188476562 296.987304688 l 5
 631.429995991 438.007504009 658.671853047 579.027365703 685.9140625 720.046875 c 5
573.916015625 950.053710938 m 5
 611.9442069 890.036003775 649.972204516 830.018102953 688 770 c 5
 657.644205729 770 627.288411458 770 596.932617188 770 c 5
 572.579538634 810.335398009 548.228275396 850.672611334 523.87890625 891.01171875 c 5
 482.850499534 850.672937966 441.820574003 810.335675997 400.7890625 770 c 5
 371.433919271 770 342.078776042 770 312.723632812 770 c 5
 374.073712168 830.018410228 435.424290819 890.03632116 496.775390625 950.053710938 c 5
 522.488932292 950.053710938 548.202473958 950.053710937 573.916015625 950.053710938 c 5
604 297 m 6
 686 720 l 5
 781 720 l 5
 701 302 l 6
 665 117 555 -15 358 -15 c 4
 163 -15 102 117 138 302 c 6
 218 720 l 5
 313 720 l 5
 231 297 l 6
 205 159 242 70 375 70 c 4
 508 70 578 159 604 297 c 6
497 950 m 5
 574 950 l 5
 688 770 l 5
 597 770 l 5
 524 891 l 5
 401 770 l 5
 313 770 l 5
 497 950 l 5
EndSplineSet
Fore
Refer: 169 94 N 1 0 0 1 100.123 356 2
Refer: 109 85 N 1 0 0 1 0 0 3
Validated: 9
EndChar
StartChar: Udieresis
Encoding: 139 220 256
Width: 723
Flags: HMW
HStem: -15 85<308.5 441.5 308.5 456.5> 700 20G<218 313 313 313 686 781 781 781> 820 100<384 457 366 475 384 566 584 657>
LayerCount: 2
Back
SplineSet
571.1015625 848.853515625 m 1
 578.694335938 890.208984375 l 1
 610.512695312 919.391601562 l 1
 647.918945312 919.3046875 l 1
 669 890 l 1
 661.408203125 848.643554688 l 1
 629.590820312 819.462890625 l 1
 592.184570312 819.548828125 l 1
 571.1015625 848.853515625 l 1
372.1015625 849.853515625 m 1
 379.694335938 891.208984375 l 1
 411.512695312 920.391601562 l 1
 448.918945312 920.3046875 l 1
 470 891 l 1
 462.408203125 849.643554688 l 1
 430.590820312 820.462890625 l 1
 393.184570312 820.548828125 l 1
 372.1015625 849.853515625 l 1
686.008789062 720.018554688 m 5
 717.698567708 720.018554688 749.388346354 720.018554688 781.078125 720.018554688 c 5
 754.391076765 580.667191465 727.704866605 441.314990166 701.01953125 301.961914062 c 5
 589.84375 74.0390625 l 5
 358.017578125 -15.103515625 l 5
 161.383789062 74.0390625 l 5
 137.939453125 301.961914062 l 5
 164.597556536 441.314552839 191.256079068 580.666772494 217.915039062 720.018554688 c 5
 249.604817708 720.018554688 281.294596354 720.018554688 312.984375 720.018554688 c 5
 285.686181173 578.999040181 258.388324683 437.979188338 231.090820312 296.958984375 c 5
 243.46484375 131.6640625 l 5
 375.11328125 69.87890625 l 5
 529.873046875 131.630859375 l 5
 604.198242188 296.958984375 l 5
 631.468506567 437.978759058 658.738690039 578.998614648 686.008789062 720.018554688 c 5
686.008789062 720.018554688 m 1
 717.698567708 720.018554688 749.388346354 720.018554688 781.078125 720.018554688 c 1
 754.391076765 580.667191465 727.704866605 441.314990166 701.01953125 301.961914062 c 1
 589.84375 74.0390625 l 1
 358.017578125 -15.103515625 l 1
 161.383789062 74.0390625 l 1
 137.939453125 301.961914062 l 1
 164.597556536 441.314552839 191.256079068 580.666772494 217.915039062 720.018554688 c 1
 249.604817708 720.018554688 281.294596354 720.018554688 312.984375 720.018554688 c 1
 285.686181173 578.999040181 258.388324683 437.979188338 231.090820312 296.958984375 c 1
 243.46484375 131.6640625 l 1
 375.11328125 69.87890625 l 1
 529.873046875 131.630859375 l 1
 604.198242188 296.958984375 l 1
 631.468506567 437.978759058 658.738690039 578.998614648 686.008789062 720.018554688 c 1
365.857421875 820.008789062 m 5
 371.888387369 853.340128256 377.920274981 886.670545332 383.953125 920 c 5
 414.308919271 920 444.664713542 920 475.020507812 920 c 5
 469.015873189 886.669673686 463.011314787 853.33927115 457.006835938 820.008789062 c 5
 426.623697917 820.008789063 396.240559896 820.008789062 365.857421875 820.008789062 c 5
565.919921875 820.008789062 m 5
 571.923647064 853.33969929 577.927871548 886.670110222 583.932617188 920 c 5
 614.288411458 920 644.644205729 920 675 920 c 5
 668.995365377 886.669673686 662.990806975 853.33927115 656.986328125 820.008789062 c 5
 626.630859375 820.008789062 596.275390625 820.008789063 565.919921875 820.008789062 c 5
604 297 m 6
 686 720 l 5
 781 720 l 5
 701 302 l 6
 665 117 555 -15 358 -15 c 4
 163 -15 102 117 138 302 c 6
 218 720 l 5
 313 720 l 5
 231 297 l 6
 205 159 242 70 375 70 c 4
 508 70 578 159 604 297 c 6
457 820 m 5
 366 820 l 5
 384 920 l 5
 475 920 l 5
 457 820 l 5
657 820 m 5
 566 820 l 5
 584 920 l 5
 675 920 l 5
 657 820 l 5
EndSplineSet
Fore
Refer: 346 168 N 1 0 0 1 271.524 274.627 2
Refer: 109 85 N 1 0 0 1 0 0 3
Validated: 1
EndChar
StartChar: Thorn
Encoding: 141 222 254
Width: 657
Flags: HMW
HStem: 0 21G<80 175 80 80> 150 85<220 367 204 385> 495 85<271 442 287 434> 495 225<271 271 271 314 219 434>
LayerCount: 2
Back
SplineSet
175 0 m 5xd0
 80 0 l 5
 219 720 l 5
 314 720 l 5
 287 580 l 5
 442 580 l 6
 587 580 710 534 678 369 c 4
 650 224 546 150 367 150 c 6
 204 150 l 5
 175 0 l 5xd0
271 495 m 5
 220 235 l 5xd0
 385 235 l 6
 498 235 563 279 580 366 c 4xe0
 601 474 529 495 434 495 c 6
 271 495 l 5
EndSplineSet
Fore
Validated: 1
EndChar
StartChar: germandbls
Encoding: 142 223 253
Width: 623
Flags: HMW
HStem: -15 75<389 442.5 389 452> 0 21G<88 175 88 88> 643 78<375.5 446.5>
LayerCount: 2
Back
SplineSet
254 150 m 5xa0
 343 163 l 5
 340 108 356 60 422 60 c 4
 463 60 514 87 524 135 c 4
 532 175 521 209 469 220 c 6
 405 234 l 6
 338 249 287 295 304 381 c 4
 330 517 482 509 497 584 c 4
 502 608 480 643 413 643 c 4
 338 643 291 600 274 513 c 6xa0
 175 0 l 5
 88 0 l 5
 187 511 l 6
 214 651 318 721 428 721 c 4
 556 721 596 658 582 584 c 4
 559 464 408 475 390 381 c 4
 383 346 412 328 442 321 c 6
 518 303 l 6
 581 288 634 240 615 143 c 4x60
 595 38 499 -15 405 -15 c 4
 288 -15 241 45 254 150 c 5xa0
EndSplineSet
Fore
SplineSet
343.204101562 162.951171875 m 1x60
 356.829101562 90.818359375 l 1
 422.178710938 59.958984375 l 1
 484.819335938 79.4619140625 l 1
 524.25390625 134.926757812 l 1
 519.326171875 188.31640625 l 1
 469.30078125 219.9921875 l 1
 405.169921875 234.000976562 l 1
 323.171875 280.869140625 l 1
 304.095703125 381.026367188 l 1
 404.815429688 505.415039062 l 1
 497.154296875 584.09375 l 1
 482.142578125 622.615234375 l 1
 413.091796875 643.135742188 l 1
 321.84765625 610.7421875 l 1
 274.07421875 513.119140625 l 1
 172 -15 l 1xa0
 88.0205078125 0 l 1
 187.092773438 511.03515625 l 1
 276.387695312 668.575195312 l 1
 428.103515625 721.10546875 l 1
 558.41796875 680.340820312 l 1
 582.216796875 584.09375 l 1
 484.342773438 472.8046875 l 1
 390.159179688 381.026367188 l 1
 402.314453125 340.5703125 l 1
 442.114257812 321.067382812 l 1
 518.168945312 303.048828125 l 1
 597.404296875 253.803710938 l 1
 615.157226562 143.014648438 l 1
 537.861328125 24.630859375 l 1
 405.086914062 -15.017578125 l 1
 280.776367188 28.099609375 l 1
 255 144 l 5
 343.204101562 162.951171875 l 1x60
EndSplineSet
Validated: 1
EndChar
StartChar: agrave
Encoding: 143 224 252
Width: 516
Flags: HMW
HStem: -15 72<195 223> 0 21G<392 483 392 392> 463 72<306 367.5> 603 187<343 352 240 408 343 343>
LayerCount: 2
Back
SplineSet
74.25390625 21.05859375 m 5
 43.7734375 136.849609375 l 5
 126.35546875 258.745117188 l 5
 280.86328125 304.887695312 l 5
 364.89453125 315.77734375 l 5
 427.97265625 331.912109375 l 5
 429.334635417 338.582682292 430.696614583 345.253255208 432.05859375 351.923828125 c 5
 414.357421875 437.822265625 l 5
 332.984375 462.920898438 l 5
 247.859375 436.4140625 l 5
 188.87890625 358.927734375 l 5
 161.557085529 365.270952716 134.231619057 371.610525307 106.90234375 377.946289062 c 5
 212.302734375 501.458984375 l 5
 355.918945312 534.978515625 l 5
 498.951171875 483.607421875 l 5
 518.955078125 333.913085938 l 5
 504.305338542 257.913736979 489.655598958 181.914388021 475.005859375 105.915039062 c 5
 469.219726562 40.1611328125 l 5
 483.008789062 -0.0791015625 l 5
 452.653320312 -0.0791015625 422.297851563 -0.0791015625 391.942382812 -0.0791015625 c 5
 380.934570312 27.8125 l 5
 381.935546875 63.966796875 l 5
 286.396484375 2.59765625 l 5
 191.795898438 -15.1787109375 l 5
 74.25390625 21.05859375 l 5
414.87890625 262.864257812 m 5
 355.627929688 246.721679688 l 5
 276.861328125 232.837890625 l 5
 191.715820312 210.075195312 l 5
 138.842773438 140.768554688 l 5
 156.35546875 74.013671875 l 5
 218.90234375 56.7958984375 l 5
 317.265625 85.1953125 l 5
 390.862304688 139.8515625 l 5
 398.866670086 180.856962727 406.872186913 221.861211524 414.87890625 262.864257812 c 5
407.875 602.942382812 m 5
 386.192382812 602.942382812 364.509765625 602.942382813 342.827148438 602.942382812 c 5
 308.523940262 665.294448074 274.221199055 727.646980305 239.918945312 790 c 5
 277.279296875 790 314.639648438 790 352 790 c 5
 370.625116516 727.647577453 389.25011819 665.295040065 407.875 602.942382812 c 5
382 64 m 5xb0
 319 6 254 -15 192 -15 c 4
 96 -15 24 31 44 137 c 4
 66 249 163 294 281 305 c 4
 337 310 400 320 428 332 c 5
 432 352 l 6
 448 433 402 463 333 463 c 4
 268 463 219 427 189 359 c 5
 107 378 l 5
 156 498 256 535 356 535 c 4
 495 535 544 465 519 334 c 6x70
 475 106 l 6
 464 53 468 19 483 0 c 5
 392 0 l 5
 378 14 380 39 382 64 c 5xb0
391 140 m 5
 415 263 l 5
 389 252 329 241 277 233 c 4
 220 224 153 212 139 141 c 4
 127 75 171 57 219 57 c 4
 286 57 357 105 391 140 c 5
352 790 m 5
 408 603 l 5
 343 603 l 5
 240 790 l 5xb0
 352 790 l 5
EndSplineSet
Fore
Refer: 182 96 N 1 0 0 1 112.612 63.0576 2
Refer: 63 97 N 1 0 0 1 0 0 3
Validated: 1
EndChar
StartChar: aacute
Encoding: 144 225 251
Width: 516
Flags: HMW
HStem: -15 72<195 223> 0 21G<392 483 392 392> 463 72<306 367.5> 770 20G<430 548 548 548>
LayerCount: 2
Back
SplineSet
73.599609375 21.05859375 m 5
 43.1298828125 136.849609375 l 5
 125.711914062 258.745117188 l 5
 280.220703125 304.887695312 l 5
 364.240234375 315.77734375 l 5
 427.245117188 331.912109375 l 5
 428.607096354 338.582682292 429.969075521 345.253255208 431.331054688 351.923828125 c 5
 413.692382812 437.822265625 l 5
 332.258789062 462.920898438 l 5
 247.090820312 436.4140625 l 5
 188.069335938 358.927734375 l 5
 160.774858268 365.270952018 133.476735537 371.610524599 106.174804688 377.946289062 c 5
 211.565429688 501.458984375 l 5
 355.108398438 534.978515625 l 5
 498.170898438 483.607421875 l 5
 518.14453125 333.913085938 l 5
 503.522786458 257.913736979 488.901041667 181.914388021 474.279296875 105.915039062 c 5
 468.4921875 40.1611328125 l 5
 482.282226562 -0.0791015625 l 5
 451.926757812 -0.0791015625 421.571289063 -0.0791015625 391.215820312 -0.0791015625 c 5
 380.17578125 27.8125 l 5
 381.209960938 63.966796875 l 5
 285.733398438 2.59765625 l 5
 191.0703125 -15.1787109375 l 5
 191.0703125 -15.1787109375 l 5
 73.599609375 21.05859375 l 5
414.068359375 262.864257812 m 5
 354.859375 246.721679688 l 5
 276.134765625 232.837890625 l 5
 190.95703125 210.075195312 l 5
 138.116210938 140.768554688 l 5
 155.59765625 74.013671875 l 5
 218.17578125 56.7958984375 l 5
 316.5078125 85.1953125 l 5
 390.134765625 139.8515625 l 5
 398.11188771 180.856536769 406.089741456 221.860779377 414.068359375 262.864257812 c 5
373.122070312 602.942382812 m 5
 349.410481771 602.942382813 325.698893229 602.942382812 301.987304688 602.942382812 c 5
 344.323061127 665.295428457 386.659316861 727.647974806 428.99609375 790 c 5
 468.330729167 790 507.665364583 790 547 790 c 5
 489.040183522 727.647967519 431.08086634 665.295435743 373.122070312 602.942382812 c 5
382 64 m 5xb0
 319 6 254 -15 192 -15 c 4
 96 -15 24 31 44 137 c 4
 66 249 163 294 281 305 c 4
 337 310 400 320 428 332 c 5
 432 352 l 6
 448 433 402 463 333 463 c 4
 268 463 219 427 189 359 c 5
 107 378 l 5
 156 498 256 535 356 535 c 4
 495 535 544 465 519 334 c 6x70
 475 106 l 6
 464 53 468 19 483 0 c 5
 392 0 l 5
 378 14 380 39 382 64 c 5xb0
391 140 m 5
 415 263 l 5
 389 252 329 241 277 233 c 4
 220 224 153 212 139 141 c 4
 127 75 171 57 219 57 c 4
 286 57 357 105 391 140 c 5
548 790 m 5
 374 603 l 5
 303 603 l 5
 430 790 l 5xb0
 548 790 l 5
EndSplineSet
Fore
Refer: 345 180 N 1 0 0 1 271.232 63.0576 2
Refer: 63 97 N 1 0 0 1 0 0 3
Validated: 9
EndChar
StartChar: acircumflex
Encoding: 145 226 250
Width: 516
Flags: HMW
HStem: -15 72<195 223> 0 21G<392 483 392 392> 463 72<306 367.5> 600 160<207 434 207 434 431 434 357 522 431 431>
LayerCount: 2
Back
SplineSet
74.375 21.130859375 m 5
 43.89453125 136.922851562 l 5
 126.506835938 258.817382812 l 5
 280.985351562 304.9609375 l 5
 365.078125 315.850585938 l 5
 428.09375 331.984375 l 5
 429.455729167 338.654947917 430.817708333 345.325520833 432.1796875 351.99609375 c 5
 414.478515625 437.895507812 l 5
 333.106445312 462.993164062 l 5
 248.012695312 436.486328125 l 5
 189 359 l 5
 161.677768179 365.343132763 134.352295555 371.683024721 107.0234375 378.01953125 c 5
 212.423828125 501.532226562 l 5
 356.040039062 535.051757812 l 5
 499.072265625 483.680664062 l 5
 519.076171875 333.986328125 l 5
 504.426432292 257.986979167 489.776692708 181.987630208 475.126953125 105.98828125 c 5
 469.348632812 40.2333984375 l 5
 483.211914062 -0.005859375 l 5
 452.828450521 -0.005859375 422.444986979 -0.005859375 392.061523438 -0.005859375 c 5
 381.064453125 27.884765625 l 5
 382.139648438 64.0390625 l 5
 286.528320312 2.6708984375 l 5
 191.91796875 -15.1064453125 l 5
 74.375 21.130859375 l 5
415 262.936523438 m 5
 355.749023438 246.793945312 l 5
 276.982421875 232.911132812 l 5
 191.877929688 210.1484375 l 5
 139.047851562 140.841796875 l 5
 156.529296875 74.0869140625 l 5
 219.106445312 56.8681640625 l 5
 317.408203125 85.267578125 l 5
 391.06640625 139.924804688 l 5
 399.043610823 180.929370948 407.021465788 221.933286816 415 262.936523438 c 5
433.84765625 759.963867188 m 5
 463.231254903 706.620252299 492.614078602 653.275862456 521.99609375 599.930664062 c 5
 491.640299479 599.930664062 461.284505208 599.930664063 430.928710938 599.930664062 c 5
 415.277467928 633.593548658 399.627065023 667.257273356 383.977539062 700.921875 c 5
 354.344424889 667.258439695 324.711608033 633.594707071 295.079101562 599.930664062 c 5
 265.668619792 599.930664062 236.258138021 599.930664063 206.84765625 599.930664062 c 5
 256.854745933 653.276764483 306.863510382 706.621190139 356.874023438 759.963867188 c 5
 382.531901042 759.963867187 408.189778646 759.963867188 433.84765625 759.963867188 c 5
382 64 m 5xb0
 319 6 254 -15 192 -15 c 4
 96 -15 24 31 44 137 c 4
 66 249 163 294 281 305 c 4
 337 310 400 320 428 332 c 5
 432 352 l 6
 448 433 402 463 333 463 c 4
 268 463 219 427 189 359 c 5
 107 378 l 5
 156 498 256 535 356 535 c 4
 495 535 544 465 519 334 c 6
 475 106 l 6
 464 53 468 19 483 0 c 5
 392 0 l 5x70
 378 14 380 39 382 64 c 5xb0
391 140 m 5
 415 263 l 5
 389 252 329 241 277 233 c 4
 220 224 153 212 139 141 c 4
 127 75 171 57 219 57 c 4
 286 57 357 105 391 140 c 5
357 760 m 5
 434 760 l 5
 522 600 l 5
 431 600 l 5
 384 701 l 5
 295 600 l 5
 207 600 l 5xb0
 357 760 l 5
EndSplineSet
Fore
Refer: 169 94 N 1 0 0 1 8.03261 171.058 2
Refer: 63 97 N 1 0 0 1 0 0 3
Validated: 9
EndChar
StartChar: atilde
Encoding: 146 227 249
Width: 516
Flags: HMW
HStem: -15 72<195 223> 0 21G<392 483 392 392> 463 72<306 367.5> 610 75<431.5 445> 660 75<315 329.5>
LayerCount: 2
Back
SplineSet
74.5302734375 21.130859375 m 5
 44.060546875 136.922851562 l 5
 126.642578125 258.817382812 l 5
 281.151367188 304.9609375 l 5
 365.171875 315.850585938 l 5
 428.17578125 331.984375 l 5
 429.537760417 338.654947917 430.899739583 345.325520833 432.26171875 351.99609375 c 5
 414.623046875 437.895507812 l 5
 333.189453125 462.993164062 l 5
 248.021484375 436.486328125 l 5
 189 359 l 5
 161.705111309 365.343132142 134.406982426 371.683024092 107.10546875 378.01953125 c 5
 212.506835938 501.532226562 l 5
 356.122070312 535.05078125 l 5
 499.154296875 483.6796875 l 5
 519.158203125 333.985351562 l 5
 504.509295644 257.985821543 489.859888868 181.986790819 475.209960938 105.98828125 c 5
 469.422851562 40.2333984375 l 5
 483.212890625 -0.005859375 l 5
 452.857421875 -0.005859375 422.501953125 -0.005859375 392.146484375 -0.005859375 c 5
 381.138671875 27.884765625 l 5
 382.138671875 64.0390625 l 5
 286.724609375 2.669921875 l 5
 192.000976562 -15.1064453125 l 5
 74.5302734375 21.130859375 l 5
415.166015625 262.936523438 m 5
 355.915039062 246.793945312 l 5
 277.1484375 232.911132812 l 5
 191.971679688 210.147460938 l 5
 139.129882812 140.841796875 l 5
 156.643554688 74.0859375 l 5
 219.189453125 56.8681640625 l 5
 317.521484375 85.267578125 l 5
 391.149414062 139.923828125 l 5
 399.153779461 180.929228352 407.159296288 221.933477149 415.166015625 262.936523438 c 5
227.028320312 695.000976562 m 5
 279.984375 726.236328125 l 5
 329.186523438 734.94921875 l 5
 396.391601562 709.934570312 l 5
 456.029296875 684.912109375 l 5
 496.684570312 694.91796875 l 5
 550.098632812 734.94921875 l 5
 544.790039063 706.621744792 539.481445312 678.294270833 534.172851562 649.966796875 c 5
 480.456054688 618.690429688 l 5
 431.180664062 609.935546875 l 5
 364.454101562 634.950195312 l 5
 305.170898438 659.97265625 l 5
 260.627929688 649.966796875 l 5
 210.018554688 609.935546875 l 5
 215.689236438 638.289930229 221.35916932 666.645062451 227.028320312 695.000976562 c 5
382 64 m 5xa8
 319 6 254 -15 192 -15 c 4xb0
 96 -15 24 31 44 137 c 4xa8
 66 249 163 294 281 305 c 4
 337 310 400 320 428 332 c 5xb0
 432 352 l 6xa8
 448 433 402 463 333 463 c 4xb0
 268 463 219 427 189 359 c 5
 107 378 l 5
 156 498 256 535 356 535 c 4
 495 535 544 465 519 334 c 6
 475 106 l 6
 464 53 468 19 483 0 c 5
 392 0 l 5
 378 14 380 39 382 64 c 5xa8
391 140 m 5
 415 263 l 5
 389 252 329 241 277 233 c 4
 220 224 153 212 139 141 c 4
 127 75 171 57 219 57 c 4
 286 57 357 105 391 140 c 5
210 610 m 5
 227 695 l 5
 260 725 301 735 329 735 c 4
 388 735 407 685 456 685 c 4
 474 685 515 695 550 735 c 5
 534 650 l 5
 500 620 459 610 431 610 c 4
 372 610 354 660 305 660 c 4x70
 277 660 246 650 210 610 c 5
EndSplineSet
Fore
Refer: 181 126 N 1 0 0 1 54.453 325.069 2
Refer: 63 97 N 1 0 0 1 0 0 3
Validated: 1
EndChar
StartChar: adieresis
Encoding: 147 228 248
Width: 516
Flags: HMW
HStem: -15 72<195 223> 0 21G<392 483 392 392> 463 72<306 367.5> 620 100<252 325 234 343 252 414 432 505>
LayerCount: 2
Back
SplineSet
419.510742188 648.390625 m 1
 427.103515625 689.74609375 l 1
 458.921875 718.928710938 l 1
 496.328125 718.841796875 l 1
 517.409179688 689.537109375 l 1
 509.817382812 648.180664062 l 1
 478 619 l 1
 440.59375 619.0859375 l 1
 419.510742188 648.390625 l 1
239.510742188 649.390625 m 1
 247.103515625 690.74609375 l 1
 278.921875 719.928710938 l 1
 316.328125 719.841796875 l 1
 337.409179688 690.537109375 l 1
 329.817382812 649.180664062 l 1
 298 620 l 1
 260.59375 620.0859375 l 1
 239.510742188 649.390625 l 1
74.4111328125 21.115234375 m 5
 43.8984375 136.907226562 l 5
 126.521484375 258.79296875 l 5
 281.073242188 304.9453125 l 5
 365.092773438 315.834960938 l 5
 428.09765625 331.96875 l 5
 429.459635417 338.639322917 430.821614583 345.309895833 432.18359375 351.98046875 c 5
 414.545898438 437.879882812 l 5
 333.110351562 462.977539062 l 5
 247.974609375 436.470703125 l 5
 188.920898438 358.984375 l 5
 161.620083123 365.320929478 134.322510671 371.660726817 107.028320312 378.00390625 c 5
 212.385742188 501.516601562 l 5
 355.959960938 535.03515625 l 5
 498.9921875 483.6640625 l 5
 518.997070312 333.969726562 l 5
 504.375506582 257.970196543 489.753443556 181.971165819 475.130859375 105.97265625 c 5
 469.286132812 40.2099609375 l 5
 483.138671875 -0.0302734375 l 5
 452.782877604 -0.0302734375 422.427083333 -0.0302734375 392.071289062 -0.0302734375 c 5
 381.041992188 27.869140625 l 5
 382.151367188 64.0234375 l 5
 286.6015625 2.654296875 l 5
 191.930664062 -15.1220703125 l 5
 74.4111328125 21.115234375 l 5
414.921875 262.920898438 m 5
 355.721679688 246.778320312 l 5
 277.0703125 232.895507812 l 5
 191.892578125 210.131835938 l 5
 139.052734375 140.826171875 l 5
 156.533203125 74.0703125 l 5
 219.110351562 56.8525390625 l 5
 317.444335938 85.244140625 l 5
 391.0703125 139.908203125 l 5
 399.020725144 180.912543085 406.971244449 221.916776384 414.921875 262.920898438 c 5
74.4111328125 21.115234375 m 1
 43.8984375 136.907226562 l 1
 126.521484375 258.79296875 l 1
 281.073242188 304.9453125 l 1
 365.092773438 315.834960938 l 1
 428.09765625 331.96875 l 1
 429.459635417 338.639322917 430.821614583 345.309895833 432.18359375 351.98046875 c 1
 414.545898438 437.879882812 l 1
 333.110351562 462.977539062 l 1
 247.974609375 436.470703125 l 1
 188.920898438 358.984375 l 1
 161.620083123 365.320929478 134.322510671 371.660726817 107.028320312 378.00390625 c 1
 212.385742188 501.516601562 l 1
 355.959960938 535.03515625 l 1
 498.9921875 483.6640625 l 1
 518.997070312 333.969726562 l 1
 504.375506582 257.970196543 489.753443556 181.971165819 475.130859375 105.97265625 c 1
 469.286132812 40.2099609375 l 1
 483.138671875 -0.0302734375 l 1
 452.782877604 -0.0302734375 422.427083333 -0.0302734375 392.071289062 -0.0302734375 c 1
 381.041992188 27.869140625 l 1
 382.151367188 64.0234375 l 1
 286.6015625 2.654296875 l 1
 191.930664062 -15.1220703125 l 1
 74.4111328125 21.115234375 l 1
414.921875 262.920898438 m 1
 355.721679688 246.778320312 l 1
 277.0703125 232.895507812 l 1
 191.892578125 210.131835938 l 1
 139.052734375 140.826171875 l 1
 156.533203125 74.0703125 l 1
 219.110351562 56.8525390625 l 1
 317.444335938 85.244140625 l 1
 391.0703125 139.908203125 l 1
 399.020725144 180.912543085 406.971244449 221.916776384 414.921875 262.920898438 c 1
233.955078125 620.008789062 m 5
 239.959661813 653.338840791 245.963898666 686.669239354 251.967773438 720 c 5
 282.295898437 720 312.624023437 720 342.952148438 720 c 5
 336.974753835 686.670102936 330.997858528 653.339706577 325.021484375 620.008789062 c 5
 294.666015625 620.008789062 264.310546875 620.008789063 233.955078125 620.008789062 c 5
413.919921875 620.008789062 m 5
 419.952396324 653.339270343 425.984947288 686.669675108 432.017578125 720 c 5
 462.345052083 720 492.672526042 720 523 720 c 5
 516.995261647 686.670102936 510.99102259 653.339706577 504.987304688 620.008789062 c 5
 474.631510417 620.008789062 444.275716146 620.008789063 413.919921875 620.008789062 c 5
382 64 m 5x70
 319 6 254 -15 192 -15 c 4
 96 -15 24 31 44 137 c 4
 66 249 163 294 281 305 c 4
 337 310 400 320 428 332 c 5
 432 352 l 6
 448 433 402 463 333 463 c 4
 268 463 219 427 189 359 c 5
 107 378 l 5
 156 498 256 535 356 535 c 4
 495 535 544 465 519 334 c 6
 475 106 l 6
 464 53 468 19 483 0 c 5
 392 0 l 5
 378 14 380 39 382 64 c 5x70
391 140 m 5
 415 263 l 5
 389 252 329 241 277 233 c 4
 220 224 153 212 139 141 c 4
 127 75 171 57 219 57 c 4
 286 57 357 105 391 140 c 5
325 620 m 5
 234 620 l 5
 252 720 l 5
 343 720 l 5
 325 620 l 5
505 620 m 5
 414 620 l 5
 432 720 l 5
 523 720 l 5xb0
 505 620 l 5
EndSplineSet
Fore
Refer: 346 168 N 1 0 0 1 172.098 74.6846 2
Refer: 63 97 N 1 0 0 1 0 0 3
Validated: 1
EndChar
StartChar: aring
Encoding: 148 229 247
Width: 516
Flags: HMW
HStem: -15 72<195 223> 0 21G<392 483 483 483> 463 72<306 367.5> 605 62<367.5 405 367.5 410> 667 135<393.5 405> 802 63<393.5 431>
LayerCount: 2
Back
SplineSet
286.4765625 2.6005859375 m 5
 191.896484375 -15.1259765625 l 5
 74.39453125 21.111328125 l 5
 43.955078125 136.903320312 l 5
 126.473632812 258.790039062 l 5
 281.044921875 304.94140625 l 5
 365.107421875 315.831054688 l 5
 428.153320312 331.96484375 l 5
 429.487304688 338.635416667 430.821289062 345.305989583 432.155273438 351.9765625 c 5
 414.486328125 437.875976562 l 5
 333.083007812 462.973632812 l 5
 248 436.466796875 l 5
 189.060546875 358.98046875 l 5
 161.703740709 365.317021959 134.350178653 371.656819278 107 378 c 5
 212.400390625 501.512695312 l 5
 356.015625 535.03125 l 5
 499.111328125 483.66015625 l 5
 519.052734375 333.965820312 l 5
 504.403762364 257.966029303 489.754033792 181.966994854 475.103515625 105.96875 c 5
 469.350585938 40.2060546875 l 5
 483.109375 -0.0341796875 l 5
 452.78125 -0.0341796875 422.453125 -0.0341796875 392.125 -0.0341796875 c 5
 380.9609375 27.7822265625 l 5
 381.870117188 63.8525390625 l 5
 381.872070312 63.8525390625 l 5
 286.4765625 2.6005859375 l 5
414.893554688 262.916992188 m 5
 355.641601562 246.774414062 l 5
 276.875976562 232.891601562 l 5
 191.771484375 210.127929688 l 5
 138.94140625 140.822265625 l 5
 156.412109375 74.06640625 l 5
 218.916015625 56.8486328125 l 5
 317.342773438 85.240234375 l 5
 390.875976562 139.904296875 l 5
 398.883428486 180.906936097 406.889310506 221.911145223 414.893554688 262.916992188 c 5
268.870117188 735.012695312 m 1
 325.526367188 826.673828125 l 1
 424.901367188 865.104492188 l 1
 509.119140625 826.69921875 l 1
 528.977539062 735.012695312 l 1
 473.197265625 643.018554688 l 1
 373.947265625 604.997070312 l 1
 289.510742188 643.018554688 l 1
 268.870117188 735.012695312 l 1
330.916015625 735.012695312 m 1
 341.87109375 686.768554688 l 1
 385.7890625 667.041015625 l 1
 437.452148438 686.768554688 l 1
 465.84765625 735.012695312 l 1
 456.163085938 782.415039062 l 1
 411.891601562 802.059570312 l 1
 360.48828125 782.415039062 l 1
 330.916015625 735.012695312 l 1
382 64 m 5xa8
 380 39 378 14 392 0 c 5
 483 0 l 5x68
 468 19 464 53 475 106 c 6
 519 334 l 6
 544 465 495 535 356 535 c 4
 256 535 156 498 107 378 c 5
 189 359 l 5
 219 427 268 463 333 463 c 4
 402 463 448 433 432 352 c 6
 428 332 l 5
 400 320 337 310 281 305 c 4
 163 294 66 249 44 137 c 4
 24 31 96 -15 192 -15 c 4
 254 -15 319 6 382 64 c 5xa8
415 263 m 5
 391 140 l 5
 357 105 286 57 219 57 c 4xb4
 171 57 127 75 139 141 c 4
 153 212 220 224 277 233 c 4
 329 241 389 252 415 263 c 5
269 735 m 4
 283 806 354 865 425 865 c 4
 497 865 543 806 529 735 c 4
 515 663 446 605 374 605 c 4
 303 605 255 663 269 735 c 4
331 735 m 4
 324 697 349 667 386 667 c 4
 424 667 459 697 466 735 c 4
 474 772 450 802 412 802 c 4
 375 802 339 772 331 735 c 4
EndSplineSet
Fore
SplineSet
381.927734375 64.0458984375 m 5x60
 286.420898438 2.6767578125 l 5
 191.790039062 -15.099609375 l 5
 74.1826171875 21.1376953125 l 5
 43.7646484375 136.928710938 l 5
 126.3046875 258.82421875 l 5
 280.772460938 304.966796875 l 5
 364.833984375 315.856445312 l 5
 427.879882812 331.991210938 l 5
 431.965820312 352.002929688 l 5
 414.296875 437.901367188 l 5
 332.893554688 463 l 5
 247.767578125 436.493164062 l 5
 188.787109375 359.006835938 l 5
 131 406 l 5
 212.293945312 501.538085938 l 5
 355.91015625 535.057617188 l 5
 498.87890625 483.686523438 l 5
 518.946289062 333.9921875 l 5
 451 -15 l 5xa0
 368 0 l 5
 381.927734375 64.0458984375 l 5x60
414.787109375 262.943359375 m 5
 355.544921875 246.80078125 l 5
 276.852539062 232.916992188 l 5
 191.665039062 210.154296875 l 5
 138.750976562 140.84765625 l 5
 156.327148438 74.0927734375 l 5
 218.810546875 56.875 l 5
 317.247070312 85.2744140625 l 5
 390.853515625 139.930664062 l 5
 414.787109375 262.943359375 l 5
268.870117188 735.012695312 m 1
 325.526367188 826.673828125 l 1
 424.901367188 865.104492188 l 1
 509.119140625 826.69921875 l 1
 528.977539062 735.012695312 l 1
 473.197265625 643.018554688 l 1
 373.947265625 604.997070312 l 1
 289.510742188 643.018554688 l 1
 268.870117188 735.012695312 l 1
330.916015625 735.012695312 m 1
 341.87109375 686.768554688 l 1
 385.7890625 667.041015625 l 1
 437.452148438 686.768554688 l 1
 465.84765625 735.012695312 l 1
 456.163085938 782.415039062 l 1
 411.891601562 802.059570312 l 1
 360.48828125 782.415039062 l 1
 330.916015625 735.012695312 l 1
EndSplineSet
Validated: 1
EndChar
StartChar: ae
Encoding: 149 230 344
Width: 863
Flags: HMW
HStem: -15 75<588.5 656.5 588.5 662.5> 237 72<523 687 507 700> 463 72<323 384.5>
VStem: 806 87
LayerCount: 2
Back
SplineSet
869 158 m 5
 816 42 719 -15 606 -15 c 4
 531 -15 475 13 443 64 c 5
 377 11 307 -15 239 -15 c 4
 123 -15 49 34 61 137 c 4
 74 249 180 294 298 305 c 4
 354 310 407 320 435 332 c 5
 436 339 438 345 439 352 c 4
 455 433 419 463 350 463 c 4
 285 463 237 427 205 359 c 5
 178 365 151 372 124 378 c 5
 173 498 273 535 373 535 c 4
 457 535 499 507 521 458 c 5
 572 508 638 535 712 535 c 4
 841 535 893 452 893 389 c 4
 893 270 793 237 687 237 c 6
 507 237 l 5
 490 112 551 60 626 60 c 4
 687 60 754 98 787 176 c 5
 814 170 842 164 869 158 c 5
257 57 m 4
 324 57 372 80 420 120 c 5
 412 149 411 183 415 221 c 4
 416 234 418 246 421 261 c 5
 394 250 344 240 294 233 c 4
 237 224 165 211 156 141 c 4
 148 75 199 57 257 57 c 4
698 460 m 4
 636 460 560 415 523 309 c 5
 700 309 l 6
 762 309 803 327 806 386 c 4
 808 435 755 460 698 460 c 4
EndSplineSet
Fore
SplineSet
605.876953125 -15.1064453125 m 1
 508.252929688 5.24609375 l 1
 442.840820312 63.8720703125 l 1
 341.568359375 4.49609375 l 1
 238.857421875 -15.1064453125 l 1
 101.830078125 22.255859375 l 1
 60.810546875 136.921875 l 1
 139.952148438 258.80859375 l 1
 297.900390625 304.959960938 l 1
 376.927734375 315.849609375 l 1
 435.001953125 331.984375 l 1
 438.920898438 351.99609375 l 1
 426.380859375 437.89453125 l 1
 350.10546875 462.993164062 l 1
 265.200195312 436.486328125 l 1
 205 359 l 1
 147 405 l 1
 229.413085938 501.53125 l 1
 372.956054688 535.05078125 l 1
 470.330078125 514.922851562 l 1
 520.981445312 458.073242188 l 1
 607.806640625 515.323242188 l 1
 711.955078125 535.05078125 l 1
 850.890625 485.647460938 l 1
 893.004882812 389.025390625 l 1
 829.750976562 268.380859375 l 1
 686.936523438 236.99609375 l 1
 506.970703125 236.99609375 l 1
 531.948242188 101.59375 l 1
 625.975585938 59.953125 l 1
 716.979492188 88.7109375 l 1
 787.09375 175.953125 l 1
 847 132 l 5
 759.897460938 27.91796875 l 1
 605.876953125 -15.1064453125 l 1
419.82421875 119.912109375 m 1
 412.811523438 167.03125 l 1
 414.73828125 220.903320312 l 1
 416.989257812 240.165039062 l 1
 420.741210938 260.926757812 l 1
 365.84765625 245.41796875 l 1
 293.815429688 232.91015625 l 1
 206.73046875 209.772460938 l 1
 155.796875 140.840820312 l 1
 181.53515625 74.0859375 l 1
 256.87109375 56.8681640625 l 1
 345.478515625 73.376953125 l 1
 419.82421875 119.912109375 l 1
522.815429688 308.962890625 m 1
 699.862304688 308.962890625 l 1
 775.001953125 325.338867188 l 1
 805.857421875 385.940429688 l 1
 773.969726562 441.35546875 l 1
 697.861328125 459.991210938 l 1
 600.98828125 424.220703125 l 1
 522.815429688 308.962890625 l 1
EndSplineSet
Validated: 1
EndChar
StartChar: ccedilla
Encoding: 150 231 246
Width: 513
Flags: HMW
HStem: -200 41<207 222 207 227.5> -75 40<227 238 227 238> -15 75<239 253 239 239> 357 178<287 541 287 456> 460 75<305.5 375.5>
LayerCount: 2
Back
SplineSet
253 -117 m 4xe8
 259 -87 246 -75 230 -75 c 4
 216 -75 205 -83 197 -100 c 5
 163 -86 l 5
 208 -11 l 5
 94 8 38 107 68 260 c 4
 102 432 215 535 359 535 c 4
 471 535 555 476 541 357 c 5
 456 357 l 5xf0
 464 440 406 460 345 460 c 4
 266 460 186 402 158 260 c 4
 131 118 189 60 268 60 c 4
 329 60 384 95 419 177 c 5
 502 157 l 5
 453 48 365 -15 253 -15 c 6
 239 -15 l 5
 227 -35 l 5
 238 -35 l 6
 281 -35 303 -65 293 -117 c 4
 283 -169 249 -200 206 -200 c 4
 172 -200 152 -181 151 -148 c 5
 190 -135 l 5
 192 -152 200 -159 214 -159 c 4
 230 -159 247 -147 253 -117 c 4xe8
EndSplineSet
Fore
SplineSet
227.939453125 -35.033203125 m 1xf0
 238.86328125 -35.033203125 l 1
 286.2421875 -56.537109375 l 1
 293.904296875 -117.013671875 l 1
 262.797851562 -178.014648438 l 1
 206.923828125 -199.986328125 l 1
 167.01953125 -186.353515625 l 1
 151.883789062 -147.948242188 l 1
 190.912109375 -134.940429688 l 1
 198.416015625 -153.326171875 l 1
 214.928710938 -158.99609375 l 1
 238.154296875 -149.249023438 l 1
 253.874023438 -117.046875 l 1
 250.6640625 -84.76953125 l 1
 230.938476562 -75.0224609375 l 1
 212.173828125 -81.109375 l 1
 197.9140625 -99.9951171875 l 1
 163.97265625 -85.9873046875 l 1
 208.921875 -11.01953125 l 1
 84.9248046875 74.24609375 l 1
 68.8193359375 260.01171875 l 1
 173.125 462.052734375 l 1
 359.866210938 535.052734375 l 1
 498.217773438 490.65234375 l 1
 534 381 l 1
 456.9375 357 l 1
 427.259765625 439.647460938 l 1
 345.85546875 459.993164062 l 1
 233.262695312 413.215820312 l 1
 158.884765625 259.927734375 l 1
 174.104492188 106.690429688 l 1
 268.8828125 59.955078125 l 1
 354.1328125 87.6787109375 l 1
 419.993164062 176.955078125 l 1
 484 133 l 5
 402.022460938 30.087890625 l 1
 253.87109375 -15.021484375 l 1
 239.86328125 -15.021484375 l 1
 227.939453125 -35.033203125 l 1xf0
EndSplineSet
Validated: 1
EndChar
StartChar: egrave
Encoding: 151 232 245
Width: 510
Flags: HMW
HStem: -15 75<235.5 303.5 235.5 309.5> 237 72<170 334 154 347> 309 151<314 347 347 373.5 314 379> 460 75<314 373.5> 603 187<343 352 240 408 343 343>
VStem: 453 87
LayerCount: 2
Back
SplineSet
516 158 m 5xac
 463 42 366 -15 253 -15 c 4
 109 -15 35 88 68 260 c 4
 102 432 215 535 359 535 c 4
 488 535 540 452 540 389 c 4
 539 270 441 237 334 237 c 6
 154 237 l 5
 137 112 198 60 273 60 c 4
 334 60 401 98 434 176 c 5
 516 158 l 5xac
345 460 m 4
 283 460 207 415 170 309 c 5
 347 309 l 6xdc
 411 309 451 327 453 386 c 4
 455 435 402 460 345 460 c 4
352 790 m 5
 408 603 l 5
 343 603 l 5
 240 790 l 5
 352 790 l 5
EndSplineSet
Fore
Refer: 182 96 N 1 0 0 1 82.1698 62.1084 2
Refer: 67 101 N 1 0 0 1 0 0 3
Validated: 1
EndChar
StartChar: eacute
Encoding: 152 233 244
Width: 510
Flags: HMW
HStem: -15 75<235.5 303.5 235.5 309.5> 237 72<170 334 154 347> 309 151<314 347 347 373.5 314 379> 460 75<314 373.5> 770 20G<430 548 548 548>
VStem: 453 87
LayerCount: 2
Back
SplineSet
516 158 m 5xac
 463 42 366 -15 253 -15 c 4
 109 -15 35 88 68 260 c 4
 102 432 215 535 359 535 c 4
 488 535 540 452 540 389 c 4
 539 270 441 237 334 237 c 6
 154 237 l 5
 137 112 198 60 273 60 c 4
 334 60 401 98 434 176 c 5
 516 158 l 5xac
345 460 m 4
 283 460 207 415 170 309 c 5
 347 309 l 6xdc
 411 309 451 327 453 386 c 4
 455 435 402 460 345 460 c 4
548 790 m 5
 374 603 l 5
 303 603 l 5
 430 790 l 5
 548 790 l 5
EndSplineSet
Fore
Refer: 345 180 N 1 0 0 1 274.29 63.1084 2
Refer: 67 101 N 1 0 0 1 0 0 3
Validated: 9
EndChar
StartChar: ecircumflex
Encoding: 153 234 243
Width: 510
Flags: HMW
HStem: -15 75<235.5 303.5 235.5 309.5> 237 72<170 334 154 347> 309 151<314 347 347 373.5 314 379> 460 75<314 373.5> 535 225<367 423.5>
VStem: 453 87
LayerCount: 2
Back
SplineSet
516 158 m 5xcc
 463 42 366 -15 253 -15 c 4
 109 -15 35 88 68 260 c 4xac
 102 432 215 535 359 535 c 4
 488 535 540 452 540 389 c 4
 539 270 441 237 334 237 c 6
 154 237 l 5
 137 112 198 60 273 60 c 4
 334 60 401 98 434 176 c 5
 516 158 l 5xcc
345 460 m 4
 283 460 207 415 170 309 c 5
 347 309 l 6
 411 309 451 327 453 386 c 4
 455 435 402 460 345 460 c 4
367 760 m 5
 444 760 l 5xd4
 532 600 l 5
 441 600 l 5
 394 701 l 5
 305 600 l 5
 217 600 l 5
 367 760 l 5
EndSplineSet
Fore
Refer: 169 94 N 1 0 0 1 11.0902 171.108 2
Refer: 67 101 N 1 0 0 1 0 0 3
Validated: 9
EndChar
StartChar: edieresis
Encoding: 154 235 242
Width: 510
Flags: HMW
HStem: -15 75<235.5 303.5 235.5 309.5> 237 72<170 334 154 347> 309 151<314 347 347 373.5 314 379> 460 75<314 373.5> 620 100<248 321 230 339 248 430 448 521>
VStem: 453 87
LayerCount: 2
Back
SplineSet
252.970703125 -15.130859375 m 1
 94.009765625 57.869140625 l 1
 67.833984375 259.90234375 l 1
 172.108398438 461.943359375 l 1
 358.880859375 534.943359375 l 1
 497.78515625 485.540039062 l 1
 539.930664062 388.91796875 l 1
 476.64453125 268.282226562 l 1
 333.862304688 236.888671875 l 1
 273.874023437 236.888671875 213.885742188 236.888671875 153.897460938 236.888671875 c 1
 178.842773438 101.486328125 l 1
 272.901367188 59.845703125 l 1
 363.905273438 88.603515625 l 1
 434.01953125 175.845703125 l 1
 461.316876231 169.841615814 488.614720507 163.838027798 515.913085938 157.834960938 c 1
 407.020507812 27.876953125 l 1
 252.970703125 -15.130859375 l 1
169.9921875 308.938476562 m 1
 229.0078125 308.938476563 288.0234375 308.938476562 347.0390625 308.938476562 c 1
 423.303710938 325.314453125 l 1
 453.033203125 385.916015625 l 1
 421.134765625 441.331054688 l 1
 344.954101562 459.966796875 l 1
 248.091796875 424.196289062 l 1
 169.9921875 308.938476562 l 1
229.953125 620 m 5
 235.984844981 653.330910228 242.017064257 686.66132116 248.049804688 719.991210938 c 5
 278.405273437 719.991210937 308.760742188 719.991210938 339.116210938 719.991210938 c 5
 333.084232266 686.660884922 327.05233011 653.33048239 321.020507812 620 c 5
 290.664713542 620 260.308919271 620 229.953125 620 c 5
430.016601562 620 m 5
 436.021081525 653.330480975 442.025637702 686.660885736 448.030273438 719.991210938 c 5
 478.385742187 719.991210938 508.741210938 719.991210937 539.096679688 719.991210938 c 5
 533.064804452 686.660455965 527.032582922 653.330047286 521 620 c 5
 490.672200521 620 460.344401042 620 430.016601562 620 c 5
516 158 m 5xac
 463 42 366 -15 253 -15 c 4
 109 -15 35 88 68 260 c 4
 102 432 215 535 359 535 c 4
 488 535 540 452 540 389 c 4
 539 270 441 237 334 237 c 6
 154 237 l 5
 137 112 198 60 273 60 c 4
 334 60 401 98 434 176 c 5
 516 158 l 5xac
345 460 m 4
 283 460 207 415 170 309 c 5
 347 309 l 6
 411 309 451 327 453 386 c 4
 455 435 402 460 345 460 c 4
321 620 m 5
 230 620 l 5
 248 720 l 5xdc
 339 720 l 5
 321 620 l 5
521 620 m 5
 430 620 l 5
 448 720 l 5
 539 720 l 5
 521 620 l 5
EndSplineSet
Fore
Refer: 346 168 N 1 0 0 1 175.539 74.7354 2
Refer: 67 101 N 1 0 0 1 0 0 3
Validated: 1
EndChar
StartChar: iacute
Encoding: 156 237 240
Width: 218
Flags: HMW
HStem: 0 21G<60 150 60 60> 500 20G<159 249 249 249> 770 20G<290 408 408 408>
LayerCount: 2
Back
Fore
SplineSet
150 0 m 1
 60 0 l 1
 159 520 l 1
 249 520 l 1
 150 0 l 1
408 790 m 5
 234 603 l 5
 163 603 l 5
 290 790 l 5
 408 790 l 5
EndSplineSet
Validated: 1
EndChar
StartChar: icircumflex
Encoding: 157 238 239
Width: 218
Flags: HMW
HStem: 0 21G<60 150 60 60> 500 20G<159 249 249 249> 600 160<67 294 67 294 291 294 217 382 291 291>
LayerCount: 2
Back
Fore
SplineSet
150 0 m 1
 60 0 l 1
 159 520 l 1
 249 520 l 1
 150 0 l 1
217 760 m 1
 294 760 l 1
 382 600 l 1
 291 600 l 1
 244 701 l 1
 155 600 l 1
 67 600 l 1
 217 760 l 1
EndSplineSet
Validated: 1
EndChar
StartChar: idieresis
Encoding: 158 239 238
Width: 218
Flags: MW
HStem: 0 21G<60 150 60 60> 500 20G<159 249 249 249> 619 101<128 199 109 218 128 249 268 339>
LayerCount: 2
Back
Fore
SplineSet
199 619 m 1
 109 619 l 1
 128 720 l 1
 218 720 l 1
 199 619 l 1
150 0 m 1
 60 0 l 1
 159 520 l 1
 249 520 l 1
 150 0 l 1
339 619 m 1
 249 619 l 1
 268 720 l 1
 358 720 l 1
 339 619 l 1
EndSplineSet
Validated: 1
EndChar
StartChar: eth
Encoding: 159 240 237
Width: 533
Flags: HMW
HStem: -15 75<242.5 311.5 242.5 329> 440 75<302.5 369.5 270 381.5> 801 20G<366 366>
LayerCount: 2
Back
SplineSet
434 797 m 5
 408 727 l 5
 550 649 589 459 547 250 c 4
 512 78 401 -15 257 -15 c 4
 143 -15 35 78 66 250 c 4
 97 422 208 515 332 515 c 4
 407 515 458 477 480 442 c 5
 484 514 446 594 378 643 c 5
 356 583 l 5
 288 607 l 5
 313 676 l 5
 288 685 261 690 231 690 c 5
 245 765 l 5
 280 765 312 760 341 753 c 5
 366 821 l 5
 434 797 l 5
156 250 m 4
 129 108 213 60 272 60 c 4
 351 60 435 108 462 250 c 4
 490 392 416 440 347 440 c 4
 258 440 184 392 156 250 c 4
EndSplineSet
Fore
SplineSet
408.252929688 726.943359375 m 5
 546.75 537.525390625 l 5
 547.25 249.84375 l 5
 443.1015625 52.814453125 l 5
 257.205078125 -15.18359375 l 5
 107.260742188 52.814453125 l 5
 66.1474609375 249.84375 l 5
 164.240234375 446.840820312 l 5
 332.009765625 514.87109375 l 5
 425.973632812 491.491210938 l 5
 480.034179688 441.904296875 l 5
 456.02734375 551.033203125 l 5
 378.04296875 642.969726562 l 5
 370.650226039 622.953940627 363.256041784 602.939596237 355.860351562 582.926757812 c 5
 333.232747396 590.931315104 310.605143229 598.935872396 287.977539062 606.940429688 c 5
 296.317675002 629.955436977 304.656881035 652.971374173 312.995117188 675.98828125 c 5
 273.8515625 686.377929688 l 5
 231.018554688 690.046875 l 5
 235.688442097 715.035841758 240.358042524 740.025095497 245.02734375 765.014648438 c 5
 295.334960938 761.6796875 l 5
 341.014648438 753.049804688 l 5
 349.355763922 775.702829828 357.695304651 798.357429724 366.033203125 821.013671875 c 5
 388.688802083 813.009114583 411.344401042 805.004557292 434 797 c 5
 425.397665319 773.667764369 416.815065108 750.315794267 408.252929688 726.943359375 c 5
272.3203125 59.876953125 m 5
 386.821289062 101.650390625 l 5
 462.291992188 249.927734375 l 5
 441.15234375 398.212890625 l 5
 347.208007812 439.986328125 l 5
 228.891601562 398.212890625 l 5
 156.234375 249.927734375 l 5
 182.03515625 101.6171875 l 5
 272.3203125 59.876953125 l 5
EndSplineSet
Validated: 1
EndChar
StartChar: ntilde
Encoding: 160 241 236
Width: 545
Flags: HMW
HStem: 0 21G<60 150 60 60 395 395 395 485> 459 61 459 76<372 415> 610 75<451.5 465> 660 75<335 349.5>
LayerCount: 2
Back
SplineSet
150 0 m 5xd0
 60 0 l 5
 159 520 l 5xc8
 240 520 l 5xd0
 226 445 l 5
 276 509 336 535 408 535 c 4xc8
 552 535 569 443 546 319 c 6xd0
 485 0 l 5xc8
 395 0 l 5
 455 315 l 6
 472 405 454 459 376 459 c 4
 294 459 225 397 203 283 c 6
 150 0 l 5xd0
230 610 m 5
 247 695 l 5
 280 725 321 735 349 735 c 4
 408 735 427 685 476 685 c 4
 494 685 535 695 570 735 c 5
 554 650 l 5
 520 620 479 610 451 610 c 4xb0
 392 610 374 660 325 660 c 4
 297 660 266 650 230 610 c 5
EndSplineSet
Fore
Refer: 181 126 N 1 0 0 1 73.3426 325.028 2
Refer: 76 110 N 1 0 0 1 0 0 3
Validated: 1
EndChar
StartChar: ograve
Encoding: 161 242 235
Width: 532
Flags: HMW
HStem: -15 75<233.5 312.5 233.5 330> 460 75<310.5 389.5> 603 187<353 362 250 418 353 353>
LayerCount: 2
Back
SplineSet
68 260 m 4
 102 432 220 535 364 535 c 4
 508 535 588 432 554 260 c 4
 521 88 402 -15 258 -15 c 4
 114 -15 35 88 68 260 c 4
158 260 m 4
 131 118 194 60 273 60 c 4
 352 60 437 118 464 260 c 4
 492 402 429 460 350 460 c 4
 271 460 186 402 158 260 c 4
362 790 m 5
 418 603 l 5
 353 603 l 5
 250 790 l 5
 362 790 l 5
EndSplineSet
Fore
Refer: 182 96 N 1 0 0 1 120.844 62 2
Refer: 77 111 N 1 0 0 1 0 0 3
Validated: 1
EndChar
StartChar: oacute
Encoding: 162 243 234
Width: 532
Flags: HMW
HStem: -15 75<233.5 312.5 233.5 330> 460 75<310.5 389.5> 770 20G<430 548 548 548>
LayerCount: 2
Back
SplineSet
68 260 m 4
 102 432 220 535 364 535 c 4
 508 535 588 432 554 260 c 4
 521 88 402 -15 258 -15 c 4
 114 -15 35 88 68 260 c 4
158 260 m 4
 131 118 194 60 273 60 c 4
 352 60 437 118 464 260 c 4
 492 402 429 460 350 460 c 4
 271 460 186 402 158 260 c 4
548 790 m 5
 374 603 l 5
 303 603 l 5
 430 790 l 5
 548 790 l 5
EndSplineSet
Fore
Refer: 345 180 N 1 0 0 1 279.464 62 2
Refer: 77 111 N 1 0 0 1 0 0 3
Validated: 9
EndChar
StartChar: ocircumflex
Encoding: 163 244 233
Width: 532
Flags: HMW
HStem: -15 75<233.5 312.5 233.5 330> 460 75<310.5 389.5> 535 225<377 436>
LayerCount: 2
Back
SplineSet
68 260 m 4xa0
 102 432 220 535 364 535 c 4
 508 535 588 432 554 260 c 4
 521 88 402 -15 258 -15 c 4
 114 -15 35 88 68 260 c 4xa0
158 260 m 4
 131 118 194 60 273 60 c 4
 352 60 437 118 464 260 c 4
 492 402 429 460 350 460 c 4
 271 460 186 402 158 260 c 4
377 760 m 5
 454 760 l 5xc0
 542 600 l 5
 451 600 l 5
 404 701 l 5
 315 600 l 5
 227 600 l 5
 377 760 l 5
EndSplineSet
Fore
Refer: 169 94 N 1 0 0 1 9.31099 155 2
Refer: 77 111 N 1 0 0 1 0 0 3
Validated: 9
EndChar
StartChar: otilde
Encoding: 164 245 232
Width: 532
Flags: HMW
HStem: -15 75<233.5 312.5 233.5 330> 460 75<310.5 389.5> 660 25 660 75<325 339.5>
LayerCount: 2
Back
SplineSet
68 260 m 4xd0
 102 432 220 535 364 535 c 4
 508 535 588 432 554 260 c 4
 521 88 402 -15 258 -15 c 4
 114 -15 35 88 68 260 c 4xd0
158 260 m 4xe0
 131 118 194 60 273 60 c 4
 352 60 437 118 464 260 c 4
 492 402 429 460 350 460 c 4xd0
 271 460 186 402 158 260 c 4xe0
220 610 m 5
 237 695 l 5
 270 725 311 735 339 735 c 4
 398 735 417 685 466 685 c 4
 484 685 525 695 560 735 c 5
 544 650 l 5
 510 620 469 610 441 610 c 4
 382 610 364 660 315 660 c 4
 287 660 256 650 220 610 c 5
EndSplineSet
Fore
Refer: 181 126 N 1 0 0 1 62.6845 324.012 2
Refer: 77 111 N 1 0 0 1 0 0 3
Validated: 1
EndChar
StartChar: odieresis
Encoding: 165 246 231
Width: 532
Flags: HMW
HStem: -15 75<233.5 312.5 233.5 330> 460 75<310.5 389.5> 620 100<262 335 244 353 262 424 442 515>
LayerCount: 2
Back
SplineSet
363.971679688 534.943359375 m 1
 525.767578125 461.943359375 l 1
 554.028320312 259.90234375 l 1
 447.575195312 57.90234375 l 1
 257.810546875 -15.130859375 l 1
 96.431640625 57.869140625 l 1
 67.837890625 259.90234375 l 1
 174.65625 461.943359375 l 1
 363.971679688 534.943359375 l 1
272.905273438 59.9287109375 m 1
 387.884765625 106.655273438 l 1
 463.961914062 259.90234375 l 1
 447.084960938 413.190429688 l 1
 349.961914062 459.966796875 l 1
 234.825195312 413.190429688 l 1
 157.903320312 259.90234375 l 1
 175.65625 106.655273438 l 1
 272.905273438 59.9287109375 l 1
243.883789062 620 m 5
 249.916366932 653.330052339 255.948598568 686.660450911 261.98046875 719.991210938 c 5
 292.336263021 719.991210938 322.692057292 719.991210937 353.047851562 719.991210938 c 5
 347.043216939 686.660884623 341.038658537 653.330482088 335.034179688 620 c 5
 304.650716146 620 274.267252604 620 243.883789062 620 c 5
424.015625 620 m 5
 430.020104962 653.330480975 436.024661139 686.660885736 442.029296875 719.991210938 c 5
 472.412760417 719.991210937 502.796223958 719.991210938 533.1796875 719.991210938 c 5
 527.119713732 686.660885227 521.05981678 653.330482699 515 620 c 5
 484.671875 620 454.34375 620 424.015625 620 c 5
68 260 m 4
 102 432 220 535 364 535 c 4
 508 535 588 432 554 260 c 4
 521 88 402 -15 258 -15 c 4
 114 -15 35 88 68 260 c 4
158 260 m 4
 131 118 194 60 273 60 c 4
 352 60 437 118 464 260 c 4
 492 402 429 460 350 460 c 4
 271 460 186 402 158 260 c 4
335 620 m 5
 244 620 l 5
 262 720 l 5
 353 720 l 5
 335 620 l 5
515 620 m 5
 424 620 l 5
 442 720 l 5
 533 720 l 5
 515 620 l 5
EndSplineSet
Fore
SplineSet
429.510742188 648.390625 m 5
 437.103515625 689.74609375 l 5
 468.921875 718.928710938 l 5
 506.328125 718.841796875 l 5
 527.409179688 689.537109375 l 5
 519.817382812 648.180664062 l 5
 488 619 l 5
 450.59375 619.0859375 l 5
 429.510742188 648.390625 l 5
249.510742188 649.390625 m 5
 257.103515625 690.74609375 l 5
 288.921875 719.928710938 l 5
 326.328125 719.841796875 l 5
 347.409179688 690.537109375 l 5
 339.817382812 649.180664062 l 5
 308 620 l 5
 270.59375 620.0859375 l 5
 249.510742188 649.390625 l 5
363.971679688 534.943359375 m 1
 525.767578125 461.943359375 l 1
 554.028320312 259.90234375 l 1
 447.575195312 57.90234375 l 1
 257.810546875 -15.130859375 l 1
 96.431640625 57.869140625 l 1
 67.837890625 259.90234375 l 1
 174.65625 461.943359375 l 1
 363.971679688 534.943359375 l 1
272.905273438 59.9287109375 m 1
 387.884765625 106.655273438 l 1
 463.961914062 259.90234375 l 1
 447.084960938 413.190429688 l 1
 349.961914062 459.966796875 l 1
 234.825195312 413.190429688 l 1
 157.903320312 259.90234375 l 1
 175.65625 106.655273438 l 1
 272.905273438 59.9287109375 l 1
EndSplineSet
Validated: 1
EndChar
StartChar: divide
Encoding: 166 247 230
Width: 556
Flags: HMW
HStem: 145 100<279 351 260 370> 325 75<147 549 133 563> 480 100<344 416 325 435>
CounterMasks: 1 e0
LayerCount: 2
Back
SplineSet
549 325 m 1
 133 325 l 1
 147 400 l 1
 563 400 l 1
 549 325 l 1
416 480 m 5
 325 480 l 5
 344 580 l 5
 435 580 l 5
 416 480 l 5
351 145 m 5
 260 145 l 5
 279 245 l 5
 370 245 l 5
 351 145 l 5
EndSplineSet
Fore
SplineSet
255.720703125 170.275390625 m 5
 264.83203125 219.90234375 l 5
 303.014648438 254.921875 l 5
 347.901367188 254.817382812 l 5
 373.19921875 219.651367188 l 5
 364.088867188 170.0234375 l 5
 325.908203125 135.006835938 l 5
 281.020507812 135.110351562 l 5
 255.720703125 170.275390625 l 5
320.903320312 505.095703125 m 1
 330.014648438 554.721679688 l 1
 368.197265625 589.741210938 l 1
 413.083984375 589.63671875 l 1
 438.381835938 554.470703125 l 1
 429.271484375 504.842773438 l 1
 391.090820312 469.826171875 l 1
 346.203125 469.9296875 l 1
 320.903320312 505.095703125 l 1
549 325 m 1
 133 325 l 1
 132 400 l 1
 550 400 l 1
 549 325 l 1
EndSplineSet
Validated: 1
EndChar
StartChar: oslash
Encoding: 167 248 229
Width: 532
Flags: HMW
HStem: -15 75<257 312.5 257 330> 460 75<310.5 367>
LayerCount: 2
Back
SplineSet
599 486 m 5
 543 432 l 5
 563 387 567 329 554 260 c 4
 521 88 402 -15 258 -15 c 4
 203 -15 159 0 125 27 c 5
 82 -15 l 5
 34 34 l 5
 82 81 l 5
 60 126 54 187 68 260 c 4
 102 432 220 535 364 535 c 4
 421 535 468 518 502 488 c 5
 551 535 l 5
 599 486 l 5
158 260 m 4
 149 216 150 181 156 152 c 5
 437 425 l 5
 415 449 384 460 350 460 c 4
 271 460 186 402 158 260 c 4
464 260 m 4
 471 299 472 332 468 359 c 5
 190 90 l 5
 212 69 241 60 273 60 c 4
 352 60 437 118 464 260 c 4
EndSplineSet
Fore
SplineSet
543.125 432.126953125 m 5
 561.013671875 355.107421875 l 5
 554.134765625 260.078125 l 5
 447.764648438 58.0791015625 l 5
 258.083984375 -14.955078125 l 5
 183.685546875 -4.08203125 l 5
 124.986328125 26.994140625 l 5
 110.640012447 13.0136333858 96.2962265867 -0.969403670031 81.955078125 -14.955078125 c 5
 65.9452866907 1.36488304482 49.9332757073 17.6826246657 33.9189453125 33.998046875 c 5
 49.9284357304 49.6793116655 65.9404425243 65.3580600798 81.955078125 81.0341796875 c 5
 61.439453125 160.037109375 l 5
 67.943359375 259.995117188 l 5
 174.657226562 462.036132812 l 5
 363.994140625 535.036132812 l 5
 441.666015625 522.779296875 l 5
 502.01171875 488.000976562 l 5
 518.355353619 503.681430235 534.7010264 519.359845996 551.048828125 535.036132812 c 5
 567.034806559 518.693009684 583.018562222 502.347663785 599 486 c 5
 580.373433806 468.043883902 561.748411772 450.086223645 543.125 432.126953125 c 5
156.0078125 152.083007812 m 5
 249.715751778 243.096097181 343.423437764 334.10943984 437.130859375 425.123046875 c 5
 398.0390625 451.638671875 l 5
 350.06640625 460.143554688 l 5
 234.930664062 413.366210938 l 5
 158.008789062 260.078125 l 5
 151.379882812 200.485351562 l 5
 156.0078125 152.083007812 l 5
468.15234375 359.110351562 m 5
 375.486933002 269.406296165 282.808096751 179.71566627 190.115234375 90.0390625 c 5
 227.893554688 67.150390625 l 5
 273.176757812 60.0634765625 l 5
 388.177734375 106.790039062 l 5
 464.150390625 260.036132812 l 5
 470.245117188 314.142578125 l 5
 468.15234375 359.110351562 l 5
EndSplineSet
Validated: 1
EndChar
StartChar: ugrave
Encoding: 168 249 228
Width: 526
Flags: HMW
HStem: -15 76<201 253> 0 61 500 20G<141 231 231 231 476 566 566 566> 603 187<343 352 240 408 343 343>
LayerCount: 2
Back
SplineSet
476 520 m 5xb0
 566 520 l 5
 467 0 l 5
 386 0 l 5
 400 75 l 5
 351 18 289 -15 217 -15 c 4
 73 -15 56 77 80 201 c 6
 141 520 l 5
 231 520 l 5
 171 205 l 6
 154 115 162 61 240 61 c 4
 322 61 400 123 422 237 c 6
 476 520 l 5xb0
352 790 m 5
 408 603 l 5
 343 603 l 5x70
 240 790 l 5
 352 790 l 5
EndSplineSet
Fore
Refer: 182 96 N 1 0 0 1 68.202 63 2
Refer: 83 117 N 1 0 0 1 0 0 3
Validated: 1
EndChar
StartChar: uacute
Encoding: 169 250 227
Width: 526
Flags: HMW
HStem: -15 76<201 253> 0 61 500 20G<141 231 231 231 476 566 566 566> 770 20G<420 538 538 538>
LayerCount: 2
Back
SplineSet
476 520 m 5xb0
 566 520 l 5
 467 0 l 5
 386 0 l 5
 400 75 l 5
 351 18 289 -15 217 -15 c 4
 73 -15 56 77 80 201 c 6
 141 520 l 5
 231 520 l 5
 171 205 l 6
 154 115 162 61 240 61 c 4
 322 61 400 123 422 237 c 6
 476 520 l 5xb0
538 790 m 5
 364 603 l 5
 293 603 l 5x70
 420 790 l 5
 538 790 l 5
EndSplineSet
Fore
Refer: 345 180 N 1 0 0 1 226.822 63 2
Refer: 83 117 N 1 0 0 1 0 0 3
Validated: 9
EndChar
StartChar: ucircumflex
Encoding: 170 251 226
Width: 526
Flags: HMW
HStem: -15 76<201 253> 0 61 500 20G<141 231 231 231 476 566 566 566> 600 160<217 444 217 444 441 444 367 532 441 441>
LayerCount: 2
Back
SplineSet
476 520 m 5xb0
 566 520 l 5
 467 0 l 5
 386 0 l 5
 400 75 l 5
 351 18 289 -15 217 -15 c 4
 73 -15 56 77 80 201 c 6
 141 520 l 5
 231 520 l 5
 171 205 l 6
 154 115 162 61 240 61 c 4
 322 61 400 123 422 237 c 6
 476 520 l 5xb0
367 760 m 5
 444 760 l 5
 532 600 l 5
 441 600 l 5
 394 701 l 5
 305 600 l 5x70
 217 600 l 5
 367 760 l 5
EndSplineSet
Fore
Refer: 169 94 S 1 0 0 1 6.66939 156 2
Refer: 83 117 N 1 0 0 1 0 0 3
Validated: 9
EndChar
StartChar: udieresis
Encoding: 171 252 225
Width: 526
Flags: HMW
HStem: -15 76<201 253> 0 61 500 20G<141 231 231 231 476 566 566 566> 620 100<252 325 234 343 252 414 432 505>
LayerCount: 2
Back
SplineSet
565.958007812 519.926757812 m 1
 532.970029108 346.57544611 499.965484789 173.225812287 466.971679688 -0.1220703125 c 1
 439.896158854 -0.1220703125 412.820638021 -0.1220703125 385.745117188 -0.1220703125 c 1
 390.415140365 24.8696903642 395.084742875 49.8618717083 399.75390625 74.8544921875 c 1
 316.911132812 8.474609375 l 1
 216.869140625 -15.130859375 l 1
 85.23046875 46.3623046875 l 1
 79.685546875 200.859375 l 1
 100.033935523 307.215087915 120.382243984 413.570881016 140.73046875 519.926757812 c 1
 170.724609375 519.926757813 200.71875 519.926757812 230.712890625 519.926757812 c 1
 210.670572917 414.905273438 190.628255208 309.883789062 170.5859375 204.862304688 c 1
 169.551757812 99.109375 l 1
 239.634765625 60.845703125 l 1
 353.083007812 106.11328125 l 1
 421.685546875 236.888671875 l 1
 439.671202958 331.234396 457.65655887 425.580420297 475.641601562 519.926757812 c 1
 565.958007812 519.926757812 l 1
233.883789062 620 m 5
 239.887514252 653.330910228 245.891738736 686.66132116 251.896484375 719.991210938 c 5
 282.224609375 719.991210937 312.552734375 719.991210938 342.880859375 719.991210938 c 5
 336.904323889 686.660454757 330.927440918 653.330046061 324.950195312 620 c 5
 294.594726562 620 264.239257813 620 233.883789062 620 c 5
413.849609375 620 m 5
 419.909427276 653.330481578 425.969321986 686.660886347 432.029296875 719.991210938 c 5
 462.357096354 719.991210938 492.684895833 719.991210937 523.012695312 719.991210938 c 5
 517.008815479 686.660455354 511.00458875 653.330046667 505 620 c 5
 474.616536458 620 444.233072917 620 413.849609375 620 c 5
476 520 m 5xb0
 566 520 l 5
 467 0 l 5
 386 0 l 5
 400 75 l 5
 351 18 289 -15 217 -15 c 4
 73 -15 56 77 80 201 c 6
 141 520 l 5
 231 520 l 5
 171 205 l 6
 154 115 162 61 240 61 c 4
 322 61 400 123 422 237 c 6
 476 520 l 5xb0
325 620 m 5
 234 620 l 5
 252 720 l 5
 343 720 l 5
 325 620 l 5
505 620 m 5
 414 620 l 5
 432 720 l 5x70
 523 720 l 5
 505 620 l 5
EndSplineSet
Fore
SplineSet
419.510742188 648.390625 m 5x30
 427.103515625 689.74609375 l 5
 458.921875 718.928710938 l 5
 496.328125 718.841796875 l 5
 517.409179688 689.537109375 l 5
 509.817382812 648.180664062 l 5
 478 619 l 5
 440.59375 619.0859375 l 5
 419.510742188 648.390625 l 5x30
239.510742188 649.390625 m 5
 247.103515625 690.74609375 l 5
 278.921875 719.928710938 l 5
 316.328125 719.841796875 l 5
 337.409179688 690.537109375 l 5
 329.817382812 649.180664062 l 5
 298 620 l 5
 260.59375 620.0859375 l 5
 239.510742188 649.390625 l 5
565.958007812 519.926757812 m 1
 532.970029108 346.57544611 499.965484789 173.225812287 466.971679688 -0.1220703125 c 1
 439.896158854 -0.1220703125 412.820638021 -0.1220703125 385.745117188 -0.1220703125 c 1
 390.415140365 24.8696903642 395.084742875 49.8618717083 399.75390625 74.8544921875 c 1
 316.911132812 8.474609375 l 1
 216.869140625 -15.130859375 l 1
 85.23046875 46.3623046875 l 1
 79.685546875 200.859375 l 1
 100.033935523 307.215087915 120.382243984 413.570881016 140.73046875 519.926757812 c 1
 170.724609375 519.926757813 200.71875 519.926757812 230.712890625 519.926757812 c 1
 210.670572917 414.905273438 190.628255208 309.883789062 170.5859375 204.862304688 c 1
 169.551757812 99.109375 l 1
 239.634765625 60.845703125 l 1
 353.083007812 106.11328125 l 1
 421.685546875 236.888671875 l 1
 439.671202958 331.234396 457.65655887 425.580420297 475.641601562 519.926757812 c 1
 565.958007812 519.926757812 l 1
EndSplineSet
Validated: 1
EndChar
StartChar: thorn
Encoding: -1 254 223
Width: 1000
Flags: HM
LayerCount: 2
Back
SplineSet
110 -200 m 1
 20 -200 l 1
 196 720 l 1
 286 720 l 1
 235 449 l 1
 274 499 319 535 388 535 c 0
 532 535 589 422 558 260 c 0
 527 98 426 -15 282 -15 c 0
 220 -15 180 13 158 55 c 1
 110 -200 l 1
187 260 m 0
 161 128 213 60 292 60 c 0
 371 60 442 128 468 260 c 0
 494 392 448 460 369 460 c 0
 300 460 213 392 187 260 c 0
EndSplineSet
Fore
Validated: 1
EndChar
StartChar: ydieresis
Encoding: -1 255 222
Width: 1000
Flags: HM
LayerCount: 2
Back
SplineSet
0 -200 m 1
 5 -122 l 1
 21 -128 48 -131 63 -131 c 0
 102 -131 143 -110 174 -58 c 2
 210 5 l 1
 107 520 l 1
 200 520 l 1
 274 115 l 1
 499 520 l 1
 587 520 l 1
 263 -56 l 2
 210 -147 150 -210 65 -210 c 0
 48 -210 17 -207 0 -200 c 1
311 620 m 1
 220 620 l 1
 238 720 l 1
 329 720 l 1
 311 620 l 1
501 620 m 1
 410 620 l 1
 428 720 l 1
 519 720 l 1
 501 620 l 1
EndSplineSet
Fore
Validated: 1
EndChar
StartChar: Abreve
Encoding: -1 258 325
Width: 1000
Flags: HM
LayerCount: 2
Back
SplineSet
428 720 m 1xe8
 525 720 l 1
 665 0 l 1xe8
 562 0 l 1xf0
 530 175 l 1
 206 175 l 1
 107 0 l 1
 10 0 l 1
 428 720 l 1xe8
455 611 m 1
 254 260 l 1
 515 260 l 1
 455 611 l 1
624 920 m 1
 694 920 l 1
 678 835 606 753 486 753 c 0
 366 753 330 836 346 920 c 1
 416 920 l 1
 411 870 434 834 502 834 c 0
 570 834 609 870 624 920 c 1
EndSplineSet
Fore
Validated: 1
EndChar
StartChar: abreve
Encoding: -1 259 309
Width: 1000
Flags: HM
LayerCount: 2
Back
SplineSet
382 64 m 1xa8
 319 6 254 -15 192 -15 c 0x70
 96 -15 24 31 44 137 c 0xa8
 66 249 163 294 281 305 c 0
 337 310 400 320 428 332 c 1
 432 352 l 2
 448 433 402 463 333 463 c 0
 268 463 219 427 189 359 c 1
 107 378 l 1
 156 498 256 535 356 535 c 0
 495 535 544 465 519 334 c 2
 475 106 l 2
 464 53 468 19 483 0 c 1
 392 0 l 1xb0
 378 14 380 39 382 64 c 1xa8
391 140 m 1
 415 263 l 1
 389 252 329 241 277 233 c 0
 220 224 153 212 139 141 c 0
 127 75 171 57 219 57 c 0
 286 57 357 105 391 140 c 1
459 720 m 1
 519 720 l 1
 502 635 445 573 345 573 c 0
 245 573 215 636 231 720 c 1
 291 720 l 1
 286 670 311 644 359 644 c 0xb0
 407 644 444 670 459 720 c 1
EndSplineSet
Fore
Validated: 1
EndChar
StartChar: Aogonek
Encoding: -1 260 334
Width: 1000
Flags: HM
LayerCount: 2
Back
SplineSet
429 720 m 1
 526 720 l 1
 665 0 l 1
 642 0 l 2
 593 0 549 -34 541 -75 c 0
 534 -113 552 -139 585 -139 c 0
 615 -139 637 -127 659 -97 c 1
 693 -136 l 1
 671 -165 630 -204 568 -204 c 0
 509 -204 457 -167 472 -89 c 0
 482 -38 521 -5 559 10 c 1
 531 175 l 1
 207 175 l 1
 107 0 l 1
 10 0 l 1
 429 720 l 1
456 611 m 1
 255 260 l 1
 516 260 l 1
 456 611 l 1
EndSplineSet
Fore
Validated: 1
EndChar
StartChar: aogonek
Encoding: -1 261 330
Width: 1000
Flags: HM
LayerCount: 2
Back
SplineSet
399 64 m 1xd0
 336 6 271 -15 209 -15 c 0
 113 -15 41 31 61 137 c 0
 83 249 180 294 298 305 c 0
 354 310 417 320 445 332 c 1
 449 352 l 2
 465 433 419 463 350 463 c 0
 285 463 237 427 205 359 c 1
 124 378 l 1
 173 498 273 535 373 535 c 0
 512 535 561 465 535 334 c 2
 491 106 l 2
 481 53 484 19 499 0 c 1
 469 0 l 2xb0
 424 0 380 -26 371 -75 c 0
 364 -113 382 -139 415 -139 c 0
 445 -139 467 -127 489 -97 c 1
 523 -136 l 1
 501 -165 460 -204 398 -204 c 0
 339 -204 287 -167 302 -89 c 0
 313 -32 356 3 404 17 c 1
 396 30 397 51 399 64 c 1xd0
408 140 m 1
 432 263 l 1
 406 252 346 241 294 233 c 0
 237 224 170 212 156 141 c 0
 143 75 189 57 237 57 c 0xd0
 304 57 374 105 408 140 c 1
EndSplineSet
Fore
Validated: 1
EndChar
StartChar: Cacute
Encoding: -1 262 323
Width: 1000
Flags: HM
LayerCount: 2
Back
SplineSet
219 360 m 0xd0
 186 193 234 65 394 65 c 0
 502 65 583 132 631 233 c 1
 724 214 l 1
 666 79 543 -15 379 -15 c 0
 159 -15 78 153 119 360 c 0
 158 567 304 735 524 735 c 0
 688 735 802 645 775 496 c 1
 685 496 l 1
 694 606 626 655 508 655 c 0
 358 655 250 527 219 360 c 0xd0
708 990 m 1
 534 803 l 1
 463 803 l 1
 590 990 l 1xb0
 708 990 l 1
EndSplineSet
Fore
Validated: 1
EndChar
StartChar: cacute
Encoding: -1 263 307
Width: 1000
Flags: HM
LayerCount: 2
Back
SplineSet
158 260 m 0xd0
 131 118 189 60 268 60 c 0
 329 60 384 95 419 177 c 1
 502 157 l 1
 453 48 365 -15 253 -15 c 0
 109 -15 35 88 68 260 c 0
 102 432 215 535 359 535 c 0
 471 535 555 476 541 357 c 1
 456 357 l 1
 464 440 406 460 345 460 c 0
 266 460 186 402 158 260 c 0xd0
538 790 m 1
 364 603 l 1
 293 603 l 1
 420 790 l 1xb0
 538 790 l 1
EndSplineSet
Fore
Validated: 1
EndChar
StartChar: Ccaron
Encoding: -1 268 322
Width: 1000
Flags: HM
LayerCount: 2
Back
SplineSet
219 360 m 0x90
 186 193 234 65 394 65 c 0
 502 65 583 132 631 233 c 1
 724 214 l 1
 666 79 543 -15 379 -15 c 0
 159 -15 78 153 119 360 c 0
 158 567 304 735 524 735 c 0
 688 735 802 645 775 496 c 1
 685 496 l 1
 694 606 626 655 508 655 c 0
 358 655 250 527 219 360 c 0x90
572 790 m 1
 495 790 l 1
 391 970 l 1
 478 970 l 1
 542 849 l 1xa0
 654 970 l 1
 746 970 l 1xc0
 572 790 l 1
EndSplineSet
Fore
Validated: 1
EndChar
StartChar: ccaron
Encoding: -1 269 306
Width: 1000
Flags: HM
LayerCount: 2
Back
SplineSet
158 260 m 0x90
 131 118 189 60 268 60 c 0
 329 60 384 95 419 177 c 1
 502 157 l 1
 453 48 365 -15 253 -15 c 0
 109 -15 35 88 68 260 c 0
 102 432 215 535 359 535 c 0
 471 535 555 476 541 357 c 1
 456 357 l 1
 464 440 406 460 345 460 c 0
 266 460 186 402 158 260 c 0x90
404 600 m 1
 327 600 l 1
 239 760 l 1
 326 760 l 1
 374 659 l 1xa0
 462 760 l 1
 554 760 l 1xc0
 404 600 l 1
EndSplineSet
Fore
Validated: 1
EndChar
